{
customParameters = (
{
name = openTypeOS2Type;
value = (
);
}
);
date = "2014-12-24 00:00:14 +0000";
familyName = "Libre Clarendon";
fontMaster = (
{
alignmentZones = (
"{665, 10}",
"{450, 10}",
"{-10, 10}",
"{-324, 10}"
);
ascender = 665;
capHeight = 630;
customParameters = (
{
name = typoAscender;
value = "924";
},
{
name = typoDescender;
value = "-326";
},
{
name = typoLineGap;
value = "0";
},
{
name = winAscent;
value = "924";
},
{
name = winDescent;
value = "-326";
}
);
descender = "-326";
horizontalStems = (
35
);
id = "E9E6D55E-9446-45F2-B66C-3272698B0216";
verticalStems = (
40
);
weight = Light;
weightValue = 40;
width = Condensed;
xHeight = 450;
},
{
alignmentZones = (
"{665, 10}",
"{450, 10}",
"{-10, 10}",
"{-324, 10}"
);
ascender = 665;
capHeight = 630;
customParameters = (
{
name = typoAscender;
value = "924";
},
{
name = typoDescender;
value = "-326";
},
{
name = typoLineGap;
value = "0";
},
{
name = winAscent;
value = "924";
},
{
name = winDescent;
value = "-326";
}
);
descender = "-326";
horizontalStems = (
95
);
id = "B25F85BC-C782-4067-8484-07202F80B8CD";
verticalStems = (
110
);
weightValue = 130;
width = Condensed;
xHeight = 450;
},
{
alignmentZones = (
"{665, 12}",
"{466, 12}",
"{-12, 12}",
"{-326, 12}"
);
ascender = 665;
capHeight = 630;
customParameters = (
{
name = typoAscender;
value = "924";
},
{
name = typoDescender;
value = "-326";
},
{
name = typoLineGap;
value = "0";
},
{
name = winAscent;
value = "924";
},
{
name = winDescent;
value = "-326";
}
);
descender = "-326";
horizontalStems = (
135
);
id = "B817C739-5D48-43E8-AAEE-CE891513D7BC";
verticalStems = (
176
);
weight = Bold;
weightValue = 176;
width = Condensed;
xHeight = 466;
},
{
alignmentZones = (
"{665, 10}",
"{450, 10}",
"{-10, 10}",
"{-324, 10}"
);
ascender = 665;
capHeight = 630;
customParameters = (
{
name = typoAscender;
value = "924";
},
{
name = typoDescender;
value = "-326";
},
{
name = typoLineGap;
value = "0";
},
{
name = winAscent;
value = "924";
},
{

glyphs = (
{
glyphname = A;
lastChange = "2015-03-27 15:10:12 +0000";
layers = (
{
guideLines = (
{
angle = 90;
position = "{221, 79}";
}
);
layerId = "E9E6D55E-9446-45F2-B66C-3272698B0216";
name = "Light Condensed";
paths = (
{
closed = 1;
nodes = (
"8 0 LINE",
"182 0 LINE",
"182 30 LINE",
"146 30 LINE SMOOTH",
"118 30 OFFCURVE",
"107 39 OFFCURVE",
"107 58 CURVE SMOOTH",
"107 64 OFFCURVE",
"108 71 OFFCURVE",
"110 79 CURVE SMOOTH",
"219 597 LINE",
"224 597 LINE",
"325 79 LINE SMOOTH",
"327 70 OFFCURVE",
"328 63 OFFCURVE",
"328 56 CURVE SMOOTH",
"328 38 OFFCURVE",
"319 30 OFFCURVE",
"295 30 CURVE SMOOTH",
"259 30 LINE",
"259 0 LINE",
"445 0 LINE",
"445 30 LINE",
"412 30 LINE SMOOTH",
"389 30 OFFCURVE",
"378 40 OFFCURVE",
"370 80 CURVE SMOOTH",
"255 665 LINE",
"201 665 LINE",
"74 79 LINE SMOOTH",
"65 40 OFFCURVE",
"58 30 OFFCURVE",
"32 30 CURVE SMOOTH",
"8 30 LINE"
);
},
{
closed = 1;
nodes = (
"137 234 LINE",
"303 234 LINE",
"297 264 LINE",
"144 264 LINE"
);
}
);
width = 449;
},
{
layerId = "B25F85BC-C782-4067-8484-07202F80B8CD";
name = Condensed;
paths = (
{
closed = 1;
nodes = (
"11 0 LINE",
"229 0 LINE",
"229 90 LINE",
"195 90 LINE SMOOTH",
"178 90 OFFCURVE",
"171 97 OFFCURVE",
"171 112 CURVE SMOOTH",
"171 121 OFFCURVE",
"172 127 OFFCURVE",
"174 135 CURVE SMOOTH",
"257 539 LINE",
"261 539 LINE",
"345 130 LINE SMOOTH",
"346 124 OFFCURVE",
"347 119 OFFCURVE",
"347 113 CURVE SMOOTH",
"347 99 OFFCURVE",
"339 90 OFFCURVE",
"324 90 CURVE SMOOTH",
"273 90 LINE",
"273 0 LINE",
"558 0 LINE",
"558 90 LINE",
"549 90 LINE SMOOTH",
"516 91 OFFCURVE",
"502 101 OFFCURVE",
"495 130 CURVE SMOOTH",
"357 665 LINE",
"197 665 LINE",
"67 119 LINE SMOOTH",
"62 97 OFFCURVE",
"50 90 OFFCURVE",
"31 90 CURVE SMOOTH",
"11 90 LINE"
);
},
{
closed = 1;
nodes = (
"180 244 LINE",
"339 244 LINE",
"321 321 LINE",
"196 321 LINE"
);
}
);
width = 567;
},
{
layerId = "B817C739-5D48-43E8-AAEE-CE891513D7BC";
name = "Bold Condensed";
paths = (
{
closed = 1;
nodes = (
"5 0 LINE",
"236 0 LINE",
"236 108 LINE",
"227 108 LINE SMOOTH",
"202 108 OFFCURVE",
"193 117 OFFCURVE",
"193 134 CURVE SMOOTH",
"193 140 OFFCURVE",
"194 146 OFFCURVE",
"195 153 CURVE SMOOTH",
"238 435 LINE",
"243 435 LINE",
"286 158 LINE",
"287 152 OFFCURVE",
"288 146 OFFCURVE",
"288 140 CURVE SMOOTH",
"288 119 OFFCURVE",
"277 108 OFFCURVE",
"258 108 CURVE SMOOTH",
"250 108 LINE",
"250 0 LINE",
"506 0 LINE",
"506 108 LINE",
"502 108 LINE SMOOTH",
"487 108 OFFCURVE",
"479 115 OFFCURVE",
"471 148 CURVE SMOOTH",
"358 665 LINE",
"170 665 LINE",
"47 142 LINE SMOOTH",
"41 116 OFFCURVE",
"31 108 OFFCURVE",
"9 108 CURVE SMOOTH",
"5 108 LINE"
);
},
{
closed = 1;
nodes = (
"187 204 LINE",
"294 204 LINE",
"283 314 LINE",
"200 314 LINE"
);
}
);
width = 511;
},
{
layerId = UUID0;
name = "Light Extended";
paths = (
{
closed = 1;
nodes = (
"0 0 LINE",
"249 0 LINE",
"249 36 LINE",
"173 36 LINE SMOOTH",
"156 36 OFFCURVE",
"148 45 OFFCURVE",
"148 57 CURVE SMOOTH",
"148 60 OFFCURVE",
"149 64 OFFCURVE",
"150 68 CURVE",
"351 618 LINE",
"355 618 LINE",
"561 68 LINE",
"563 64 OFFCURVE",
"563 60 OFFCURVE",
"563 57 CURVE SMOOTH",
"563 44 OFFCURVE",
"551 36 OFFCURVE",
"534 36 CURVE SMOOTH",
"462 36 LINE",
"462 0 LINE",
"722 0 LINE",
"722 36 LINE",
"650 36 LINE SMOOTH",
"631 36 OFFCURVE",
"622 44 OFFCURVE",
"613 68 CURVE SMOOTH",
"390 665 LINE",
"326 665 LINE",
"109 68 LINE SMOOTH",
"100 42 OFFCURVE",
"87 36 OFFCURVE",
"65 36 CURVE SMOOTH",
"0 36 LINE"
);
},
{
closed = 1;
nodes = (
"206 240 LINE",
"518 240 LINE",
"518 276 LINE",
"206 276 LINE"
);
}
);
width = 600;
},
{
layerId = "4355E1B8-19E6-44BD-A1D7-6E3C2DECA4C8";
name = Extended;
paths = (
{
closed = 1;
nodes = (
"10 0 LINE",
"339 0 LINE",
"339 90 LINE",
"246 90 LINE SMOOTH",
"223 90 OFFCURVE",
"210 101 OFFCURVE",
"210 122 CURVE SMOOTH",
"210 128 OFFCURVE",
"212 137 OFFCURVE",
"215 146 CURVE",
"364 554 LINE",
"369 554 LINE",
"503 146 LINE",
"507 134 OFFCURVE",
"509 124 OFFCURVE",
"509 116 CURVE SMOOTH",
"509 98 OFFCURVE",
"500 90 OFFCURVE",
"478 90 CURVE SMOOTH",
"394 90 LINE",
"394 0 LINE",
"753 0 LINE",
"753 90 LINE",
"740 90 LINE SMOOTH",
"691 91 OFFCURVE",
"675 103 OFFCURVE",
"659 146 CURVE SMOOTH",
"468 665 LINE",
"308 665 LINE",
"108 146 LINE SMOOTH",
"90 101 OFFCURVE",
"77 90 OFFCURVE",
"43 90 CURVE SMOOTH",
"10 90 LINE"
);
},
{
closed = 1;
nodes = (
"234 244 LINE",
"488 244 LINE",
"458 334 LINE",
"268 334 LINE"
);
}
);
width = 763;
},
{
layerId = "14C77FDB-037D-4842-9381-6D9ED15DD48C";
name = "Bold Extended";
paths = (
{
closed = 1;
nodes = (
"9 0 LINE",
"344 0 LINE",
"344 152 LINE",
"300 152 LINE SMOOTH",
"278 152 OFFCURVE",
"268 165 OFFCURVE",
"268 181 CURVE SMOOTH",
"268 187 OFFCURVE",
"269 194 OFFCURVE",
"272 202 CURVE",
"370 489 LINE",
"374 489 LINE",
"476 192 LINE",
"478 186 OFFCURVE",
"479 181 OFFCURVE",
"479 176 CURVE SMOOTH",
"479 161 OFFCURVE",
"470 152 OFFCURVE",
"451 152 CURVE SMOOTH",
"390 152 LINE",
"390 0 LINE",
"806 0 LINE",
"806 152 LINE",
"798 152 LINE SMOOTH",
"764 153 OFFCURVE",
"750 163 OFFCURVE",
"737 192 CURVE SMOOTH",
"526 665 LINE",
"280 665 LINE",
"89 187 LINE SMOOTH",
"78 160 OFFCURVE",
"68 152 OFFCURVE",
"40 152 CURVE SMOOTH",
"9 152 LINE"
);
},
{
closed = 1;
nodes = (
"264 228 LINE",
"483 228 LINE",
"447 351 LINE",
"300 351 LINE"
);
}
);
width = 815;
}
);
unicode = 0041;
},
{
glyphname = C;
lastChange = "2015-03-27 19:05:05 +0000";
layers = (
{
layerId = "E9E6D55E-9446-45F2-B66C-3272698B0216";
name = "Light Condensed";
paths = (
{
closed = 1;
nodes = (
"120 28 OFFCURVE",
"76 104 OFFCURVE",
"76 331 CURVE SMOOTH",
"76 557 OFFCURVE",
"120 632 OFFCURVE",
"225 632 CURVE SMOOTH",
"299 632 OFFCURVE",
"350 595 OFFCURVE",
"350 435 CURVE",
"381 435 LINE",
"381 665 LINE",
"360 665 LINE",
"354 606 LINE",
"350 606 LINE",
"322 649 OFFCURVE",
"288 669 OFFCURVE",
"225 669 CURVE SMOOTH",
"87 669 OFFCURVE",
"30 572 OFFCURVE",
"30 330 CURVE SMOOTH",
"30 92 OFFCURVE",
"85 -10 OFFCURVE",
"218 -10 CURVE SMOOTH",
"330 -10 OFFCURVE",
"385 62 OFFCURVE",
"385 232 CURVE",
"350 232 LINE",
"350 68 OFFCURVE",
"296 28 OFFCURVE",
"222 28 CURVE SMOOTH"
);
}
);
width = 415;
},
{
layerId = "B25F85BC-C782-4067-8484-07202F80B8CD";
name = Condensed;
paths = (
{
closed = 1;
nodes = (
"214 93 OFFCURVE",
"187 137 OFFCURVE",
"187 329 CURVE SMOOTH",
"187 507 OFFCURVE",
"210 571 OFFCURVE",
"265 571 CURVE SMOOTH",
"317 571 OFFCURVE",
"326 512 OFFCURVE",
"326 401 CURVE",
"427 401 LINE",
"427 665 LINE",
"345 665 LINE",
"333 609 LINE",
"329 609 LINE",
"310 650 OFFCURVE",
"272 675 OFFCURVE",
"212 675 CURVE SMOOTH",
"102 675 OFFCURVE",
"35 591 OFFCURVE",
"35 338 CURVE SMOOTH",
"35 84 OFFCURVE",
"102 -10 OFFCURVE",
"243 -10 CURVE SMOOTH",
"382 -10 OFFCURVE",
"427 81 OFFCURVE",
"427 272 CURVE",
"328 272 LINE",
"328 124 OFFCURVE",
"302 93 OFFCURVE",
"262 93 CURVE SMOOTH"
);
}
);
width = 457;
},
{
layerId = "B817C739-5D48-43E8-AAEE-CE891513D7BC";
name = "Bold Condensed";
paths = (
{
closed = 1;
nodes = (
"220 128 OFFCURVE",
"215 148 OFFCURVE",
"215 311 CURVE SMOOTH",
"215 517 OFFCURVE",
"223 537 OFFCURVE",
"247 537 CURVE SMOOTH",
"269 537 OFFCURVE",
"278 521 OFFCURVE",
"278 381 CURVE",
"429 381 LINE",
"429 665 LINE",
"308 665 LINE",
"302 623 LINE",
"298 623 LINE",
"285 656 OFFCURVE",
"252 675 OFFCURVE",
"194 675 CURVE SMOOTH",
"78 675 OFFCURVE",
"17 593 OFFCURVE",
"17 344 CURVE SMOOTH",
"17 85 OFFCURVE",
"83 -10 OFFCURVE",
"232 -10 CURVE SMOOTH",
"374 -10 OFFCURVE",
"429 77 OFFCURVE",
"429 302 CURVE",
"278 302 LINE",
"278 154 OFFCURVE",
"273 128 OFFCURVE",
"245 128 CURVE SMOOTH"
);
}
);
width = 449;
},
{
background = {
paths = (
{
closed = 0;
nodes = (
"626 441 LINE",
"656 441 LINE",
"656 665 LINE",
"628 665 LINE",
"622 609 LINE",
"618 609 LINE"
);
}
);
};
guideLines = (
{
position = "{541, 240}";
}
);
layerId = UUID0;
name = "Light Extended";
paths = (
{
closed = 1;
nodes = (
"212 31 OFFCURVE",
"124 135 OFFCURVE",
"124 332 CURVE SMOOTH",
"124 530 OFFCURVE",
"213 634 OFFCURVE",
"390 634 CURVE SMOOTH",
"517 634 OFFCURVE",
"597 580 OFFCURVE",
"624 441 CURVE",
"656 441 LINE",
"656 663 LINE",
"628 663 LINE",
"616 567 LINE",
"612 567 LINE",
"575 629 OFFCURVE",
"504 675 OFFCURVE",
"384 675 CURVE SMOOTH",
"189 675 OFFCURVE",
"75 554 OFFCURVE",
"75 332 CURVE SMOOTH",
"75 112 OFFCURVE",
"186 -10 OFFCURVE",
"382 -10 CURVE SMOOTH",
"559 -10 OFFCURVE",
"666 89 OFFCURVE",
"666 242 CURVE",
"623 242 LINE",
"623 110 OFFCURVE",
"539 31 OFFCURVE",
"387 31 CURVE SMOOTH"
);
}
);
width = 731;
},
{
layerId = "4355E1B8-19E6-44BD-A1D7-6E3C2DECA4C8";
name = Extended;
paths = (
{
closed = 1;
nodes = (
"294 93 OFFCURVE",
"204 142 OFFCURVE",
"204 331 CURVE SMOOTH",
"204 490 OFFCURVE",
"268 572 OFFCURVE",
"400 572 CURVE SMOOTH",
"504 572 OFFCURVE",
"567 522 OFFCURVE",
"577 411 CURVE",
"680 411 LINE",
"680 665 LINE",
"577 665 LINE",
"566 608 LINE",
"562 608 LINE",
"528 650 OFFCURVE",
"475 675 OFFCURVE",
"387 675 CURVE SMOOTH",
"187 675 OFFCURVE",
"56 544 OFFCURVE",
"56 329 CURVE SMOOTH",
"56 124 OFFCURVE",
"174 -10 OFFCURVE",
"388 -10 CURVE SMOOTH",
"597 -10 OFFCURVE",
"686 119 OFFCURVE",
"686 272 CURVE",
"583 272 LINE",
"583 150 OFFCURVE",
"517 93 OFFCURVE",
"401 93 CURVE SMOOTH"
);
}
);
width = 741;
},
{
layerId = "14C77FDB-037D-4842-9381-6D9ED15DD48C";
name = "Bold Extended";
paths = (
{
closed = 1;
nodes = (
"331 175 OFFCURVE",
"300 216 OFFCURVE",
"300 330 CURVE SMOOTH",
"300 437 OFFCURVE",
"327 490 OFFCURVE",
"404 490 CURVE SMOOTH",
"468 490 OFFCURVE",
"500 454 OFFCURVE",
"500 381 CURVE",
"710 381 LINE",
"710 665 LINE",
"527 665 LINE",
"515 624 LINE",
"511 624 LINE",
"488 652 OFFCURVE",
"441 675 OFFCURVE",
"352 675 CURVE SMOOTH",
"147 675 OFFCURVE",
"17 553 OFFCURVE",
"17 334 CURVE SMOOTH",
"17 123 OFFCURVE",
"138 -10 OFFCURVE",
"378 -10 CURVE SMOOTH",
"632 -10 OFFCURVE",
"716 139 OFFCURVE",
"716 302 CURVE",
"503 302 LINE",
"503 216 OFFCURVE",
"473 175 OFFCURVE",
"402 175 CURVE SMOOTH"
);
}
);
width = 731;
}
);
unicode = 0043;
},
{
glyphname = D;
lastChange = "2015-03-27 14:09:51 +0000";
layers = (
{
layerId = "E9E6D55E-9446-45F2-B66C-3272698B0216";
name = "Light Condensed";
paths = (
{
closed = 1;
nodes = (
"13 0 LINE",
"224 0 LINE SMOOTH",
"336 0 OFFCURVE",
"432 94 OFFCURVE",
"432 336 CURVE SMOOTH",
"432 574 OFFCURVE",
"339 665 OFFCURVE",
"214 665 CURVE SMOOTH",
"13 665 LINE",
"13 635 LINE",
"47 635 LINE SMOOTH",
"74 635 OFFCURVE",
"85 612 OFFCURVE",
"85 573 CURVE SMOOTH",
"85 91 LINE SMOOTH",
"85 53 OFFCURVE",
"73 30 OFFCURVE",
"47 30 CURVE SMOOTH",
"13 30 LINE"
);
},
{
closed = 1;
nodes = (
"127 633 LINE",
"214 633 LINE SMOOTH",
"326 633 OFFCURVE",
"387 524 OFFCURVE",
"387 334 CURVE SMOOTH",
"387 136 OFFCURVE",
"321 32 OFFCURVE",
"225 32 CURVE SMOOTH",
"127 32 LINE"
);
}
);
width = 452;
},
{
layerId = "B25F85BC-C782-4067-8484-07202F80B8CD";
name = Condensed;
paths = (
{
closed = 1;
nodes = (
"15 0 LINE",
"277 0 LINE SMOOTH",
"434 0 OFFCURVE",
"518 120 OFFCURVE",
"518 332 CURVE SMOOTH",
"518 544 OFFCURVE",
"434 665 OFFCURVE",
"278 665 CURVE SMOOTH",
"15 665 LINE",
"15 575 LINE",
"50 575 LINE SMOOTH",
"71 575 OFFCURVE",
"77 562 OFFCURVE",
"77 543 CURVE SMOOTH",
"77 122 LINE SMOOTH",
"77 103 OFFCURVE",
"71 90 OFFCURVE",
"50 90 CURVE SMOOTH",
"15 90 LINE"
);
},
{
closed = 1;
nodes = (
"215 575 LINE",
"281 575 LINE SMOOTH",
"340 575 OFFCURVE",
"369 525 OFFCURVE",
"369 327 CURVE SMOOTH",
"369 137 OFFCURVE",
"343 90 OFFCURVE",
"282 90 CURVE SMOOTH",
"215 90 LINE"
);
}
);
width = 553;
},
{
layerId = "B817C739-5D48-43E8-AAEE-CE891513D7BC";
name = "Bold Condensed";
paths = (
{
closed = 1;
nodes = (
"7 0 LINE",
"244 0 LINE SMOOTH",
"378 0 OFFCURVE",
"485 94 OFFCURVE",
"485 337 CURVE SMOOTH",
"485 574 OFFCURVE",
"383 665 OFFCURVE",
"234 665 CURVE SMOOTH",
"7 665 LINE",
"7 557 LINE",
"24 557 LINE SMOOTH",
"44 557 OFFCURVE",
"51 546 OFFCURVE",
"51 525 CURVE SMOOTH",
"51 139 LINE SMOOTH",
"51 119 OFFCURVE",
"43 108 OFFCURVE",
"24 108 CURVE SMOOTH",
"7 108 LINE"
);
},
{
closed = 1;
nodes = (
"231 552 LINE",
"256 552 LINE SMOOTH",
"285 552 OFFCURVE",
"294 528 OFFCURVE",
"294 339 CURVE SMOOTH",
"294 131 OFFCURVE",
"283 113 OFFCURVE",
"257 113 CURVE SMOOTH",
"231 113 LINE"
);
}
);
width = 499;
},
{
layerId = UUID0;
name = "Light Extended";
paths = (
{
closed = 1;
nodes = (
"31 0 LINE",
"377 0 LINE SMOOTH",
"583 0 OFFCURVE",
"711 97 OFFCURVE",
"711 330 CURVE SMOOTH",
"711 564 OFFCURVE",
"581 665 OFFCURVE",
"378 665 CURVE SMOOTH",
"30 665 LINE",
"30 629 LINE",
"103 629 LINE SMOOTH",
"124 629 OFFCURVE",
"130 616 OFFCURVE",
"130 597 CURVE SMOOTH",
"130 68 LINE SMOOTH",
"130 49 OFFCURVE",
"124 36 OFFCURVE",
"103 36 CURVE SMOOTH",
"31 36 LINE"
);
},
{
closed = 1;
nodes = (
"178 629 LINE",
"378 629 LINE SMOOTH",
"551 629 OFFCURVE",
"662 561 OFFCURVE",
"662 333 CURVE SMOOTH",
"662 99 OFFCURVE",
"545 36 OFFCURVE",
"377 36 CURVE SMOOTH",
"178 36 LINE"
);
}
);
width = 786;
},
{
layerId = "4355E1B8-19E6-44BD-A1D7-6E3C2DECA4C8";
name = Extended;
paths = (
{
closed = 1;
nodes = (
"22 0 LINE",
"419 0 LINE SMOOTH",
"642 0 OFFCURVE",
"770 120 OFFCURVE",
"770 332 CURVE SMOOTH",
"770 544 OFFCURVE",
"642 665 OFFCURVE",
"420 665 CURVE SMOOTH",
"22 665 LINE",
"22 575 LINE",
"97 575 LINE SMOOTH",
"118 575 OFFCURVE",
"124 562 OFFCURVE",
"124 543 CURVE SMOOTH",
"124 122 LINE SMOOTH",
"124 103 OFFCURVE",
"118 90 OFFCURVE",
"97 90 CURVE SMOOTH",
"22 90 LINE"
);
},
{
closed = 1;
nodes = (
"262 575 LINE",
"423 575 LINE SMOOTH",
"559 575 OFFCURVE",
"621 514 OFFCURVE",
"621 329 CURVE SMOOTH",
"621 146 OFFCURVE",
"562 90 OFFCURVE",
"424 90 CURVE SMOOTH",
"262 90 LINE"
);
}
);
width = 825;
},
{
layerId = "14C77FDB-037D-4842-9381-6D9ED15DD48C";
name = "Bold Extended";
paths = (
{
closed = 1;
nodes = (
"17 0 LINE",
"441 0 LINE SMOOTH",
"691 0 OFFCURVE",
"827 103 OFFCURVE",
"827 332 CURVE SMOOTH",
"827 562 OFFCURVE",
"689 665 OFFCURVE",
"442 665 CURVE SMOOTH",
"17 665 LINE",
"17 513 LINE",
"79 513 LINE SMOOTH",
"100 513 OFFCURVE",
"106 500 OFFCURVE",
"106 481 CURVE SMOOTH",
"106 184 LINE SMOOTH",
"106 165 OFFCURVE",
"100 152 OFFCURVE",
"79 152 CURVE SMOOTH",
"17 152 LINE"
);
},
{
closed = 1;
nodes = (
"356 501 LINE",
"442 501 LINE SMOOTH",
"510 501 OFFCURVE",
"544 462 OFFCURVE",
"544 330 CURVE SMOOTH",
"544 184 OFFCURVE",
"508 152 OFFCURVE",
"442 152 CURVE SMOOTH",
"356 152 LINE"
);
}
);
width = 844;
}
);
unicode = 0044;
},
{
glyphname = E;
lastChange = "2015-03-27 19:28:04 +0000";
layers = (
{
layerId = "E9E6D55E-9446-45F2-B66C-3272698B0216";
name = "Light Condensed";
paths = (
{
closed = 1;
nodes = (
"13 0 LINE",
"378 0 LINE",
"378 209 LINE",
"346 209 LINE",
"346 53 OFFCURVE",
"329 30 OFFCURVE",
"284 30 CURVE SMOOTH",
"128 30 LINE",
"128 321 LINE",
"201 321 LINE SMOOTH",
"238 321 OFFCURVE",
"242 302 OFFCURVE",
"244 198 CURVE",
"276 198 LINE",
"276 464 LINE",
"244 464 LINE",
"242 372 OFFCURVE",
"238 353 OFFCURVE",
"201 353 CURVE SMOOTH",
"128 353 LINE",
"128 635 LINE",
"284 635 LINE SMOOTH",
"327 635 OFFCURVE",
"346 612 OFFCURVE",
"346 473 CURVE",
"378 473 LINE",
"378 665 LINE",
"16 665 LINE",
"16 635 LINE",
"39 635 LINE SMOOTH",
"72 635 OFFCURVE",
"85 620 OFFCURVE",
"85 593 CURVE SMOOTH",
"85 71 LINE SMOOTH",
"85 45 OFFCURVE",
"71 30 OFFCURVE",
"40 30 CURVE SMOOTH",
"13 30 LINE"
);
}
);
width = 428;
},
{
layerId = "B25F85BC-C782-4067-8484-07202F80B8CD";
name = Condensed;
paths = (
{
closed = 1;
nodes = (
"15 0 LINE",
"493 0 LINE",
"493 297 LINE",
"374 297 LINE",
"374 112 OFFCURVE",
"361 90 OFFCURVE",
"314 90 CURVE SMOOTH",
"215 90 LINE",
"215 296 LINE",
"220 296 LINE SMOOTH",
"256 296 OFFCURVE",
"262 274 OFFCURVE",
"262 186 CURVE",
"333 186 LINE",
"333 483 LINE",
"262 483 LINE",
"262 394 OFFCURVE",
"257 378 OFFCURVE",
"220 378 CURVE SMOOTH",
"215 378 LINE",
"215 575 LINE",
"312 575 LINE SMOOTH",
"354 575 OFFCURVE",
"374 542 OFFCURVE",
"374 379 CURVE",
"493 379 LINE",
"493 665 LINE",
"15 665 LINE",
"15 575 LINE",
"51 575 LINE SMOOTH",
"71 575 OFFCURVE",
"77 564 OFFCURVE",
"77 539 CURVE SMOOTH",
"77 123 LINE SMOOTH",
"77 102 OFFCURVE",
"71 90 OFFCURVE",
"52 90 CURVE SMOOTH",
"15 90 LINE"
);
}
);
width = 533;
},
{
layerId = "B817C739-5D48-43E8-AAEE-CE891513D7BC";
name = "Bold Condensed";
paths = (
{
closed = 1;
nodes = (
"7 0 LINE",
"474 0 LINE",
"474 313 LINE",
"323 313 LINE",
"323 130 OFFCURVE",
"306 108 OFFCURVE",
"274 108 CURVE SMOOTH",
"231 108 LINE",
"231 321 LINE",
"234 321 LINE",
"245 321 OFFCURVE",
"248 314 OFFCURVE",
"248 211 CURVE",
"305 211 LINE",
"305 463 LINE",
"248 463 LINE",
"248 364 OFFCURVE",
"245 353 OFFCURVE",
"234 353 CURVE SMOOTH",
"231 353 LINE",
"231 557 LINE",
"271 557 LINE SMOOTH",
"306 557 OFFCURVE",
"323 534 OFFCURVE",
"323 359 CURVE",
"474 359 LINE",
"474 665 LINE",
"7 665 LINE",
"7 557 LINE",
"25 557 LINE SMOOTH",
"45 557 OFFCURVE",
"51 546 OFFCURVE",
"51 521 CURVE SMOOTH",
"51 141 LINE SMOOTH",
"51 120 OFFCURVE",
"44 108 OFFCURVE",
"26 108 CURVE SMOOTH",
"7 108 LINE"
);
}
);
width = 509;
},
{
layerId = UUID0;
name = "Light Extended";
paths = (
{
closed = 1;
nodes = (
"31 0 LINE",
"623 0 LINE",
"623 229 LINE",
"591 229 LINE",
"591 78 OFFCURVE",
"586 36 OFFCURVE",
"529 36 CURVE SMOOTH",
"178 36 LINE",
"178 321 LINE",
"386 321 LINE SMOOTH",
"423 321 OFFCURVE",
"427 302 OFFCURVE",
"429 198 CURVE",
"461 198 LINE",
"461 464 LINE",
"429 464 LINE",
"427 372 OFFCURVE",
"423 353 OFFCURVE",
"386 353 CURVE SMOOTH",
"178 353 LINE",
"178 629 LINE",
"529 629 LINE SMOOTH",
"586 629 OFFCURVE",
"591 584 OFFCURVE",
"591 453 CURVE",
"623 453 LINE",
"623 665 LINE",
"30 665 LINE",
"30 629 LINE",
"104 629 LINE SMOOTH",
"123 629 OFFCURVE",
"130 618 OFFCURVE",
"130 597 CURVE SMOOTH",
"130 67 LINE SMOOTH",
"130 47 OFFCURVE",
"122 36 OFFCURVE",
"105 36 CURVE SMOOTH",
"31 36 LINE"
);
}
);
width = 713;
},
{
layerId = "4355E1B8-19E6-44BD-A1D7-6E3C2DECA4C8";
name = Extended;
paths = (
{
closed = 1;
nodes = (
"22 0 LINE",
"709 0 LINE",
"709 287 LINE",
"591 287 LINE",
"591 132 OFFCURVE",
"570 90 OFFCURVE",
"493 90 CURVE SMOOTH",
"262 90 LINE",
"262 296 LINE",
"320 296 LINE SMOOTH",
"377 296 OFFCURVE",
"389 278 OFFCURVE",
"389 196 CURVE",
"485 196 LINE",
"485 473 LINE",
"389 473 LINE",
"389 391 OFFCURVE",
"378 378 OFFCURVE",
"320 378 CURVE SMOOTH",
"262 378 LINE",
"262 575 LINE",
"486 575 LINE SMOOTH",
"564 575 OFFCURVE",
"591 532 OFFCURVE",
"591 389 CURVE",
"709 389 LINE",
"709 665 LINE",
"22 665 LINE",
"22 575 LINE",
"98 575 LINE SMOOTH",
"118 575 OFFCURVE",
"124 564 OFFCURVE",
"124 539 CURVE SMOOTH",
"124 123 LINE SMOOTH",
"124 102 OFFCURVE",
"118 90 OFFCURVE",
"99 90 CURVE SMOOTH",
"22 90 LINE"
);
}
);
width = 753;
},
{
layerId = "14C77FDB-037D-4842-9381-6D9ED15DD48C";
name = "Bold Extended";
paths = (
{
closed = 1;
nodes = (
"17 0 LINE",
"740 0 LINE",
"740 302 LINE",
"520 302 LINE",
"520 167 OFFCURVE",
"498 152 OFFCURVE",
"452 152 CURVE SMOOTH",
"356 152 LINE",
"356 288 LINE",
"362 288 LINE SMOOTH",
"379 288 OFFCURVE",
"393 258 OFFCURVE",
"393 213 CURVE",
"499 213 LINE",
"499 450 LINE",
"393 450 LINE",
"393 406 OFFCURVE",
"380 380 OFFCURVE",
"363 380 CURVE SMOOTH",
"356 380 LINE",
"356 513 LINE",
"448 513 LINE SMOOTH",
"497 513 OFFCURVE",
"520 501 OFFCURVE",
"520 364 CURVE",
"740 364 LINE",
"740 665 LINE",
"17 665 LINE",
"17 513 LINE",
"80 513 LINE SMOOTH",
"100 513 OFFCURVE",
"106 502 OFFCURVE",
"106 477 CURVE SMOOTH",
"106 185 LINE SMOOTH",
"106 164 OFFCURVE",
"100 152 OFFCURVE",
"81 152 CURVE SMOOTH",
"17 152 LINE"
);
}
);
width = 770;
}
);
unicode = 0045;
},
{
glyphname = F;
lastChange = "2015-03-27 16:58:34 +0000";
layers = (
{
layerId = "E9E6D55E-9446-45F2-B66C-3272698B0216";
name = "Light Condensed";
paths = (
{
closed = 1;
nodes = (
"13 0 LINE",
"230 0 LINE",
"230 30 LINE",
"173 30 LINE SMOOTH",
"142 30 OFFCURVE",
"128 45 OFFCURVE",
"128 71 CURVE SMOOTH",
"128 314 LINE",
"191 314 LINE SMOOTH",
"228 314 OFFCURVE",
"232 295 OFFCURVE",
"234 191 CURVE",
"266 191 LINE",
"266 457 LINE",
"234 457 LINE",
"232 365 OFFCURVE",
"228 346 OFFCURVE",
"191 346 CURVE SMOOTH",
"128 346 LINE",
"128 635 LINE",
"274 635 LINE SMOOTH",
"317 635 OFFCURVE",
"336 612 OFFCURVE",
"336 473 CURVE",
"368 473 LINE",
"368 665 LINE",
"16 665 LINE",
"16 635 LINE",
"39 635 LINE SMOOTH",
"72 635 OFFCURVE",
"85 620 OFFCURVE",
"85 593 CURVE SMOOTH",
"85 71 LINE SMOOTH",
"85 45 OFFCURVE",
"71 30 OFFCURVE",
"40 30 CURVE SMOOTH",
"13 30 LINE"
);
}
);
width = 408;
},
{
layerId = "B25F85BC-C782-4067-8484-07202F80B8CD";
name = Condensed;
paths = (
{
closed = 1;
nodes = (
"15 0 LINE",
"327 0 LINE",
"327 90 LINE",
"260 90 LINE SMOOTH",
"229 90 OFFCURVE",
"215 105 OFFCURVE",
"215 131 CURVE SMOOTH",
"215 296 LINE",
"220 296 LINE SMOOTH",
"256 296 OFFCURVE",
"262 277 OFFCURVE",
"262 186 CURVE",
"333 186 LINE",
"333 483 LINE",
"262 483 LINE",
"262 394 OFFCURVE",
"257 378 OFFCURVE",
"220 378 CURVE SMOOTH",
"215 378 LINE",
"215 575 LINE",
"308 575 LINE SMOOTH",
"353 575 OFFCURVE",
"374 552 OFFCURVE",
"374 379 CURVE",
"483 379 LINE",
"483 665 LINE",
"15 665 LINE",
"15 575 LINE",
"49 575 LINE SMOOTH",
"70 575 OFFCURVE",
"77 567 OFFCURVE",
"77 540 CURVE SMOOTH",
"77 121 LINE SMOOTH",
"77 98 OFFCURVE",
"67 90 OFFCURVE",
"52 90 CURVE SMOOTH",
"15 90 LINE"
);
}
);
width = 513;
},
{
layerId = "B817C739-5D48-43E8-AAEE-CE891513D7BC";
name = "Bold Condensed";
paths = (
{
closed = 1;
nodes = (
"7 0 LINE",
"327 0 LINE",
"327 108 LINE",
"260 108 LINE SMOOTH",
"245 108 OFFCURVE",
"231 123 OFFCURVE",
"231 149 CURVE SMOOTH",
"231 321 LINE",
"236 321 LINE SMOOTH",
"245 321 OFFCURVE",
"248 310 OFFCURVE",
"248 211 CURVE",
"305 211 LINE",
"305 463 LINE",
"248 463 LINE",
"248 359 OFFCURVE",
"243 353 OFFCURVE",
"236 353 CURVE SMOOTH",
"231 353 LINE",
"231 557 LINE",
"269 557 LINE SMOOTH",
"303 557 OFFCURVE",
"323 544 OFFCURVE",
"323 359 CURVE",
"474 359 LINE",
"474 665 LINE",
"7 665 LINE",
"7 557 LINE",
"23 557 LINE SMOOTH",
"43 557 OFFCURVE",
"51 549 OFFCURVE",
"51 522 CURVE SMOOTH",
"51 139 LINE SMOOTH",
"51 117 OFFCURVE",
"41 108 OFFCURVE",
"26 108 CURVE SMOOTH",
"7 108 LINE"
);
}
);
width = 509;
},
{
layerId = UUID0;
name = "Light Extended";
paths = (
{
closed = 1;
nodes = (
"31 0 LINE",
"274 0 LINE",
"274 36 LINE",
"207 36 LINE SMOOTH",
"192 36 OFFCURVE",
"178 51 OFFCURVE",
"178 77 CURVE SMOOTH",
"178 315 LINE",
"382 315 LINE SMOOTH",
"409 315 OFFCURVE",
"419 294 OFFCURVE",
"419 198 CURVE",
"451 198 LINE",
"451 464 LINE",
"419 464 LINE",
"419 363 OFFCURVE",
"409 347 OFFCURVE",
"382 347 CURVE SMOOTH",
"178 347 LINE",
"178 629 LINE",
"514 629 LINE SMOOTH",
"561 629 OFFCURVE",
"581 614 OFFCURVE",
"581 453 CURVE",
"613 453 LINE",
"613 665 LINE",
"30 665 LINE",
"30 629 LINE",
"102 629 LINE SMOOTH",
"122 629 OFFCURVE",
"130 621 OFFCURVE",
"130 593 CURVE SMOOTH",
"130 67 LINE SMOOTH",
"130 45 OFFCURVE",
"120 36 OFFCURVE",
"105 36 CURVE SMOOTH",
"31 36 LINE"
);
}
);
width = 693;
},
{
layerId = "4355E1B8-19E6-44BD-A1D7-6E3C2DECA4C8";
name = Extended;
paths = (
{
closed = 1;
nodes = (
"22 0 LINE",
"408 0 LINE",
"408 90 LINE",
"291 90 LINE SMOOTH",
"271 90 OFFCURVE",
"262 100 OFFCURVE",
"262 121 CURVE SMOOTH",
"262 291 LINE",
"326 291 LINE SMOOTH",
"376 291 OFFCURVE",
"389 270 OFFCURVE",
"389 191 CURVE",
"485 191 LINE",
"485 468 LINE",
"389 468 LINE",
"389 389 OFFCURVE",
"376 373 OFFCURVE",
"326 373 CURVE SMOOTH",
"262 373 LINE",
"262 575 LINE",
"478 575 LINE SMOOTH",
"548 575 OFFCURVE",
"581 540 OFFCURVE",
"581 389 CURVE",
"699 389 LINE",
"699 665 LINE",
"22 665 LINE",
"22 575 LINE",
"96 575 LINE SMOOTH",
"116 575 OFFCURVE",
"124 567 OFFCURVE",
"124 539 CURVE SMOOTH",
"124 121 LINE SMOOTH",
"124 99 OFFCURVE",
"114 90 OFFCURVE",
"99 90 CURVE SMOOTH",
"22 90 LINE"
);
}
);
width = 743;
},
{
layerId = "14C77FDB-037D-4842-9381-6D9ED15DD48C";
name = "Bold Extended";
paths = (
{
closed = 1;
nodes = (
"17 0 LINE",
"472 0 LINE",
"472 152 LINE",
"385 152 LINE SMOOTH",
"365 152 OFFCURVE",
"356 162 OFFCURVE",
"356 183 CURVE SMOOTH",
"356 288 LINE",
"363 288 LINE SMOOTH",
"380 288 OFFCURVE",
"393 258 OFFCURVE",
"393 213 CURVE",
"499 213 LINE",
"499 450 LINE",
"393 450 LINE",
"393 402 OFFCURVE",
"379 380 OFFCURVE",
"363 380 CURVE SMOOTH",
"356 380 LINE",
"356 513 LINE",
"458 513 LINE SMOOTH",
"504 513 OFFCURVE",
"520 478 OFFCURVE",
"520 364 CURVE",
"740 364 LINE",
"740 665 LINE",
"17 665 LINE",
"17 513 LINE",
"78 513 LINE SMOOTH",
"98 513 OFFCURVE",
"106 505 OFFCURVE",
"106 477 CURVE SMOOTH",
"106 183 LINE SMOOTH",
"106 161 OFFCURVE",
"96 152 OFFCURVE",
"81 152 CURVE SMOOTH",
"17 152 LINE"
);
}
);
width = 770;
}
);
unicode = 0046;
},
{
glyphname = G;
lastChange = "2015-03-27 19:11:25 +0000";
layers = (
{
layerId = "E9E6D55E-9446-45F2-B66C-3272698B0216";
name = "Light Condensed";
paths = (
{
closed = 1;
nodes = (
"120 28 OFFCURVE",
"76 104 OFFCURVE",
"76 331 CURVE SMOOTH",
"76 557 OFFCURVE",
"120 632 OFFCURVE",
"225 632 CURVE SMOOTH",
"299 632 OFFCURVE",
"350 595 OFFCURVE",
"350 435 CURVE",
"381 435 LINE",
"381 665 LINE",
"360 665 LINE",
"354 606 LINE",
"350 606 LINE",
"322 649 OFFCURVE",
"288 669 OFFCURVE",
"225 669 CURVE SMOOTH",
"87 669 OFFCURVE",
"30 572 OFFCURVE",
"30 330 CURVE SMOOTH",
"30 92 OFFCURVE",
"85 -10 OFFCURVE",
"220 -10 CURVE SMOOTH",
"330 -10 OFFCURVE",
"379 91 OFFCURVE",
"379 182 CURVE",
"344 182 LINE",
"344 68 OFFCURVE",
"296 28 OFFCURVE",
"222 28 CURVE SMOOTH"
);
},
{
closed = 1;
nodes = (
"265 291 LINE",
"298 291 LINE SMOOTH",
"331 291 OFFCURVE",
"344 276 OFFCURVE",
"344 249 CURVE SMOOTH",
"344 58 LINE",
"348 58 LINE",
"354 0 LINE",
"385 0 LINE",
"385 249 LINE SMOOTH",
"385 276 OFFCURVE",
"398 291 OFFCURVE",
"431 291 CURVE SMOOTH",
"450 291 LINE",
"450 321 LINE",
"265 321 LINE"
);
}
);
width = 450;
},
{
background = {
paths = (
{
closed = 1;
nodes = (
"214 93 OFFCURVE",
"187 137 OFFCURVE",
"187 329 CURVE SMOOTH",
"187 507 OFFCURVE",
"210 571 OFFCURVE",
"265 571 CURVE SMOOTH",
"317 571 OFFCURVE",
"326 512 OFFCURVE",
"326 401 CURVE",
"427 401 LINE",
"427 665 LINE",
"345 665 LINE",
"333 609 LINE",
"329 609 LINE",
"310 650 OFFCURVE",
"272 675 OFFCURVE",
"212 675 CURVE SMOOTH",
"102 675 OFFCURVE",
"35 591 OFFCURVE",
"35 338 CURVE SMOOTH",
"35 84 OFFCURVE",
"102 -10 OFFCURVE",
"243 -10 CURVE SMOOTH",
"382 -10 OFFCURVE",
"427 81 OFFCURVE",
"427 272 CURVE",
"328 272 LINE",
"328 124 OFFCURVE",
"302 93 OFFCURVE",
"262 93 CURVE SMOOTH"
);
}
);
};
layerId = "B25F85BC-C782-4067-8484-07202F80B8CD";
name = Condensed;
paths = (
{
closed = 1;
nodes = (
"214 93 OFFCURVE",
"187 140 OFFCURVE",
"187 330 CURVE SMOOTH",
"187 506 OFFCURVE",
"210 571 OFFCURVE",
"275 571 CURVE SMOOTH",
"337 571 OFFCURVE",
"346 512 OFFCURVE",
"346 411 CURVE",
"452 411 LINE",
"452 665 LINE",
"365 665 LINE",
"353 609 LINE",
"349 609 LINE",
"328 653 OFFCURVE",
"291 675 OFFCURVE",
"227 675 CURVE SMOOTH",
"102 675 OFFCURVE",
"35 590 OFFCURVE",
"35 333 CURVE SMOOTH",
"35 73 OFFCURVE",
"104 -10 OFFCURVE",
"208 -10 CURVE SMOOTH",
"327 -10 OFFCURVE",
"367 101 OFFCURVE",
"367 194 CURVE",
"328 194 LINE",
"328 164 OFFCURVE",
"314 93 OFFCURVE",
"259 93 CURVE SMOOTH"
);
},
{
closed = 1;
nodes = (
"256 248 LINE",
"301 248 LINE SMOOTH",
"322 248 OFFCURVE",
"328 235 OFFCURVE",
"328 216 CURVE SMOOTH",
"328 51 LINE",
"332 51 LINE",
"352 0 LINE",
"461 0 LINE",
"461 216 LINE SMOOTH",
"461 225 OFFCURVE",
"467 248 OFFCURVE",
"484 248 CURVE SMOOTH",
"514 248 LINE",
"514 338 LINE",
"256 338 LINE"
);
}
);
width = 514;
},
{
layerId = "B817C739-5D48-43E8-AAEE-CE891513D7BC";
name = "Bold Condensed";
paths = (
{
closed = 1;
nodes = (
"220 128 OFFCURVE",
"215 150 OFFCURVE",
"215 312 CURVE SMOOTH",
"215 517 OFFCURVE",
"223 537 OFFCURVE",
"247 537 CURVE SMOOTH",
"269 537 OFFCURVE",
"278 521 OFFCURVE",
"278 381 CURVE",
"433 381 LINE",
"433 665 LINE",
"308 665 LINE",
"302 623 LINE",
"298 623 LINE",
"285 656 OFFCURVE",
"252 675 OFFCURVE",
"195 675 CURVE SMOOTH",
"78 675 OFFCURVE",
"17 594 OFFCURVE",
"17 337 CURVE SMOOTH",
"17 90 OFFCURVE",
"73 -10 OFFCURVE",
"176 -10 CURVE SMOOTH",
"286 -10 OFFCURVE",
"339 106 OFFCURVE",
"339 302 CURVE",
"280 192 LINE",
"280 147 OFFCURVE",
"274 128 OFFCURVE",
"248 128 CURVE SMOOTH"
);
},
{
closed = 1;
nodes = (
"236 236 LINE",
"254 236 LINE SMOOTH",
"273 236 OFFCURVE",
"280 225 OFFCURVE",
"280 204 CURVE SMOOTH",
"280 42 LINE",
"284 42 LINE",
"304 0 LINE",
"446 0 LINE",
"446 204 LINE SMOOTH",
"446 225 OFFCURVE",
"453 236 OFFCURVE",
"467 236 CURVE SMOOTH",
"480 236 LINE",
"480 344 LINE",
"236 344 LINE"
);
}
);
width = 480;
},
{
layerId = UUID0;
name = "Light Extended";
paths = (
{
closed = 1;
nodes = (
"212 31 OFFCURVE",
"124 135 OFFCURVE",
"124 332 CURVE SMOOTH",
"124 530 OFFCURVE",
"213 634 OFFCURVE",
"390 634 CURVE SMOOTH",
"517 634 OFFCURVE",
"597 580 OFFCURVE",
"624 441 CURVE",
"660 441 LINE",
"660 665 LINE",
"628 665 LINE",
"616 567 LINE",
"612 567 LINE",
"575 629 OFFCURVE",
"504 675 OFFCURVE",
"384 675 CURVE SMOOTH",
"189 675 OFFCURVE",
"75 554 OFFCURVE",
"75 332 CURVE SMOOTH",
"75 112 OFFCURVE",
"186 -10 OFFCURVE",
"382 -10 CURVE SMOOTH",
"551 -10 OFFCURVE",
"661 81 OFFCURVE",
"661 232 CURVE",
"618 232 LINE",
"618 100 OFFCURVE",
"531 31 OFFCURVE",
"387 31 CURVE SMOOTH"
);
},
{
closed = 1;
nodes = (
"498 294 LINE",
"591 294 LINE SMOOTH",
"612 294 OFFCURVE",
"618 281 OFFCURVE",
"618 262 CURVE SMOOTH",
"618 90 LINE",
"622 90 LINE",
"634 0 LINE",
"666 0 LINE",
"666 262 LINE SMOOTH",
"666 281 OFFCURVE",
"672 294 OFFCURVE",
"689 294 CURVE SMOOTH",
"746 294 LINE",
"746 330 LINE",
"498 330 LINE"
);
}
);
width = 766;
},
{
layerId = "4355E1B8-19E6-44BD-A1D7-6E3C2DECA4C8";
name = Extended;
paths = (
{
closed = 1;
nodes = (
"294 93 OFFCURVE",
"204 140 OFFCURVE",
"204 330 CURVE SMOOTH",
"204 491 OFFCURVE",
"268 572 OFFCURVE",
"400 572 CURVE SMOOTH",
"504 572 OFFCURVE",
"567 522 OFFCURVE",
"577 411 CURVE",
"680 411 LINE",
"680 665 LINE",
"577 665 LINE",
"566 608 LINE",
"562 608 LINE",
"528 650 OFFCURVE",
"475 675 OFFCURVE",
"387 675 CURVE SMOOTH",
"187 675 OFFCURVE",
"56 544 OFFCURVE",
"56 330 CURVE SMOOTH",
"56 124 OFFCURVE",
"177 -10 OFFCURVE",
"365 -10 CURVE SMOOTH",
"562 -10 OFFCURVE",
"635 138 OFFCURVE",
"635 221 CURVE",
"563 201 LINE",
"563 139 OFFCURVE",
"501 93 OFFCURVE",
"398 93 CURVE SMOOTH"
);
},
{
closed = 1;
nodes = (
"441 247 LINE",
"536 247 LINE SMOOTH",
"557 247 OFFCURVE",
"563 234 OFFCURVE",
"563 215 CURVE SMOOTH",
"563 62 LINE",
"567 62 LINE",
"601 0 LINE",
"701 0 LINE",
"701 215 LINE SMOOTH",
"701 224 OFFCURVE",
"707 247 OFFCURVE",
"724 247 CURVE SMOOTH",
"779 247 LINE",
"779 337 LINE",
"441 337 LINE"
);
}
);
width = 779;
},
{
background = {
paths = (
{
closed = 1;
nodes = (
"331 175 OFFCURVE",
"300 216 OFFCURVE",
"300 330 CURVE SMOOTH",
"300 437 OFFCURVE",
"327 490 OFFCURVE",
"404 490 CURVE SMOOTH",
"468 490 OFFCURVE",
"500 454 OFFCURVE",
"500 381 CURVE",
"710 381 LINE",
"710 665 LINE",
"527 665 LINE",
"515 624 LINE",
"511 624 LINE",
"488 652 OFFCURVE",
"441 675 OFFCURVE",
"352 675 CURVE SMOOTH",
"147 675 OFFCURVE",
"17 553 OFFCURVE",
"17 334 CURVE SMOOTH",
"17 123 OFFCURVE",
"138 -10 OFFCURVE",
"378 -10 CURVE SMOOTH",
"632 -10 OFFCURVE",
"716 139 OFFCURVE",
"716 302 CURVE",
"503 302 LINE",
"503 216 OFFCURVE",
"473 175 OFFCURVE",
"402 175 CURVE SMOOTH"
);
}
);
};
layerId = "14C77FDB-037D-4842-9381-6D9ED15DD48C";
name = "Bold Extended";
paths = (
{
closed = 1;
nodes = (
"334 130 OFFCURVE",
"300 184 OFFCURVE",
"300 316 CURVE SMOOTH",
"300 440 OFFCURVE",
"330 490 OFFCURVE",
"405 490 CURVE SMOOTH",
"468 490 OFFCURVE",
"500 454 OFFCURVE",
"500 381 CURVE",
"710 381 LINE",
"710 665 LINE",
"527 665 LINE",
"515 624 LINE",
"511 624 LINE",
"484 657 OFFCURVE",
"428 675 OFFCURVE",
"352 675 CURVE SMOOTH",
"142 675 OFFCURVE",
"17 548 OFFCURVE",
"17 334 CURVE SMOOTH",
"17 125 OFFCURVE",
"135 -10 OFFCURVE",
"319 -10 CURVE SMOOTH",
"487 -10 OFFCURVE",
"616 110 OFFCURVE",
"616 266 CURVE",
"503 174 LINE",
"503 149 OFFCURVE",
"466 130 OFFCURVE",
"419 130 CURVE SMOOTH"
);
},
{
closed = 1;
nodes = (
"398 206 LINE",
"476 206 LINE SMOOTH",
"495 206 OFFCURVE",
"503 201 OFFCURVE",
"503 188 CURVE SMOOTH",
"503 45 LINE",
"507 45 LINE",
"557 0 LINE",
"737 0 LINE",
"737 174 LINE SMOOTH",
"737 195 OFFCURVE",
"745 206 OFFCURVE",
"760 206 CURVE SMOOTH",
"801 206 LINE",
"801 348 LINE",
"398 348 LINE"
);
}
);
width = 791;
}
);
unicode = 0047;
},
{
glyphname = H;
lastChange = "2015-03-27 19:28:41 +0000";
layers = (
{
layerId = "E9E6D55E-9446-45F2-B66C-3272698B0216";
name = "Light Condensed";
paths = (
{
closed = 1;
nodes = (
"13 0 LINE",
"199 0 LINE",
"199 30 LINE",
"162 30 LINE SMOOTH",
"138 30 OFFCURVE",
"127 45 OFFCURVE",
"127 71 CURVE",
"127 593 LINE",
"127 620 OFFCURVE",
"137 635 OFFCURVE",
"163 635 CURVE SMOOTH",
"199 635 LINE",
"199 665 LINE",
"13 665 LINE",
"13 635 LINE",
"49 635 LINE SMOOTH",
"75 635 OFFCURVE",
"85 620 OFFCURVE",
"85 593 CURVE SMOOTH",
"85 71 LINE SMOOTH",
"85 45 OFFCURVE",
"74 30 OFFCURVE",
"50 30 CURVE SMOOTH",
"13 30 LINE"
);
},
{
closed = 1;
nodes = (
"119 321 LINE",
"369 321 LINE",
"369 353 LINE",
"119 353 LINE"
);
},
{
closed = 1;
nodes = (
"289 0 LINE",
"474 0 LINE",
"474 30 LINE",
"438 30 LINE SMOOTH",
"414 30 OFFCURVE",
"403 45 OFFCURVE",
"403 71 CURVE SMOOTH",
"403 593 LINE SMOOTH",
"403 620 OFFCURVE",
"413 635 OFFCURVE",
"439 635 CURVE SMOOTH",
"474 635 LINE",
"474 665 LINE",
"289 665 LINE",
"289 635 LINE",
"325 635 LINE SMOOTH",
"351 635 OFFCURVE",
"361 620 OFFCURVE",
"361 593 CURVE",
"361 71 LINE",
"361 45 OFFCURVE",
"350 30 OFFCURVE",
"326 30 CURVE SMOOTH",
"289 30 LINE"
);
}
);
width = 487;
},
{
layerId = "B25F85BC-C782-4067-8484-07202F80B8CD";
name = Condensed;
paths = (
{
closed = 1;
nodes = (
"15 0 LINE",
"263 0 LINE",
"263 90 LINE",
"238 90 LINE SMOOTH",
"221 90 OFFCURVE",
"215 103 OFFCURVE",
"215 122 CURVE SMOOTH",
"215 543 LINE SMOOTH",
"215 562 OFFCURVE",
"221 575 OFFCURVE",
"238 575 CURVE SMOOTH",
"263 575 LINE",
"263 665 LINE",
"15 665 LINE",
"15 575 LINE",
"50 575 LINE SMOOTH",
"71 575 OFFCURVE",
"77 562 OFFCURVE",
"77 543 CURVE SMOOTH",
"77 122 LINE SMOOTH",
"77 103 OFFCURVE",
"71 90 OFFCURVE",
"50 90 CURVE SMOOTH",
"15 90 LINE"
);
},
{
closed = 1;
nodes = (
"116 288 LINE",
"418 288 LINE",
"418 388 LINE",
"116 388 LINE"
);
},
{
closed = 1;
nodes = (
"291 0 LINE",
"549 0 LINE",
"549 90 LINE",
"504 90 LINE SMOOTH",
"487 90 OFFCURVE",
"481 103 OFFCURVE",
"481 122 CURVE SMOOTH",
"481 543 LINE SMOOTH",
"481 562 OFFCURVE",
"487 575 OFFCURVE",
"504 575 CURVE SMOOTH",
"549 575 LINE",
"549 665 LINE",
"291 665 LINE",
"291 575 LINE",
"316 575 LINE SMOOTH",
"337 575 OFFCURVE",
"343 562 OFFCURVE",
"343 543 CURVE SMOOTH",
"343 122 LINE SMOOTH",
"343 103 OFFCURVE",
"337 90 OFFCURVE",
"316 90 CURVE SMOOTH",
"291 90 LINE"
);
}
);
width = 564;
},
{
background = {
paths = (
{
closed = 1;
nodes = (
"231 393 LINE",
"231 544 LINE SMOOTH",
"231 552 OFFCURVE",
"234 557 OFFCURVE",
"244 557 CURVE SMOOTH",
"251 557 LINE",
"251 665 LINE",
"7 665 LINE",
"7 557 LINE",
"25 557 LINE SMOOTH",
"44 557 OFFCURVE",
"51 546 OFFCURVE",
"51 525 CURVE SMOOTH",
"51 139 LINE SMOOTH",
"51 119 OFFCURVE",
"43 108 OFFCURVE",
"26 108 CURVE SMOOTH",
"7 108 LINE",
"7 0 LINE",
"251 0 LINE",
"251 108 LINE",
"244 108 LINE SMOOTH",
"235 108 OFFCURVE",
"231 111 OFFCURVE",
"231 121 CURVE SMOOTH",
"231 285 LINE",
"285 285 LINE",
"285 121 LINE SMOOTH",
"285 111 OFFCURVE",
"281 108 OFFCURVE",
"272 108 CURVE SMOOTH",
"265 108 LINE",
"265 0 LINE",
"509 0 LINE",
"509 108 LINE",
"490 108 LINE SMOOTH",
"473 108 OFFCURVE",
"465 119 OFFCURVE",
"465 139 CURVE SMOOTH",
"465 525 LINE SMOOTH",
"465 546 OFFCURVE",
"472 557 OFFCURVE",
"491 557 CURVE SMOOTH",
"509 557 LINE",
"509 665 LINE",
"265 665 LINE",
"265 557 LINE",
"272 557 LINE SMOOTH",
"282 557 OFFCURVE",
"285 552 OFFCURVE",
"285 544 CURVE SMOOTH",
"285 393 LINE"
);
}
);
};
layerId = "B817C739-5D48-43E8-AAEE-CE891513D7BC";
name = "Bold Condensed";
paths = (
{
closed = 1;
nodes = (
"7 0 LINE",
"251 0 LINE",
"251 108 LINE",
"244 108 LINE SMOOTH",
"235 108 OFFCURVE",
"231 111 OFFCURVE",
"231 121 CURVE SMOOTH",
"231 544 LINE SMOOTH",
"231 552 OFFCURVE",
"234 557 OFFCURVE",
"244 557 CURVE SMOOTH",
"251 557 LINE",
"251 665 LINE",
"7 665 LINE",
"7 557 LINE",
"25 557 LINE SMOOTH",
"44 557 OFFCURVE",
"51 546 OFFCURVE",
"51 525 CURVE SMOOTH",
"51 139 LINE SMOOTH",
"51 119 OFFCURVE",
"43 108 OFFCURVE",
"26 108 CURVE SMOOTH",
"7 108 LINE"
);
},
{
closed = 1;
nodes = (
"215 285 LINE",
"301 285 LINE",
"301 393 LINE",
"215 393 LINE"
);
},
{
closed = 1;
nodes = (
"265 0 LINE",
"509 0 LINE",
"509 108 LINE",
"490 108 LINE SMOOTH",
"473 108 OFFCURVE",
"465 119 OFFCURVE",
"465 139 CURVE SMOOTH",
"465 525 LINE SMOOTH",
"465 546 OFFCURVE",
"472 557 OFFCURVE",
"491 557 CURVE SMOOTH",
"509 557 LINE",
"509 665 LINE",
"265 665 LINE",
"265 557 LINE",
"272 557 LINE SMOOTH",
"282 557 OFFCURVE",
"285 552 OFFCURVE",
"285 544 CURVE SMOOTH",
"285 121 LINE SMOOTH",
"285 111 OFFCURVE",
"281 108 OFFCURVE",
"272 108 CURVE SMOOTH",
"265 108 LINE"
);
}
);
width = 516;
},
{
layerId = UUID0;
name = "Light Extended";
paths = (
{
closed = 1;
nodes = (
"31 0 LINE",
"277 0 LINE",
"277 36 LINE",
"201 36 LINE SMOOTH",
"184 36 OFFCURVE",
"178 49 OFFCURVE",
"178 68 CURVE SMOOTH",
"178 597 LINE SMOOTH",
"178 616 OFFCURVE",
"184 629 OFFCURVE",
"201 629 CURVE SMOOTH",
"278 629 LINE",
"278 665 LINE",
"30 665 LINE",
"30 629 LINE",
"103 629 LINE SMOOTH",
"124 629 OFFCURVE",
"130 616 OFFCURVE",
"130 597 CURVE SMOOTH",
"130 68 LINE SMOOTH",
"130 49 OFFCURVE",
"124 36 OFFCURVE",
"103 36 CURVE SMOOTH",
"31 36 LINE"
);
},
{
closed = 1;
nodes = (
"167 325 LINE",
"649 325 LINE",
"649 361 LINE",
"167 361 LINE"
);
},
{
closed = 1;
nodes = (
"525 0 LINE",
"771 0 LINE",
"771 36 LINE",
"695 36 LINE SMOOTH",
"678 36 OFFCURVE",
"672 49 OFFCURVE",
"672 68 CURVE SMOOTH",
"672 597 LINE SMOOTH",
"672 616 OFFCURVE",
"678 629 OFFCURVE",
"695 629 CURVE SMOOTH",
"772 629 LINE",
"772 665 LINE",
"524 665 LINE",
"524 629 LINE",
"597 629 LINE SMOOTH",
"618 629 OFFCURVE",
"624 616 OFFCURVE",
"624 597 CURVE SMOOTH",
"624 68 LINE SMOOTH",
"624 49 OFFCURVE",
"618 36 OFFCURVE",
"597 36 CURVE SMOOTH",
"525 36 LINE"
);
}
);
width = 802;
},
{
layerId = "4355E1B8-19E6-44BD-A1D7-6E3C2DECA4C8";
name = Extended;
paths = (
{
closed = 1;
nodes = (
"22 0 LINE",
"360 0 LINE",
"360 90 LINE",
"285 90 LINE SMOOTH",
"268 90 OFFCURVE",
"262 103 OFFCURVE",
"262 122 CURVE SMOOTH",
"262 543 LINE SMOOTH",
"262 562 OFFCURVE",
"268 575 OFFCURVE",
"285 575 CURVE SMOOTH",
"360 575 LINE",
"360 665 LINE",
"22 665 LINE",
"22 575 LINE",
"97 575 LINE SMOOTH",
"118 575 OFFCURVE",
"124 562 OFFCURVE",
"124 543 CURVE SMOOTH",
"124 122 LINE SMOOTH",
"124 103 OFFCURVE",
"118 90 OFFCURVE",
"97 90 CURVE SMOOTH",
"22 90 LINE"
);
},
{
closed = 1;
nodes = (
"222 288 LINE",
"654 288 LINE",
"654 388 LINE",
"222 388 LINE"
);
},
{
closed = 1;
nodes = (
"512 0 LINE",
"850 0 LINE",
"850 90 LINE",
"775 90 LINE SMOOTH",
"758 90 OFFCURVE",
"752 103 OFFCURVE",
"752 122 CURVE SMOOTH",
"752 543 LINE SMOOTH",
"752 562 OFFCURVE",
"758 575 OFFCURVE",
"775 575 CURVE SMOOTH",
"850 575 LINE",
"850 665 LINE",
"512 665 LINE",
"512 575 LINE",
"587 575 LINE SMOOTH",
"608 575 OFFCURVE",
"614 562 OFFCURVE",
"614 543 CURVE SMOOTH",
"614 122 LINE SMOOTH",
"614 103 OFFCURVE",
"608 90 OFFCURVE",
"587 90 CURVE SMOOTH",
"512 90 LINE"
);
}
);
width = 872;
},
{
layerId = "14C77FDB-037D-4842-9381-6D9ED15DD48C";
name = "Bold Extended";
paths = (
{
closed = 1;
nodes = (
"17 0 LINE",
"426 0 LINE",
"426 152 LINE",
"379 152 LINE SMOOTH",
"362 152 OFFCURVE",
"356 165 OFFCURVE",
"356 184 CURVE SMOOTH",
"356 481 LINE SMOOTH",
"356 500 OFFCURVE",
"362 513 OFFCURVE",
"379 513 CURVE SMOOTH",
"426 513 LINE",
"426 665 LINE",
"17 665 LINE",
"17 513 LINE",
"79 513 LINE SMOOTH",
"100 513 OFFCURVE",
"106 500 OFFCURVE",
"106 481 CURVE SMOOTH",
"106 184 LINE SMOOTH",
"106 165 OFFCURVE",
"100 152 OFFCURVE",
"79 152 CURVE SMOOTH",
"17 152 LINE"
);
},
{
closed = 1;
nodes = (
"229 255 LINE",
"640 255 LINE",
"640 408 LINE",
"229 408 LINE"
);
},
{
closed = 1;
nodes = (
"460 0 LINE",
"869 0 LINE",
"869 152 LINE",
"807 152 LINE SMOOTH",
"786 152 OFFCURVE",
"780 165 OFFCURVE",
"780 184 CURVE SMOOTH",
"780 481 LINE SMOOTH",
"780 500 OFFCURVE",
"786 513 OFFCURVE",
"807 513 CURVE SMOOTH",
"869 513 LINE",
"869 665 LINE",
"460 665 LINE",
"460 513 LINE",
"507 513 LINE SMOOTH",
"524 513 OFFCURVE",
"530 500 OFFCURVE",
"530 481 CURVE SMOOTH",
"530 184 LINE",
"530 165 OFFCURVE",
"524 152 OFFCURVE",
"507 152 CURVE SMOOTH",
"460 152 LINE"
);
}
);
width = 886;
}
);
unicode = 0048;
},
{
glyphname = I;
lastChange = "2015-03-27 14:52:47 +0000";
layers = (
{
layerId = "E9E6D55E-9446-45F2-B66C-3272698B0216";
name = "Light Condensed";
paths = (
{
closed = 1;
nodes = (
"13 0 LINE",
"198 0 LINE",
"198 30 LINE",
"171 30 LINE SMOOTH",
"140 30 OFFCURVE",
"126 45 OFFCURVE",
"126 71 CURVE SMOOTH",
"126 593 LINE SMOOTH",
"126 620 OFFCURVE",
"139 635 OFFCURVE",
"172 635 CURVE SMOOTH",
"198 635 LINE",
"198 665 LINE",
"13 665 LINE",
"13 635 LINE",
"39 635 LINE SMOOTH",
"72 635 OFFCURVE",
"85 620 OFFCURVE",
"85 593 CURVE SMOOTH",
"85 71 LINE SMOOTH",
"85 45 OFFCURVE",
"71 30 OFFCURVE",
"40 30 CURVE SMOOTH",
"13 30 LINE"
);
}
);
width = 211;
},
{
layerId = "B25F85BC-C782-4067-8484-07202F80B8CD";
name = Condensed;
paths = (
{
closed = 1;
nodes = (
"20 0 LINE",
"268 0 LINE",
"268 90 LINE",
"243 90 LINE SMOOTH",
"226 90 OFFCURVE",
"220 103 OFFCURVE",
"220 122 CURVE SMOOTH",
"220 543 LINE SMOOTH",
"220 562 OFFCURVE",
"226 575 OFFCURVE",
"243 575 CURVE SMOOTH",
"268 575 LINE",
"268 665 LINE",
"20 665 LINE",
"20 575 LINE",
"55 575 LINE SMOOTH",
"76 575 OFFCURVE",
"82 562 OFFCURVE",
"82 543 CURVE SMOOTH",
"82 122 LINE SMOOTH",
"82 103 OFFCURVE",
"76 90 OFFCURVE",
"55 90 CURVE SMOOTH",
"20 90 LINE"
);
}
);
width = 288;
},
{
layerId = "B817C739-5D48-43E8-AAEE-CE891513D7BC";
name = "Bold Condensed";
paths = (
{
closed = 1;
nodes = (
"7 0 LINE",
"276 0 LINE",
"276 108 LINE",
"257 108 LINE SMOOTH",
"240 108 OFFCURVE",
"232 119 OFFCURVE",
"232 139 CURVE SMOOTH",
"232 525 LINE SMOOTH",
"232 546 OFFCURVE",
"239 557 OFFCURVE",
"258 557 CURVE SMOOTH",
"276 557 LINE",
"276 665 LINE",
"7 665 LINE",
"7 557 LINE",
"25 557 LINE SMOOTH",
"44 557 OFFCURVE",
"51 546 OFFCURVE",
"51 525 CURVE SMOOTH",
"51 139 LINE SMOOTH",
"51 119 OFFCURVE",
"43 108 OFFCURVE",
"26 108 CURVE SMOOTH",
"7 108 LINE"
);
}
);
width = 283;
},
{
layerId = UUID0;
name = "Light Extended";
paths = (
{
closed = 1;
nodes = (
"31 0 LINE",
"277 0 LINE",
"277 36 LINE",
"201 36 LINE SMOOTH",
"184 36 OFFCURVE",
"178 49 OFFCURVE",
"178 68 CURVE SMOOTH",
"178 597 LINE SMOOTH",
"178 616 OFFCURVE",
"184 629 OFFCURVE",
"201 629 CURVE SMOOTH",
"278 629 LINE",
"278 665 LINE",
"30 665 LINE",
"30 629 LINE",
"103 629 LINE SMOOTH",
"124 629 OFFCURVE",
"130 616 OFFCURVE",
"130 597 CURVE SMOOTH",
"130 68 LINE SMOOTH",
"130 49 OFFCURVE",
"124 36 OFFCURVE",
"103 36 CURVE SMOOTH",
"31 36 LINE"
);
}
);
width = 308;
},
{
layerId = "4355E1B8-19E6-44BD-A1D7-6E3C2DECA4C8";
name = Extended;
paths = (
{
closed = 1;
nodes = (
"22 0 LINE",
"360 0 LINE",
"360 90 LINE",
"285 90 LINE SMOOTH",
"268 90 OFFCURVE",
"262 103 OFFCURVE",
"262 122 CURVE SMOOTH",
"262 543 LINE SMOOTH",
"262 562 OFFCURVE",
"268 575 OFFCURVE",
"285 575 CURVE SMOOTH",
"360 575 LINE",
"360 665 LINE",
"22 665 LINE",
"22 575 LINE",
"97 575 LINE SMOOTH",
"118 575 OFFCURVE",
"124 562 OFFCURVE",
"124 543 CURVE SMOOTH",
"124 122 LINE SMOOTH",
"124 103 OFFCURVE",
"118 90 OFFCURVE",
"97 90 CURVE SMOOTH",
"22 90 LINE"
);
}
);
width = 382;
},
{
layerId = "14C77FDB-037D-4842-9381-6D9ED15DD48C";
name = "Bold Extended";
paths = (
{
closed = 1;
nodes = (
"17 0 LINE",
"446 0 LINE",
"446 152 LINE",
"379 152 LINE SMOOTH",
"362 152 OFFCURVE",
"356 165 OFFCURVE",
"356 184 CURVE SMOOTH",
"356 481 LINE SMOOTH",
"356 500 OFFCURVE",
"362 513 OFFCURVE",
"379 513 CURVE SMOOTH",
"446 513 LINE",
"446 665 LINE",
"17 665 LINE",
"17 513 LINE",
"79 513 LINE SMOOTH",
"100 513 OFFCURVE",
"106 500 OFFCURVE",
"106 481 CURVE SMOOTH",
"106 184 LINE SMOOTH",
"106 165 OFFCURVE",
"100 152 OFFCURVE",
"79 152 CURVE SMOOTH",
"17 152 LINE"
);
}
);
width = 463;
}
);
unicode = 0049;
},
{
glyphname = L;
lastChange = "2015-03-27 19:58:23 +0000";
layers = (
{
background = {
components = (
{
name = I;
}
);
};
layerId = "E9E6D55E-9446-45F2-B66C-3272698B0216";
name = "Light Condensed";
paths = (
{
closed = 1;
nodes = (
"13 0 LINE",
"348 0 LINE",
"348 209 LINE",
"316 209 LINE",
"316 53 OFFCURVE",
"299 30 OFFCURVE",
"254 30 CURVE SMOOTH",
"128 30 LINE",
"128 594 LINE SMOOTH",
"128 620 OFFCURVE",
"138 635 OFFCURVE",
"164 635 CURVE SMOOTH",
"218 635 LINE",
"218 665 LINE",
"16 665 LINE",
"16 635 LINE",
"39 635 LINE SMOOTH",
"72 635 OFFCURVE",
"85 620 OFFCURVE",
"85 593 CURVE SMOOTH",
"85 71 LINE SMOOTH",
"85 45 OFFCURVE",
"71 30 OFFCURVE",
"40 30 CURVE SMOOTH",
"13 30 LINE"
);
}
);
width = 378;
},
{
background = {
components = (
{
name = I;
transform = "{1, 0, 0, 1, -5, 0}";
}
);
};
layerId = "B25F85BC-C782-4067-8484-07202F80B8CD";
name = Condensed;
paths = (
{
closed = 1;
nodes = (
"15 0 LINE",
"471 0 LINE",
"471 297 LINE",
"352 297 LINE",
"352 112 OFFCURVE",
"339 90 OFFCURVE",
"292 90 CURVE SMOOTH",
"215 90 LINE",
"215 545 LINE SMOOTH",
"215 562 OFFCURVE",
"222 575 OFFCURVE",
"241 575 CURVE SMOOTH",
"283 575 LINE",
"283 665 LINE",
"15 665 LINE",
"15 575 LINE",
"51 575 LINE SMOOTH",
"71 575 OFFCURVE",
"77 564 OFFCURVE",
"77 539 CURVE SMOOTH",
"77 123 LINE SMOOTH",
"77 102 OFFCURVE",
"71 90 OFFCURVE",
"52 90 CURVE SMOOTH",
"15 90 LINE"
);
}
);
width = 501;
},
{
background = {
components = (
{
name = I;
}
);
};
layerId = "B817C739-5D48-43E8-AAEE-CE891513D7BC";
name = "Bold Condensed";
paths = (
{
closed = 1;
nodes = (
"7 0 LINE",
"444 0 LINE",
"444 313 LINE",
"293 313 LINE",
"293 130 OFFCURVE",
"281 108 OFFCURVE",
"254 108 CURVE SMOOTH",
"231 108 LINE",
"231 525 LINE SMOOTH",
"231 545 OFFCURVE",
"240 557 OFFCURVE",
"263 557 CURVE SMOOTH",
"296 557 LINE",
"296 665 LINE",
"7 665 LINE",
"7 557 LINE",
"25 557 LINE SMOOTH",
"45 557 OFFCURVE",
"51 546 OFFCURVE",
"51 521 CURVE SMOOTH",
"51 141 LINE SMOOTH",
"51 120 OFFCURVE",
"44 108 OFFCURVE",
"26 108 CURVE SMOOTH",
"7 108 LINE"
);
}
);
width = 454;
},
{
background = {
components = (
{
name = I;
}
);
};
layerId = UUID0;
name = "Light Extended";
paths = (
{
closed = 1;
nodes = (
"31 0 LINE",
"593 0 LINE",
"593 249 LINE",
"561 249 LINE",
"561 78 OFFCURVE",
"556 36 OFFCURVE",
"499 36 CURVE SMOOTH",
"178 36 LINE",
"178 597 LINE SMOOTH",
"178 618 OFFCURVE",
"185 629 OFFCURVE",
"205 629 CURVE SMOOTH",
"298 629 LINE",
"298 665 LINE",
"30 665 LINE",
"30 629 LINE",
"104 629 LINE SMOOTH",
"123 629 OFFCURVE",
"130 618 OFFCURVE",
"130 597 CURVE SMOOTH",
"130 67 LINE SMOOTH",
"130 47 OFFCURVE",
"122 36 OFFCURVE",
"105 36 CURVE SMOOTH",
"31 36 LINE"
);
}
);
width = 643;
},
{
background = {
components = (
{
name = I;
}
);
};
layerId = "4355E1B8-19E6-44BD-A1D7-6E3C2DECA4C8";
name = Extended;
paths = (
{
closed = 1;
nodes = (
"22 0 LINE",
"679 0 LINE",
"679 297 LINE",
"561 297 LINE",
"561 132 OFFCURVE",
"540 90 OFFCURVE",
"463 90 CURVE SMOOTH",
"262 90 LINE",
"262 539 LINE SMOOTH",
"262 566 OFFCURVE",
"268 575 OFFCURVE",
"289 575 CURVE SMOOTH",
"380 575 LINE",
"380 665 LINE",
"22 665 LINE",
"22 575 LINE",
"98 575 LINE SMOOTH",
"118 575 OFFCURVE",
"124 564 OFFCURVE",
"124 539 CURVE SMOOTH",
"124 123 LINE SMOOTH",
"124 102 OFFCURVE",
"118 90 OFFCURVE",
"99 90 CURVE SMOOTH",
"22 90 LINE"
);
}
);
width = 701;
},
{
layerId = "14C77FDB-037D-4842-9381-6D9ED15DD48C";
name = "Bold Extended";
paths = (
{
closed = 1;
nodes = (
"17 0 LINE",
"700 0 LINE",
"700 302 LINE",
"490 302 LINE",
"490 167 OFFCURVE",
"468 152 OFFCURVE",
"422 152 CURVE SMOOTH",
"356 152 LINE",
"356 483 LINE SMOOTH",
"356 502 OFFCURVE",
"363 513 OFFCURVE",
"382 513 CURVE SMOOTH",
"466 513 LINE",
"466 665 LINE",
"17 665 LINE",
"17 513 LINE",
"80 513 LINE SMOOTH",
"100 513 OFFCURVE",
"106 502 OFFCURVE",
"106 477 CURVE SMOOTH",
"106 185 LINE SMOOTH",
"106 164 OFFCURVE",
"100 152 OFFCURVE",
"81 152 CURVE SMOOTH",
"17 152 LINE"
);
}
);
width = 715;
}
);
unicode = 004C;
},
{
glyphname = N;
lastChange = "2015-03-27 14:54:09 +0000";
layers = (
{
layerId = "E9E6D55E-9446-45F2-B66C-3272698B0216";
name = "Light Condensed";
paths = (
{
closed = 1;
nodes = (
"13 0 LINE",
"193 0 LINE",
"193 30 LINE",
"156 30 LINE SMOOTH",
"132 30 OFFCURVE",
"121 45 OFFCURVE",
"121 71 CURVE SMOOTH",
"121 603 LINE",
"125 603 LINE",
"368 0 LINE",
"403 0 LINE",
"403 593 LINE SMOOTH",
"403 620 OFFCURVE",
"413 635 OFFCURVE",
"439 635 CURVE SMOOTH",
"474 635 LINE",
"474 665 LINE",
"295 665 LINE",
"295 635 LINE",
"331 635 LINE SMOOTH",
"357 635 OFFCURVE",
"367 620 OFFCURVE",
"367 593 CURVE SMOOTH",
"367 128 LINE",
"363 128 LINE",
"149 665 LINE",
"13 665 LINE",
"13 635 LINE",
"49 635 LINE SMOOTH",
"75 635 OFFCURVE",
"85 620 OFFCURVE",
"85 593 CURVE SMOOTH",
"85 71 LINE SMOOTH",
"85 45 OFFCURVE",
"74 30 OFFCURVE",
"50 30 CURVE SMOOTH",
"13 30 LINE"
);
}
);
width = 487;
},
{
layerId = "B25F85BC-C782-4067-8484-07202F80B8CD";
name = Condensed;
paths = (
{
closed = 1;
nodes = (
"15 0 LINE",
"238 0 LINE",
"238 90 LINE",
"223 90 LINE SMOOTH",
"206 90 OFFCURVE",
"200 103 OFFCURVE",
"200 122 CURVE SMOOTH",
"200 402 LINE",
"204 402 LINE",
"329 0 LINE",
"481 0 LINE",
"481 543 LINE SMOOTH",
"481 562 OFFCURVE",
"487 575 OFFCURVE",
"508 575 CURVE SMOOTH",
"549 575 LINE",
"549 665 LINE",
"306 665 LINE",
"306 575 LINE",
"335 575 LINE SMOOTH",
"352 575 OFFCURVE",
"358 562 OFFCURVE",
"358 543 CURVE SMOOTH",
"358 253 LINE",
"354 253 LINE",
"239 665 LINE",
"15 665 LINE",
"15 575 LINE",
"50 575 LINE SMOOTH",
"71 575 OFFCURVE",
"77 562 OFFCURVE",
"77 543 CURVE SMOOTH",
"77 122 LINE SMOOTH",
"77 103 OFFCURVE",
"71 90 OFFCURVE",
"50 90 CURVE SMOOTH",
"15 90 LINE"
);
}
);
width = 564;
},
{
layerId = "B817C739-5D48-43E8-AAEE-CE891513D7BC";
name = "Bold Condensed";
paths = (
{
closed = 1;
nodes = (
"7 0 LINE",
"261 0 LINE",
"261 108 LINE",
"234 108 LINE SMOOTH",
"225 108 OFFCURVE",
"221 111 OFFCURVE",
"221 121 CURVE SMOOTH",
"221 280 LINE",
"225 280 LINE",
"326 0 LINE",
"465 0 LINE",
"465 525 LINE SMOOTH",
"465 546 OFFCURVE",
"472 557 OFFCURVE",
"491 557 CURVE SMOOTH",
"509 557 LINE",
"509 665 LINE",
"255 665 LINE",
"255 557 LINE",
"282 557 LINE SMOOTH",
"292 557 OFFCURVE",
"295 552 OFFCURVE",
"295 544 CURVE SMOOTH",
"295 385 LINE",
"291 385 LINE",
"196 665 LINE",
"7 665 LINE",
"7 557 LINE",
"25 557 LINE SMOOTH",
"44 557 OFFCURVE",
"51 546 OFFCURVE",
"51 525 CURVE SMOOTH",
"51 139 LINE SMOOTH",
"51 119 OFFCURVE",
"43 108 OFFCURVE",
"26 108 CURVE SMOOTH",
"7 108 LINE"
);
}
);
width = 516;
},
{
layerId = UUID0;
name = "Light Extended";
paths = (
{
closed = 1;
nodes = (
"31 0 LINE",
"277 0 LINE",
"277 36 LINE",
"201 36 LINE SMOOTH",
"184 36 OFFCURVE",
"178 49 OFFCURVE",
"178 68 CURVE SMOOTH",
"178 576 LINE",
"182 576 LINE",
"624 0 LINE",
"672 0 LINE",
"672 597 LINE SMOOTH",
"672 616 OFFCURVE",
"678 629 OFFCURVE",
"695 629 CURVE SMOOTH",
"772 629 LINE",
"772 665 LINE",
"524 665 LINE",
"524 629 LINE",
"597 629 LINE SMOOTH",
"618 629 OFFCURVE",
"624 616 OFFCURVE",
"624 597 CURVE SMOOTH",
"624 85 LINE",
"620 85 LINE",
"178 665 LINE",
"30 665 LINE",
"30 629 LINE",
"103 629 LINE SMOOTH",
"124 629 OFFCURVE",
"130 616 OFFCURVE",
"130 597 CURVE SMOOTH",
"130 68 LINE SMOOTH",
"130 49 OFFCURVE",
"124 36 OFFCURVE",
"103 36 CURVE SMOOTH",
"31 36 LINE"
);
}
);
width = 802;
},
{
layerId = "4355E1B8-19E6-44BD-A1D7-6E3C2DECA4C8";
name = Extended;
paths = (
{
closed = 1;
nodes = (
"22 0 LINE",
"360 0 LINE",
"360 90 LINE",
"285 90 LINE SMOOTH",
"268 90 OFFCURVE",
"262 103 OFFCURVE",
"262 122 CURVE SMOOTH",
"262 432 LINE",
"266 432 LINE",
"640 0 LINE",
"752 0 LINE",
"752 543 LINE SMOOTH",
"752 562 OFFCURVE",
"758 575 OFFCURVE",
"779 575 CURVE SMOOTH",
"850 575 LINE",
"850 665 LINE",
"512 665 LINE",
"512 575 LINE",
"591 575 LINE SMOOTH",
"608 575 OFFCURVE",
"614 562 OFFCURVE",
"614 543 CURVE SMOOTH",
"614 243 LINE",
"610 243 LINE",
"246 665 LINE",
"22 665 LINE",
"22 575 LINE",
"97 575 LINE SMOOTH",
"118 575 OFFCURVE",
"124 562 OFFCURVE",
"124 543 CURVE SMOOTH",
"124 122 LINE SMOOTH",
"124 103 OFFCURVE",
"118 90 OFFCURVE",
"97 90 CURVE SMOOTH",
"22 90 LINE"
);
}
);
width = 872;
},
{
layerId = "14C77FDB-037D-4842-9381-6D9ED15DD48C";
name = "Bold Extended";
paths = (
{
closed = 1;
nodes = (
"17 0 LINE",
"426 0 LINE",
"426 152 LINE",
"379 152 LINE SMOOTH",
"362 152 OFFCURVE",
"356 165 OFFCURVE",
"356 184 CURVE SMOOTH",
"356 270 LINE",
"360 270 LINE",
"590 0 LINE",
"790 0 LINE",
"790 481 LINE SMOOTH",
"790 500 OFFCURVE",
"796 513 OFFCURVE",
"817 513 CURVE SMOOTH",
"879 513 LINE",
"879 665 LINE",
"470 665 LINE",
"470 513 LINE",
"517 513 LINE SMOOTH",
"534 513 OFFCURVE",
"540 500 OFFCURVE",
"540 481 CURVE SMOOTH",
"540 396 LINE",
"536 396 LINE",
"306 665 LINE",
"17 665 LINE",
"17 513 LINE",
"79 513 LINE SMOOTH",
"100 513 OFFCURVE",
"106 500 OFFCURVE",
"106 481 CURVE SMOOTH",
"106 184 LINE SMOOTH",
"106 165 OFFCURVE",
"100 152 OFFCURVE",
"79 152 CURVE SMOOTH",
"17 152 LINE"
);
}
);
width = 896;
}
);
unicode = 004E;
},
{
glyphname = O;
lastChange = "2015-03-27 17:43:44 +0000";
layers = (
{
layerId = "E9E6D55E-9446-45F2-B66C-3272698B0216";
name = "Light Condensed";
paths = (
{
closed = 1;
nodes = (
"334 -10 OFFCURVE",
"409 100 OFFCURVE",
"409 335 CURVE SMOOTH",
"409 571 OFFCURVE",
"333 670 OFFCURVE",
"217 670 CURVE SMOOTH",
"104 670 OFFCURVE",
"30 575 OFFCURVE",
"30 333 CURVE SMOOTH",
"30 89 OFFCURVE",
"105 -10 OFFCURVE",
"216 -10 CURVE SMOOTH"
);
},
{
closed = 1;
nodes = (
"117 28 OFFCURVE",
"76 114 OFFCURVE",
"76 332 CURVE SMOOTH",
"76 547 OFFCURVE",
"116 632 OFFCURVE",
"218 632 CURVE SMOOTH",
"320 632 OFFCURVE",
"364 549 OFFCURVE",
"364 332 CURVE SMOOTH",
"364 112 OFFCURVE",
"319 28 OFFCURVE",
"218 28 CURVE SMOOTH"
);
}
);
width = 439;
},
{
layerId = "B25F85BC-C782-4067-8484-07202F80B8CD";
name = Condensed;
paths = (
{
closed = 1;
nodes = (
"414 -12 OFFCURVE",
"495 84 OFFCURVE",
"495 332 CURVE SMOOTH",
"495 580 OFFCURVE",
"414 677 OFFCURVE",
"264 677 CURVE SMOOTH",
"115 677 OFFCURVE",
"35 581 OFFCURVE",
"35 332 CURVE SMOOTH",
"35 84 OFFCURVE",
"115 -12 OFFCURVE",
"264 -12 CURVE SMOOTH"
);
},
{
closed = 1;
nodes = (
"213 93 OFFCURVE",
"186 150 OFFCURVE",
"186 329 CURVE SMOOTH",
"186 511 OFFCURVE",
"214 572 OFFCURVE",
"268 572 CURVE SMOOTH",
"320 572 OFFCURVE",
"344 515 OFFCURVE",
"344 325 CURVE SMOOTH",
"344 147 OFFCURVE",
"323 93 OFFCURVE",
"269 93 CURVE SMOOTH"
);
}
);
width = 530;
},
{
layerId = "B817C739-5D48-43E8-AAEE-CE891513D7BC";
name = "Bold Condensed";
paths = (
{
closed = 1;
nodes = (
"397 -10 OFFCURVE",
"477 67 OFFCURVE",
"477 345 CURVE SMOOTH",
"477 606 OFFCURVE",
"406 675 OFFCURVE",
"243 675 CURVE SMOOTH",
"87 675 OFFCURVE",
"16 606 OFFCURVE",
"16 344 CURVE SMOOTH",
"16 67 OFFCURVE",
"97 -10 OFFCURVE",
"242 -10 CURVE SMOOTH"
);
},
{
closed = 1;
nodes = (
"217 128 OFFCURVE",
"215 154 OFFCURVE",
"215 317 CURVE SMOOTH",
"215 517 OFFCURVE",
"219 537 OFFCURVE",
"246 537 CURVE SMOOTH",
"273 537 OFFCURVE",
"278 519 OFFCURVE",
"278 329 CURVE SMOOTH",
"278 154 OFFCURVE",
"274 128 OFFCURVE",
"246 128 CURVE SMOOTH"
);
}
);
width = 493;
},
{
layerId = UUID0;
name = "Light Extended";
paths = (
{
closed = 1;
nodes = (
"601 -10 OFFCURVE",
"725 98 OFFCURVE",
"725 331 CURVE SMOOTH",
"725 568 OFFCURVE",
"599 675 OFFCURVE",
"402 675 CURVE SMOOTH",
"205 675 OFFCURVE",
"75 567 OFFCURVE",
"75 330 CURVE SMOOTH",
"75 99 OFFCURVE",
"200 -10 OFFCURVE",
"401 -10 CURVE SMOOTH"
);
},
{
closed = 1;
nodes = (
"245 31 OFFCURVE",
"124 99 OFFCURVE",
"124 331 CURVE SMOOTH",
"124 560 OFFCURVE",
"240 634 OFFCURVE",
"406 634 CURVE SMOOTH",
"573 634 OFFCURVE",
"676 559 OFFCURVE",
"676 332 CURVE SMOOTH",
"676 101 OFFCURVE",
"567 31 OFFCURVE",
"405 31 CURVE SMOOTH"
);
}
);
width = 800;
},
{
layerId = "4355E1B8-19E6-44BD-A1D7-6E3C2DECA4C8";
name = Extended;
paths = (
{
closed = 1;
nodes = (
"627 -12 OFFCURVE",
"755 114 OFFCURVE",
"755 332 CURVE SMOOTH",
"755 550 OFFCURVE",
"627 677 OFFCURVE",
"405 677 CURVE SMOOTH",
"183 677 OFFCURVE",
"55 551 OFFCURVE",
"55 332 CURVE SMOOTH",
"55 114 OFFCURVE",
"182 -12 OFFCURVE",
"404 -12 CURVE SMOOTH"
);
},
{
closed = 1;
nodes = (
"269 93 OFFCURVE",
"204 170 OFFCURVE",
"204 330 CURVE SMOOTH",
"204 491 OFFCURVE",
"270 572 OFFCURVE",
"408 572 CURVE SMOOTH",
"544 572 OFFCURVE",
"606 494 OFFCURVE",
"606 329 CURVE SMOOTH",
"606 166 OFFCURVE",
"547 93 OFFCURVE",
"409 93 CURVE SMOOTH"
);
}
);
width = 810;
},
{
layerId = "14C77FDB-037D-4842-9381-6D9ED15DD48C";
name = "Bold Extended";
paths = (
{
closed = 1;
nodes = (
"651 -10 OFFCURVE",
"787 98 OFFCURVE",
"787 332 CURVE SMOOTH",
"787 567 OFFCURVE",
"649 675 OFFCURVE",
"402 675 CURVE SMOOTH",
"154 675 OFFCURVE",
"17 567 OFFCURVE",
"17 331 CURVE SMOOTH",
"17 98 OFFCURVE",
"151 -10 OFFCURVE",
"401 -10 CURVE SMOOTH"
);
},
{
closed = 1;
nodes = (
"340 175 OFFCURVE",
"300 199 OFFCURVE",
"300 330 CURVE SMOOTH",
"300 456 OFFCURVE",
"337 490 OFFCURVE",
"402 490 CURVE SMOOTH",
"470 490 OFFCURVE",
"504 452 OFFCURVE",
"504 330 CURVE SMOOTH",
"504 202 OFFCURVE",
"468 175 OFFCURVE",
"402 175 CURVE SMOOTH"
);
}
);
width = 804;
}
);
unicode = 004F;
},
{
color = 0;
glyphname = Q;
lastChange = "2015-03-27 20:35:24 +0000";
layers = (
{
guideLines = (
{
position = "{547, -96}";
}
);
layerId = "E9E6D55E-9446-45F2-B66C-3272698B0216";
name = "Light Condensed";
paths = (
{
closed = 1;
nodes = (
"334 -10 OFFCURVE",
"409 100 OFFCURVE",
"409 335 CURVE SMOOTH",
"409 571 OFFCURVE",
"333 670 OFFCURVE",
"217 670 CURVE SMOOTH",
"104 670 OFFCURVE",
"30 575 OFFCURVE",
"30 333 CURVE SMOOTH",
"30 89 OFFCURVE",
"105 -10 OFFCURVE",
"216 -10 CURVE SMOOTH"
);
},
{
closed = 1;
nodes = (
"117 28 OFFCURVE",
"76 114 OFFCURVE",
"76 332 CURVE SMOOTH",
"76 547 OFFCURVE",
"116 632 OFFCURVE",
"218 632 CURVE SMOOTH",
"320 632 OFFCURVE",
"364 549 OFFCURVE",
"364 332 CURVE SMOOTH",
"364 112 OFFCURVE",
"319 28 OFFCURVE",
"218 28 CURVE SMOOTH"
);
},
{
closed = 1;
nodes = (
"327 150 OFFCURVE",
"248 -96 OFFCURVE",
"374 -96 CURVE SMOOTH",
"433 -96 OFFCURVE",
"449 -41 OFFCURVE",
"449 107 CURVE",
"419 107 LINE",
"419 -13 OFFCURVE",
"407 -51 OFFCURVE",
"376 -51 CURVE SMOOTH",
"300 -51 OFFCURVE",
"349 188 OFFCURVE",
"204 188 CURVE SMOOTH",
"130 188 OFFCURVE",
"99 125 OFFCURVE",
"98 88 CURVE SMOOTH",
"97 64 OFFCURVE",
"108 39 OFFCURVE",
"131 39 CURVE SMOOTH",
"138 39 OFFCURVE",
"145 41 OFFCURVE",
"153 45 CURVE",
"139 54 OFFCURVE",
"132 68 OFFCURVE",
"132 84 CURVE SMOOTH",
"132 115 OFFCURVE",
"158 150 OFFCURVE",
"204 150 CURVE SMOOTH"
);
}
);
width = 459;
},
{
layerId = "B25F85BC-C782-4067-8484-07202F80B8CD";
name = Condensed;
width = 600;
},
{
layerId = "B817C739-5D48-43E8-AAEE-CE891513D7BC";
name = "Bold Condensed";
width = 600;
},
{
layerId = UUID0;
name = "Light Extended";
width = 600;
},
{
layerId = "4355E1B8-19E6-44BD-A1D7-6E3C2DECA4C8";
name = Extended;
width = 600;
},
{
layerId = "14C77FDB-037D-4842-9381-6D9ED15DD48C";
name = "Bold Extended";
width = 600;
}
);
unicode = 0051;
},
{
glyphname = S;
lastChange = "2015-03-27 17:11:26 +0000";
layers = (
{
layerId = "E9E6D55E-9446-45F2-B66C-3272698B0216";
name = "Light Condensed";
paths = (
{
closed = 1;
nodes = (
"127 24 OFFCURVE",
"63 68 OFFCURVE",
"63 214 CURVE",
"32 214 LINE",
"32 0 LINE",
"60 0 LINE",
"65 54 LINE",
"69 54 LINE",
"96 13 OFFCURVE",
"147 -10 OFFCURVE",
"199 -10 CURVE SMOOTH",
"283 -10 OFFCURVE",
"341 52 OFFCURVE",
"341 151 CURVE SMOOTH",
"341 365 OFFCURVE",
"74 351 OFFCURVE",
"74 530 CURVE SMOOTH",
"74 607 OFFCURVE",
"124 636 OFFCURVE",
"180 636 CURVE SMOOTH",
"236 636 OFFCURVE",
"291 608 OFFCURVE",
"291 476 CURVE",
"322 476 LINE",
"322 665 LINE",
"301 665 LINE",
"295 618 LINE",
"291 618 LINE",
"264 650 OFFCURVE",
"226 670 OFFCURVE",
"178 670 CURVE SMOOTH",
"104 670 OFFCURVE",
"37 623 OFFCURVE",
"37 516 CURVE SMOOTH",
"37 304 OFFCURVE",
"303 328 OFFCURVE",
"303 139 CURVE SMOOTH",
"303 79 OFFCURVE",
"276 24 OFFCURVE",
"197 24 CURVE SMOOTH"
);
}
);
width = 378;
},
{
layerId = "B25F85BC-C782-4067-8484-07202F80B8CD";
name = Condensed;
paths = (
{
closed = 1;
nodes = (
"164 91 OFFCURVE",
"129 135 OFFCURVE",
"129 237 CURVE",
"30 237 LINE",
"30 0 LINE",
"117 0 LINE",
"127 54 LINE",
"131 54 LINE",
"160 10 OFFCURVE",
"196 -10 OFFCURVE",
"249 -10 CURVE SMOOTH",
"340 -10 OFFCURVE",
"418 49 OFFCURVE",
"418 172 CURVE SMOOTH",
"418 395 OFFCURVE",
"163 391 OFFCURVE",
"163 507 CURVE SMOOTH",
"163 546 OFFCURVE",
"192 572 OFFCURVE",
"228 572 CURVE SMOOTH",
"278 572 OFFCURVE",
"303 525 OFFCURVE",
"303 434 CURVE",
"403 434 LINE",
"403 665 LINE",
"321 665 LINE",
"309 609 LINE",
"305 609 LINE",
"283 659 OFFCURVE",
"239 673 OFFCURVE",
"196 673 CURVE SMOOTH",
"101 673 OFFCURVE",
"34 606 OFFCURVE",
"34 494 CURVE SMOOTH",
"34 272 OFFCURVE",
"294 288 OFFCURVE",
"294 159 CURVE SMOOTH",
"294 120 OFFCURVE",
"271 91 OFFCURVE",
"223 91 CURVE SMOOTH"
);
}
);
width = 448;
},
{
layerId = "B817C739-5D48-43E8-AAEE-CE891513D7BC";
name = "Bold Condensed";
paths = (
{
closed = 1;
nodes = (
"186 114 OFFCURVE",
"171 145 OFFCURVE",
"171 224 CURVE",
"10 224 LINE",
"10 0 LINE",
"168 0 LINE",
"173 54 LINE",
"177 54 LINE",
"193 13 OFFCURVE",
"235 -10 OFFCURVE",
"288 -10 CURVE SMOOTH",
"374 -10 OFFCURVE",
"422 51 OFFCURVE",
"422 153 CURVE SMOOTH",
"422 377 OFFCURVE",
"191 433 OFFCURVE",
"191 519 CURVE SMOOTH",
"191 539 OFFCURVE",
"204 551 OFFCURVE",
"220 551 CURVE SMOOTH",
"237 551 OFFCURVE",
"258 536 OFFCURVE",
"258 461 CURVE",
"409 461 LINE",
"409 665 LINE",
"278 665 LINE",
"272 623 LINE",
"268 623 LINE",
"252 655 OFFCURVE",
"228 675 OFFCURVE",
"169 675 CURVE SMOOTH",
"79 675 OFFCURVE",
"19 628 OFFCURVE",
"19 514 CURVE SMOOTH",
"19 289 OFFCURVE",
"251 260 OFFCURVE",
"251 154 CURVE SMOOTH",
"251 132 OFFCURVE",
"241 114 OFFCURVE",
"217 114 CURVE SMOOTH"
);
}
);
width = 432;
},
{
layerId = UUID0;
name = "Light Extended";
paths = (
{
closed = 1;
nodes = (
"221 26 OFFCURVE",
"88 62 OFFCURVE",
"88 234 CURVE",
"60 234 LINE",
"60 0 LINE",
"89 0 LINE",
"94 67 LINE",
"98 67 LINE",
"146 17 OFFCURVE",
"237 -10 OFFCURVE",
"336 -10 CURVE SMOOTH",
"483 -10 OFFCURVE",
"583 50 OFFCURVE",
"583 164 CURVE SMOOTH",
"583 412 OFFCURVE",
"114 332 OFFCURVE",
"114 520 CURVE SMOOTH",
"114 596 OFFCURVE",
"190 639 OFFCURVE",
"313 639 CURVE SMOOTH",
"439 639 OFFCURVE",
"534 594 OFFCURVE",
"534 441 CURVE",
"564 441 LINE",
"564 665 LINE",
"536 665 LINE",
"530 609 LINE",
"526 609 LINE",
"479 649 OFFCURVE",
"405 675 OFFCURVE",
"308 675 CURVE SMOOTH",
"154 675 OFFCURVE",
"69 609 OFFCURVE",
"69 509 CURVE SMOOTH",
"69 274 OFFCURVE",
"537 357 OFFCURVE",
"537 155 CURVE SMOOTH",
"537 78 OFFCURVE",
"468 26 OFFCURVE",
"333 26 CURVE SMOOTH"
);
}
);
width = 643;
},
{
layerId = "4355E1B8-19E6-44BD-A1D7-6E3C2DECA4C8";
name = Extended;
paths = (
{
closed = 1;
nodes = (
"237 89 OFFCURVE",
"174 139 OFFCURVE",
"174 247 CURVE",
"65 247 LINE",
"65 0 LINE",
"172 0 LINE",
"182 54 LINE",
"186 54 LINE",
"224 14 OFFCURVE",
"282 -10 OFFCURVE",
"362 -10 CURVE SMOOTH",
"502 -10 OFFCURVE",
"593 63 OFFCURVE",
"593 178 CURVE SMOOTH",
"593 415 OFFCURVE",
"208 366 OFFCURVE",
"208 505 CURVE SMOOTH",
"208 548 OFFCURVE",
"246 572 OFFCURVE",
"319 572 CURVE SMOOTH",
"420 572 OFFCURVE",
"463 525 OFFCURVE",
"463 434 CURVE",
"573 434 LINE",
"573 665 LINE",
"471 665 LINE",
"459 609 LINE",
"455 609 LINE",
"413 660 OFFCURVE",
"349 673 OFFCURVE",
"294 673 CURVE SMOOTH",
"164 673 OFFCURVE",
"69 602 OFFCURVE",
"69 485 CURVE SMOOTH",
"69 249 OFFCURVE",
"459 302 OFFCURVE",
"459 160 CURVE SMOOTH",
"459 119 OFFCURVE",
"425 89 OFFCURVE",
"343 89 CURVE SMOOTH"
);
}
);
width = 638;
},
{
layerId = "14C77FDB-037D-4842-9381-6D9ED15DD48C";
name = "Bold Extended";
paths = (
{
closed = 1;
nodes = (
"247 126 OFFCURVE",
"206 160 OFFCURVE",
"206 247 CURVE",
"15 247 LINE",
"15 0 LINE",
"204 0 LINE",
"214 39 LINE",
"218 39 LINE",
"261 11 OFFCURVE",
"335 -10 OFFCURVE",
"424 -10 CURVE SMOOTH",
"589 -10 OFFCURVE",
"675 62 OFFCURVE",
"675 179 CURVE SMOOTH",
"675 411 OFFCURVE",
"335 391 OFFCURVE",
"335 491 CURVE SMOOTH",
"335 518 OFFCURVE",
"360 532 OFFCURVE",
"395 532 CURVE SMOOTH",
"447 532 OFFCURVE",
"475 502 OFFCURVE",
"475 434 CURVE",
"665 434 LINE",
"665 665 LINE",
"483 665 LINE",
"471 624 LINE",
"467 624 LINE",
"419 660 OFFCURVE",
"336 673 OFFCURVE",
"267 673 CURVE SMOOTH",
"104 673 OFFCURVE",
"29 601 OFFCURVE",
"29 489 CURVE SMOOTH",
"29 247 OFFCURVE",
"376 271 OFFCURVE",
"376 171 CURVE SMOOTH",
"376 145 OFFCURVE",
"354 126 OFFCURVE",
"308 126 CURVE SMOOTH"
);
}
);
width = 690;
}
);
unicode = 0053;
},
{
glyphname = V;
lastChange = "2015-03-27 20:13:01 +0000";
layers = (
{
layerId = "E9E6D55E-9446-45F2-B66C-3272698B0216";
name = "Light Condensed";
paths = (
{
closed = 1;
nodes = (
"8 635 LINE",
"41 635 LINE SMOOTH",
"64 635 OFFCURVE",
"75 625 OFFCURVE",
"83 585 CURVE SMOOTH",
"193 0 LINE",
"247 0 LINE",
"369 586 LINE SMOOTH",
"377 625 OFFCURVE",
"385 635 OFFCURVE",
"411 635 CURVE SMOOTH",
"435 635 LINE",
"435 665 LINE",
"261 665 LINE",
"261 635 LINE",
"297 635 LINE SMOOTH",
"325 635 OFFCURVE",
"336 626 OFFCURVE",
"336 607 CURVE SMOOTH",
"336 601 OFFCURVE",
"335 594 OFFCURVE",
"333 586 CURVE SMOOTH",
"229 68 LINE",
"224 68 LINE",
"124 586 LINE SMOOTH",
"121 595 OFFCURVE",
"125 602 OFFCURVE",
"125 609 CURVE SMOOTH",
"125 627 OFFCURVE",
"134 635 OFFCURVE",
"158 635 CURVE SMOOTH",
"194 635 LINE",
"194 665 LINE",
"8 665 LINE"
);
}
);
width = 441;
},
{
layerId = "B25F85BC-C782-4067-8484-07202F80B8CD";
name = Condensed;
paths = (
{
closed = 1;
nodes = (
"10 575 LINE",
"19 575 LINE SMOOTH",
"52 574 OFFCURVE",
"66 564 OFFCURVE",
"73 535 CURVE SMOOTH",
"211 0 LINE",
"371 0 LINE",
"501 546 LINE SMOOTH",
"506 568 OFFCURVE",
"518 575 OFFCURVE",
"537 575 CURVE SMOOTH",
"557 575 LINE",
"557 665 LINE",
"339 665 LINE",
"339 575 LINE",
"373 575 LINE SMOOTH",
"390 575 OFFCURVE",
"397 568 OFFCURVE",
"397 553 CURVE SMOOTH",
"397 544 OFFCURVE",
"396 538 OFFCURVE",
"394 530 CURVE SMOOTH",
"311 126 LINE",
"307 126 LINE",
"223 535 LINE SMOOTH",
"222 541 OFFCURVE",
"221 546 OFFCURVE",
"221 552 CURVE SMOOTH",
"221 566 OFFCURVE",
"229 575 OFFCURVE",
"244 575 CURVE SMOOTH",
"295 575 LINE",
"295 665 LINE",
"10 665 LINE"
);
}
);
width = 567;
},
{
layerId = "B817C739-5D48-43E8-AAEE-CE891513D7BC";
name = "Bold Condensed";
paths = (
{
closed = 1;
nodes = (
"5 557 LINE",
"9 557 LINE SMOOTH",
"24 557 OFFCURVE",
"32 550 OFFCURVE",
"40 517 CURVE SMOOTH",
"153 0 LINE",
"341 0 LINE",
"464 523 LINE SMOOTH",
"470 549 OFFCURVE",
"480 557 OFFCURVE",
"502 557 CURVE SMOOTH",
"506 557 LINE",
"506 665 LINE",
"277 665 LINE",
"277 557 LINE",
"284 557 LINE SMOOTH",
"309 557 OFFCURVE",
"318 548 OFFCURVE",
"318 531 CURVE SMOOTH",
"318 525 OFFCURVE",
"317 519 OFFCURVE",
"316 512 CURVE SMOOTH",
"273 230 LINE",
"268 230 LINE",
"225 507 LINE",
"224 513 OFFCURVE",
"223 519 OFFCURVE",
"223 525 CURVE SMOOTH",
"223 546 OFFCURVE",
"234 557 OFFCURVE",
"253 557 CURVE SMOOTH",
"263 557 LINE",
"263 665 LINE",
"5 665 LINE"
);
}
);
width = 511;
},
{
layerId = UUID0;
name = "Light Extended";
paths = (
{
closed = 1;
nodes = (
"5 629 LINE",
"77 629 LINE SMOOTH",
"96 629 OFFCURVE",
"105 621 OFFCURVE",
"114 597 CURVE SMOOTH",
"332 0 LINE",
"396 0 LINE",
"611 597 LINE SMOOTH",
"620 623 OFFCURVE",
"629 629 OFFCURVE",
"651 629 CURVE SMOOTH",
"716 629 LINE",
"716 665 LINE",
"468 665 LINE",
"468 629 LINE",
"544 629 LINE SMOOTH",
"561 629 OFFCURVE",
"569 620 OFFCURVE",
"569 608 CURVE SMOOTH",
"569 605 OFFCURVE",
"568 601 OFFCURVE",
"567 597 CURVE",
"371 47 LINE",
"367 47 LINE",
"166 597 LINE",
"164 601 OFFCURVE",
"164 605 OFFCURVE",
"164 608 CURVE SMOOTH",
"164 621 OFFCURVE",
"176 629 OFFCURVE",
"193 629 CURVE SMOOTH",
"265 629 LINE",
"265 665 LINE",
"5 665 LINE"
);
}
);
width = 721;
},
{
layerId = "4355E1B8-19E6-44BD-A1D7-6E3C2DECA4C8";
name = Extended;
paths = (
{
closed = 1;
nodes = (
"10 575 LINE",
"23 575 LINE SMOOTH",
"72 574 OFFCURVE",
"88 562 OFFCURVE",
"104 519 CURVE SMOOTH",
"290 0 LINE",
"450 0 LINE",
"650 519 LINE SMOOTH",
"668 564 OFFCURVE",
"676 575 OFFCURVE",
"710 575 CURVE SMOOTH",
"743 575 LINE",
"743 665 LINE",
"421 665 LINE",
"421 575 LINE",
"507 575 LINE SMOOTH",
"530 575 OFFCURVE",
"543 564 OFFCURVE",
"543 543 CURVE SMOOTH",
"543 537 OFFCURVE",
"541 528 OFFCURVE",
"538 519 CURVE",
"394 111 LINE",
"389 111 LINE",
"260 519 LINE",
"256 531 OFFCURVE",
"254 541 OFFCURVE",
"254 549 CURVE SMOOTH",
"254 567 OFFCURVE",
"263 575 OFFCURVE",
"285 575 CURVE SMOOTH",
"376 575 LINE",
"376 665 LINE",
"10 665 LINE"
);
}
);
width = 753;
},
{
layerId = "14C77FDB-037D-4842-9381-6D9ED15DD48C";
name = "Bold Extended";
paths = (
{
closed = 1;
nodes = (
"9 513 LINE",
"17 513 LINE SMOOTH",
"51 512 OFFCURVE",
"65 502 OFFCURVE",
"78 473 CURVE SMOOTH",
"284 0 LINE",
"530 0 LINE",
"720 478 LINE SMOOTH",
"732 505 OFFCURVE",
"737 513 OFFCURVE",
"765 513 CURVE SMOOTH",
"796 513 LINE",
"796 665 LINE",
"461 665 LINE",
"461 513 LINE",
"505 513 LINE SMOOTH",
"527 513 OFFCURVE",
"537 500 OFFCURVE",
"537 484 CURVE SMOOTH",
"537 478 OFFCURVE",
"536 471 OFFCURVE",
"533 463 CURVE",
"440 176 LINE",
"436 176 LINE",
"339 473 LINE",
"337 479 OFFCURVE",
"336 484 OFFCURVE",
"336 489 CURVE SMOOTH",
"336 504 OFFCURVE",
"345 513 OFFCURVE",
"364 513 CURVE SMOOTH",
"425 513 LINE",
"425 665 LINE",
"9 665 LINE"
);
}
);
width = 805;
}
);
unicode = 0056;
},
{
glyphname = a;
lastChange = "2015-03-23 00:15:10 +0000";
layers = (
{
background = {
paths = (
{
closed = 1;
nodes = (
"294 -10 OFFCURVE",
"347 16 OFFCURVE",
"382 74 CURVE",
"386 74 LINE",
"387 21 OFFCURVE",
"420 -10 OFFCURVE",
"476 -10 CURVE SMOOTH",
"539 -10 OFFCURVE",
"568 31 OFFCURVE",
"568 121 CURVE SMOOTH",
"568 138 OFFCURVE",
"567 139 OFFCURVE",
"567 148 CURVE",
"537 148 LINE",
"537 140 OFFCURVE",
"538 137 OFFCURVE",
"538 123 CURVE SMOOTH",
"538 58 OFFCURVE",
"517 24 OFFCURVE",
"476 24 CURVE SMOOTH",
"444 24 OFFCURVE",
"427 45 OFFCURVE",
"427 85 CURVE SMOOTH",
"427 343 LINE SMOOTH",
"427 416 OFFCURVE",
"364 460 OFFCURVE",
"256 460 CURVE SMOOTH",
"144 460 OFFCURVE",
"69 412 OFFCURVE",
"69 337 CURVE SMOOTH",
"69 303 OFFCURVE",
"85 281 OFFCURVE",
"112 281 CURVE SMOOTH",
"134 281 OFFCURVE",
"148 295 OFFCURVE",
"148 315 CURVE SMOOTH",
"148 345 OFFCURVE",
"119 353 OFFCURVE",
"119 372 CURVE SMOOTH",
"119 400 OFFCURVE",
"183 425 OFFCURVE",
"257 425 CURVE SMOOTH",
"339 425 OFFCURVE",
"383 394 OFFCURVE",
"383 337 CURVE SMOOTH",
"383 305 LINE SMOOTH",
"383 279 OFFCURVE",
"376 274 OFFCURVE",
"360 272 CURVE SMOOTH",
"225 253 LINE SMOOTH",
"103 236 OFFCURVE",
"49 193 OFFCURVE",
"49 113 CURVE SMOOTH",
"49 32 OFFCURVE",
"105 -10 OFFCURVE",
"211 -10 CURVE SMOOTH"
);
},
{
closed = 1;
nodes = (
"138 25 OFFCURVE",
"96 61 OFFCURVE",
"96 118 CURVE SMOOTH",
"96 178 OFFCURVE",
"144 211 OFFCURVE",
"246 225 CURVE SMOOTH",
"383 244 LINE",
"383 176 LINE SMOOTH",
"383 89 OFFCURVE",
"314 25 OFFCURVE",
"214 25 CURVE SMOOTH"
);
}
);
};
layerId = UUID0;
name = "Light Extended";
paths = (
{
closed = 1;
nodes = (
"290 -10 OFFCURVE",
"344 18 OFFCURVE",
"382 78 CURVE",
"386 78 LINE",
"387 24 OFFCURVE",
"421 -10 OFFCURVE",
"476 -10 CURVE SMOOTH",
"539 -10 OFFCURVE",
"568 31 OFFCURVE",
"568 121 CURVE SMOOTH",
"568 138 OFFCURVE",
"567 139 OFFCURVE",
"567 148 CURVE",
"537 148 LINE",
"537 140 OFFCURVE",
"538 137 OFFCURVE",
"538 123 CURVE SMOOTH",
"538 58 OFFCURVE",
"517 24 OFFCURVE",
"476 24 CURVE SMOOTH",
"444 24 OFFCURVE",
"427 45 OFFCURVE",
"427 85 CURVE SMOOTH",
"427 343 LINE SMOOTH",
"427 416 OFFCURVE",
"363 460 OFFCURVE",
"256 460 CURVE SMOOTH",
"145 460 OFFCURVE",
"69 408 OFFCURVE",
"69 332 CURVE SMOOTH",
"69 297 OFFCURVE",
"85 276 OFFCURVE",
"112 276 CURVE SMOOTH",
"133 276 OFFCURVE",
"148 289 OFFCURVE",
"148 307 CURVE SMOOTH",
"148 337 OFFCURVE",
"119 337 OFFCURVE",
"119 362 CURVE SMOOTH",
"119 395 OFFCURVE",
"184 425 OFFCURVE",
"257 425 CURVE SMOOTH",
"339 425 OFFCURVE",
"383 394 OFFCURVE",
"383 337 CURVE SMOOTH",
"383 305 LINE SMOOTH",
"383 280 OFFCURVE",
"377 270 OFFCURVE",
"360 269 CURVE",
"225 250 LINE SMOOTH",
"100 232 OFFCURVE",
"49 192 OFFCURVE",
"49 113 CURVE SMOOTH",
"49 32 OFFCURVE",
"105 -10 OFFCURVE",
"211 -10 CURVE SMOOTH"
);
},
{
closed = 1;
nodes = (
"142 25 OFFCURVE",
"96 59 OFFCURVE",
"96 112 CURVE SMOOTH",
"96 175 OFFCURVE",
"140 207 OFFCURVE",
"246 222 CURVE SMOOTH",
"383 241 LINE",
"383 199 LINE SMOOTH",
"383 89 OFFCURVE",
"320 25 OFFCURVE",
"214 25 CURVE SMOOTH"
);
}
);
width = 578;
},
{
background = {
paths = (
{
closed = 1;
nodes = (
"265 -10 OFFCURVE",
"327 19 OFFCURVE",
"365 75 CURVE",
"369 75 LINE",
"376 22 OFFCURVE",
"420 -10 OFFCURVE",
"486 -10 CURVE SMOOTH",
"569 -10 OFFCURVE",
"612 40 OFFCURVE",
"612 137 CURVE SMOOTH",
"612 167 OFFCURVE",
"612 168 OFFCURVE",
"611 175 CURVE",
"542 175 LINE",
"543 171 OFFCURVE",
"543 170 OFFCURVE",
"543 142 CURVE SMOOTH",
"543 111 OFFCURVE",
"529 93 OFFCURVE",
"505 93 CURVE SMOOTH",
"486 93 OFFCURVE",
"476 105 OFFCURVE",
"476 128 CURVE SMOOTH",
"476 300 LINE SMOOTH",
"476 404 OFFCURVE",
"405 460 OFFCURVE",
"272 460 CURVE SMOOTH",
"141 460 OFFCURVE",
"53 406 OFFCURVE",
"53 325 CURVE SMOOTH",
"53 278 OFFCURVE",
"83 248 OFFCURVE",
"128 248 CURVE SMOOTH",
"165 248 OFFCURVE",
"188 267 OFFCURVE",
"188 298 CURVE SMOOTH",
"188 326 OFFCURVE",
"168 327 OFFCURVE",
"168 343 CURVE SMOOTH",
"168 365 OFFCURVE",
"208 383 OFFCURVE",
"261 383 CURVE SMOOTH",
"319 383 OFFCURVE",
"346 362 OFFCURVE",
"346 316 CURVE SMOOTH",
"346 296 LINE SMOOTH",
"346 275 OFFCURVE",
"340 266 OFFCURVE",
"322 263 CURVE SMOOTH",
"220 248 LINE SMOOTH",
"80 227 OFFCURVE",
"38 176 OFFCURVE",
"38 107 CURVE SMOOTH",
"38 30 OFFCURVE",
"90 -10 OFFCURVE",
"184 -10 CURVE SMOOTH"
);
},
{
closed = 1;
nodes = (
"195 75 OFFCURVE",
"174 92 OFFCURVE",
"174 122 CURVE SMOOTH",
"174 156 OFFCURVE",
"200 184 OFFCURVE",
"250 191 CURVE SMOOTH",
"346 205 LINE",
"346 186 LINE SMOOTH",
"346 134 OFFCURVE",
"283 75 OFFCURVE",
"226 75 CURVE SMOOTH"
);
}
);
};
layerId = "4355E1B8-19E6-44BD-A1D7-6E3C2DECA4C8";
name = Extended;
paths = (
{
closed = 1;
nodes = (
"265 -10 OFFCURVE",
"328 19 OFFCURVE",
"365 73 CURVE",
"369 73 LINE",
"375 21 OFFCURVE",
"418 -10 OFFCURVE",
"485 -10 CURVE SMOOTH",
"569 -10 OFFCURVE",
"612 40 OFFCURVE",
"612 137 CURVE SMOOTH",
"612 167 OFFCURVE",
"612 168 OFFCURVE",
"611 175 CURVE",
"542 175 LINE",
"543 171 OFFCURVE",
"543 170 OFFCURVE",
"543 142 CURVE SMOOTH",
"543 111 OFFCURVE",
"529 93 OFFCURVE",
"505 93 CURVE SMOOTH",
"486 93 OFFCURVE",
"476 105 OFFCURVE",
"476 128 CURVE SMOOTH",
"476 315 LINE SMOOTH",
"476 405 OFFCURVE",
"397 460 OFFCURVE",
"269 460 CURVE SMOOTH",
"142 460 OFFCURVE",
"53 405 OFFCURVE",
"53 327 CURVE SMOOTH",
"53 283 OFFCURVE",
"82 254 OFFCURVE",
"127 254 CURVE SMOOTH",
"163 254 OFFCURVE",
"188 272 OFFCURVE",
"188 299 CURVE SMOOTH",
"188 324 OFFCURVE",
"168 328 OFFCURVE",
"168 343 CURVE SMOOTH",
"168 365 OFFCURVE",
"210 383 OFFCURVE",
"260 383 CURVE SMOOTH",
"314 383 OFFCURVE",
"346 362 OFFCURVE",
"346 327 CURVE SMOOTH",
"346 298 LINE SMOOTH",
"346 275 OFFCURVE",
"340 266 OFFCURVE",
"322 263 CURVE SMOOTH",
"220 248 LINE SMOOTH",
"92 228 OFFCURVE",
"38 187 OFFCURVE",
"38 108 CURVE SMOOTH",
"38 31 OFFCURVE",
"89 -10 OFFCURVE",
"185 -10 CURVE SMOOTH"
);
},
{
closed = 1;
nodes = (
"189 75 OFFCURVE",
"169 92 OFFCURVE",
"169 123 CURVE SMOOTH",
"169 161 OFFCURVE",
"198 184 OFFCURVE",
"261 193 CURVE SMOOTH",
"346 205 LINE",
"346 186 LINE SMOOTH",
"346 125 OFFCURVE",
"293 75 OFFCURVE",
"227 75 CURVE SMOOTH"
);
}
);
width = 629;
},
{
background = {
paths = (
{
closed = 1;
nodes = (
"249 -10 OFFCURVE",
"325 20 OFFCURVE",
"364 71 CURVE",
"368 71 LINE",
"381 17 OFFCURVE",
"426 -10 OFFCURVE",
"504 -10 CURVE SMOOTH",
"614 -10 OFFCURVE",
"669 43 OFFCURVE",
"669 150 CURVE SMOOTH",
"669 159 OFFCURVE",
"671 107 OFFCURVE",
"666 221 CURVE",
"592 221 LINE",
"593 211 OFFCURVE",
"593 208 OFFCURVE",
"593 178 CURVE SMOOTH",
"593 154 OFFCURVE",
"589 146 OFFCURVE",
"577 146 CURVE SMOOTH",
"568 146 OFFCURVE",
"564 152 OFFCURVE",
"564 164 CURVE SMOOTH",
"564 304 LINE SMOOTH",
"564 429 OFFCURVE",
"478 490 OFFCURVE",
"302 490 CURVE SMOOTH",
"137 490 OFFCURVE",
"37 436 OFFCURVE",
"37 347 CURVE SMOOTH",
"37 289 OFFCURVE",
"79 254 OFFCURVE",
"148 254 CURVE SMOOTH",
"203 254 OFFCURVE",
"242 276 OFFCURVE",
"242 308 CURVE SMOOTH",
"242 322 OFFCURVE",
"234 332 OFFCURVE",
"234 346 CURVE SMOOTH",
"234 366 OFFCURVE",
"252 379 OFFCURVE",
"279 379 CURVE SMOOTH",
"314 379 OFFCURVE",
"334 359 OFFCURVE",
"334 322 CURVE SMOOTH",
"334 303 LINE SMOOTH",
"334 284 OFFCURVE",
"324 275 OFFCURVE",
"302 270 CURVE SMOOTH",
"159 237 LINE",
"55 215 OFFCURVE",
"7 171 OFFCURVE",
"7 101 CURVE SMOOTH",
"7 28 OFFCURVE",
"59 -10 OFFCURVE",
"160 -10 CURVE SMOOTH"
);
},
{
closed = 1;
nodes = (
"241 112 OFFCURVE",
"230 120 OFFCURVE",
"230 137 CURVE SMOOTH",
"230 156 OFFCURVE",
"245 169 OFFCURVE",
"277 177 CURVE SMOOTH",
"339 193 LINE",
"339 184 LINE SMOOTH",
"339 145 OFFCURVE",
"303 112 OFFCURVE",
"262 112 CURVE SMOOTH"
);
}
);
};
layerId = "14C77FDB-037D-4842-9381-6D9ED15DD48C";
name = "Bold Extended";
paths = (
{
closed = 1;
nodes = (
"249 -10 OFFCURVE",
"325 20 OFFCURVE",
"364 71 CURVE",
"368 71 LINE",
"381 17 OFFCURVE",
"426 -10 OFFCURVE",
"504 -10 CURVE SMOOTH",
"614 -10 OFFCURVE",
"669 43 OFFCURVE",
"669 150 CURVE SMOOTH",
"669 155 OFFCURVE",
"668 171 OFFCURVE",
"666 221 CURVE",
"592 221 LINE",
"593 211 OFFCURVE",
"593 209 OFFCURVE",
"593 178 CURVE SMOOTH",
"593 154 OFFCURVE",
"589 146 OFFCURVE",
"577 146 CURVE SMOOTH",
"568 146 OFFCURVE",
"564 152 OFFCURVE",
"564 164 CURVE SMOOTH",
"564 304 LINE SMOOTH",
"564 429 OFFCURVE",
"478 490 OFFCURVE",
"302 490 CURVE SMOOTH",
"137 490 OFFCURVE",
"37 436 OFFCURVE",
"37 347 CURVE SMOOTH",
"37 289 OFFCURVE",
"79 254 OFFCURVE",
"148 254 CURVE SMOOTH",
"203 254 OFFCURVE",
"242 276 OFFCURVE",
"242 308 CURVE SMOOTH",
"242 322 OFFCURVE",
"234 332 OFFCURVE",
"234 346 CURVE SMOOTH",
"234 366 OFFCURVE",
"252 379 OFFCURVE",
"279 379 CURVE SMOOTH",
"314 379 OFFCURVE",
"334 359 OFFCURVE",
"334 322 CURVE SMOOTH",
"334 291 LINE SMOOTH",
"334 272 OFFCURVE",
"323 261 OFFCURVE",
"302 258 CURVE SMOOTH",
"159 237 LINE SMOOTH",
"60 223 OFFCURVE",
"7 175 OFFCURVE",
"7 101 CURVE SMOOTH",
"7 28 OFFCURVE",
"59 -10 OFFCURVE",
"160 -10 CURVE SMOOTH"
);
},
{
closed = 1;
nodes = (
"243 112 OFFCURVE",
"230 122 OFFCURVE",
"230 139 CURVE SMOOTH",
"230 159 OFFCURVE",
"246 172 OFFCURVE",
"277 177 CURVE SMOOTH",
"339 187 LINE",
"339 178 LINE SMOOTH",
"339 142 OFFCURVE",
"305 112 OFFCURVE",
"265 112 CURVE SMOOTH"
);
}
);
width = 678;
},
{
background = {
paths = (
{
closed = 1;
nodes = (
"168 -10 OFFCURVE",
"203 9 OFFCURVE",
"227 69 CURVE",
"231 69 LINE",
"231 13 OFFCURVE",
"254 -10 OFFCURVE",
"293 -10 CURVE SMOOTH",
"337 -10 OFFCURVE",
"357 25 OFFCURVE",
"357 145 CURVE SMOOTH",
"357 153 OFFCURVE",
"356 160 OFFCURVE",
"356 166 CURVE",
"328 166 LINE",
"328 160 OFFCURVE",
"329 151 OFFCURVE",
"329 144 CURVE SMOOTH",
"329 43 OFFCURVE",
"315 19 OFFCURVE",
"297 19 CURVE SMOOTH",
"276 19 OFFCURVE",
"269 36 OFFCURVE",
"269 81 CURVE SMOOTH",
"269 367 LINE SMOOTH",
"269 427 OFFCURVE",
"220 460 OFFCURVE",
"162 460 CURVE SMOOTH",
"100 460 OFFCURVE",
"40 421 OFFCURVE",
"40 345 CURVE SMOOTH",
"40 308 OFFCURVE",
"54 283 OFFCURVE",
"78 283 CURVE SMOOTH",
"96 283 OFFCURVE",
"107 299 OFFCURVE",
"107 320 CURVE SMOOTH",
"107 351 OFFCURVE",
"81 352 OFFCURVE",
"81 378 CURVE SMOOTH",
"81 404 OFFCURVE",
"122 431 OFFCURVE",
"160 431 CURVE SMOOTH",
"207 431 OFFCURVE",
"229 401 OFFCURVE",
"229 356 CURVE SMOOTH",
"229 299 LINE SMOOTH",
"229 285 OFFCURVE",
"226 278 OFFCURVE",
"200 268 CURVE",
"147 252 LINE SMOOTH",
"62 226 OFFCURVE",
"29 176 OFFCURVE",
"29 102 CURVE SMOOTH",
"29 30 OFFCURVE",
"63 -10 OFFCURVE",
"125 -10 CURVE SMOOTH"
);
},
{
closed = 1;
nodes = (
"107 25 OFFCURVE",
"78 42 OFFCURVE",
"78 110 CURVE SMOOTH",
"78 169 OFFCURVE",
"94 205 OFFCURVE",
"163 229 CURVE SMOOTH",
"229 251 LINE",
"229 175 LINE SMOOTH",
"229 107 OFFCURVE",
"194 25 OFFCURVE",
"138 25 CURVE SMOOTH"
);
}
);
};
layerId = "E9E6D55E-9446-45F2-B66C-3272698B0216";
name = "Light Condensed";
paths = (
{
closed = 1;
nodes = (
"173 -10 OFFCURVE",
"205 15 OFFCURVE",
"227 69 CURVE",
"231 69 LINE",
"231 13 OFFCURVE",
"254 -10 OFFCURVE",
"293 -10 CURVE SMOOTH",
"337 -10 OFFCURVE",
"357 25 OFFCURVE",
"357 145 CURVE SMOOTH",
"357 153 OFFCURVE",
"356 160 OFFCURVE",
"356 166 CURVE",
"326 166 LINE",
"326 160 OFFCURVE",
"327 151 OFFCURVE",
"327 144 CURVE SMOOTH",
"327 43 OFFCURVE",
"315 22 OFFCURVE",
"297 22 CURVE SMOOTH",
"276 22 OFFCURVE",
"269 36 OFFCURVE",
"269 81 CURVE SMOOTH",
"269 367 LINE SMOOTH",
"269 422 OFFCURVE",
"226 460 OFFCURVE",
"163 460 CURVE SMOOTH",
"91 460 OFFCURVE",
"38 411 OFFCURVE",
"38 345 CURVE SMOOTH",
"38 309 OFFCURVE",
"54 285 OFFCURVE",
"77 285 CURVE SMOOTH",
"95 285 OFFCURVE",
"107 298 OFFCURVE",
"107 320 CURVE SMOOTH",
"107 350 OFFCURVE",
"85 354 OFFCURVE",
"85 377 CURVE SMOOTH",
"85 406 OFFCURVE",
"119 429 OFFCURVE",
"162 429 CURVE SMOOTH",
"206 429 OFFCURVE",
"229 405 OFFCURVE",
"229 359 CURVE SMOOTH",
"229 293 LINE SMOOTH",
"229 278 OFFCURVE",
"220 269 OFFCURVE",
"200 262 CURVE SMOOTH",
"147 244 LINE SMOOTH",
"71 218 OFFCURVE",
"29 173 OFFCURVE",
"29 98 CURVE SMOOTH",
"29 30 OFFCURVE",
"64 -10 OFFCURVE",
"125 -10 CURVE SMOOTH"
);
},
{
closed = 1;
nodes = (
"93 24 OFFCURVE",
"71 53 OFFCURVE",
"71 103 CURVE SMOOTH",
"71 161 OFFCURVE",
"100 197 OFFCURVE",
"163 218 CURVE SMOOTH",
"229 240 LINE",
"229 174 LINE SMOOTH",
"229 93 OFFCURVE",
"182 24 OFFCURVE",
"128 24 CURVE SMOOTH"
);
}
);
width = 366;
},
{
background = {
paths = (
{
closed = 1;
nodes = (
"165 -10 OFFCURVE",
"209 16 OFFCURVE",
"230 60 CURVE",
"234 60 LINE",
"240 18 OFFCURVE",
"277 -10 OFFCURVE",
"326 -10 CURVE SMOOTH",
"392 -10 OFFCURVE",
"425 43 OFFCURVE",
"425 150 CURVE SMOOTH",
"425 169 OFFCURVE",
"424 177 OFFCURVE",
"424 190 CURVE",
"368 190 LINE",
"368 178 OFFCURVE",
"369 175 OFFCURVE",
"369 150 CURVE SMOOTH",
"369 106 OFFCURVE",
"366 93 OFFCURVE",
"354 93 CURVE SMOOTH",
"345 93 OFFCURVE",
"342 101 OFFCURVE",
"342 125 CURVE SMOOTH",
"342 338 LINE SMOOTH",
"342 416 OFFCURVE",
"290 460 OFFCURVE",
"198 460 CURVE SMOOTH",
"98 460 OFFCURVE",
"26 407 OFFCURVE",
"26 332 CURVE SMOOTH",
"26 285 OFFCURVE",
"55 253 OFFCURVE",
"99 253 CURVE SMOOTH",
"135 253 OFFCURVE",
"161 274 OFFCURVE",
"161 305 CURVE SMOOTH",
"161 333 OFFCURVE",
"141 333 OFFCURVE",
"141 351 CURVE SMOOTH",
"141 368 OFFCURVE",
"157 382 OFFCURVE",
"176 382 CURVE SMOOTH",
"197 382 OFFCURVE",
"212 366 OFFCURVE",
"212 344 CURVE SMOOTH",
"212 298 LINE SMOOTH",
"212 275 OFFCURVE",
"208 266 OFFCURVE",
"196 261 CURVE SMOOTH",
"114 230 LINE SMOOTH",
"41 202 OFFCURVE",
"11 165 OFFCURVE",
"11 104 CURVE SMOOTH",
"11 34 OFFCURVE",
"51 -10 OFFCURVE",
"115 -10 CURVE SMOOTH"
);
},
{
closed = 1;
nodes = (
"157 97 OFFCURVE",
"147 110 OFFCURVE",
"147 133 CURVE SMOOTH",
"147 157 OFFCURVE",
"158 171 OFFCURVE",
"190 185 CURVE SMOOTH",
"212 194 LINE",
"212 162 LINE SMOOTH",
"212 120 OFFCURVE",
"199 97 OFFCURVE",
"175 97 CURVE SMOOTH"
);
}
);
};
layerId = "B25F85BC-C782-4067-8484-07202F80B8CD";
name = Condensed;
paths = (
{
closed = 1;
nodes = (
"165 -10 OFFCURVE",
"209 16 OFFCURVE",
"230 60 CURVE",
"234 60 LINE",
"240 18 OFFCURVE",
"277 -10 OFFCURVE",
"326 -10 CURVE SMOOTH",
"392 -10 OFFCURVE",
"425 43 OFFCURVE",
"425 150 CURVE SMOOTH",
"425 169 OFFCURVE",
"424 177 OFFCURVE",
"424 190 CURVE",
"368 190 LINE",
"368 178 OFFCURVE",
"369 175 OFFCURVE",
"369 150 CURVE SMOOTH",
"369 106 OFFCURVE",
"366 93 OFFCURVE",
"354 93 CURVE SMOOTH",
"345 93 OFFCURVE",
"342 101 OFFCURVE",
"342 125 CURVE SMOOTH",
"342 338 LINE SMOOTH",
"342 416 OFFCURVE",
"290 460 OFFCURVE",
"198 460 CURVE SMOOTH",
"98 460 OFFCURVE",
"26 407 OFFCURVE",
"26 332 CURVE SMOOTH",
"26 285 OFFCURVE",
"55 253 OFFCURVE",
"99 253 CURVE SMOOTH",
"135 253 OFFCURVE",
"161 274 OFFCURVE",
"161 305 CURVE SMOOTH",
"161 333 OFFCURVE",
"141 333 OFFCURVE",
"141 351 CURVE SMOOTH",
"141 368 OFFCURVE",
"157 382 OFFCURVE",
"176 382 CURVE SMOOTH",
"197 382 OFFCURVE",
"212 366 OFFCURVE",
"212 344 CURVE SMOOTH",
"212 298 LINE SMOOTH",
"212 275 OFFCURVE",
"208 266 OFFCURVE",
"196 261 CURVE SMOOTH",
"114 230 LINE SMOOTH",
"41 202 OFFCURVE",
"11 165 OFFCURVE",
"11 104 CURVE SMOOTH",
"11 34 OFFCURVE",
"51 -10 OFFCURVE",
"115 -10 CURVE SMOOTH"
);
},
{
closed = 1;
nodes = (
"156 87 OFFCURVE",
"147 100 OFFCURVE",
"147 127 CURVE SMOOTH",
"147 162 OFFCURVE",
"163 185 OFFCURVE",
"194 197 CURVE SMOOTH",
"212 204 LINE",
"212 168 LINE SMOOTH",
"212 115 OFFCURVE",
"198 87 OFFCURVE",
"173 87 CURVE SMOOTH"
);
}
);
width = 426;
},
{
background = {
paths = (
{
closed = 1;
nodes = (
"171 -12 OFFCURVE",
"221 18 OFFCURVE",
"248 70 CURVE",
"252 70 LINE",
"262 21 OFFCURVE",
"306 -12 OFFCURVE",
"364 -12 CURVE SMOOTH",
"441 -12 OFFCURVE",
"484 39 OFFCURVE",
"484 128 CURVE SMOOTH",
"484 154 OFFCURVE",
"484 161 OFFCURVE",
"482 171 CURVE",
"421 171 LINE",
"422 166 OFFCURVE",
"422 160 OFFCURVE",
"422 150 CURVE SMOOTH",
"422 116 OFFCURVE",
"418 101 OFFCURVE",
"408 101 CURVE SMOOTH",
"399 101 OFFCURVE",
"396 107 OFFCURVE",
"396 124 CURVE SMOOTH",
"396 300 LINE SMOOTH",
"396 418 OFFCURVE",
"337 477 OFFCURVE",
"219 477 CURVE SMOOTH",
"101 477 OFFCURVE",
"18 419 OFFCURVE",
"18 336 CURVE SMOOTH",
"18 282 OFFCURVE",
"53 249 OFFCURVE",
"108 249 CURVE SMOOTH",
"154 249 OFFCURVE",
"186 271 OFFCURVE",
"186 304 CURVE SMOOTH",
"186 327 OFFCURVE",
"171 331 OFFCURVE",
"171 345 CURVE SMOOTH",
"171 357 OFFCURVE",
"183 367 OFFCURVE",
"196 367 CURVE SMOOTH",
"211 367 OFFCURVE",
"220 353 OFFCURVE",
"220 327 CURVE SMOOTH",
"220 281 LINE SMOOTH",
"220 266 OFFCURVE",
"214 260 OFFCURVE",
"193 252 CURVE SMOOTH",
"135 231 LINE SMOOTH",
"42 197 OFFCURVE",
"6 157 OFFCURVE",
"6 91 CURVE SMOOTH",
"6 25 OFFCURVE",
"43 -12 OFFCURVE",
"111 -12 CURVE SMOOTH"
);
},
{
closed = 1;
nodes = (
"173 110 OFFCURVE",
"165 119 OFFCURVE",
"165 134 CURVE SMOOTH",
"165 153 OFFCURVE",
"176 166 OFFCURVE",
"201 176 CURVE SMOOTH",
"223 185 LINE",
"223 158 LINE SMOOTH",
"223 128 OFFCURVE",
"210 110 OFFCURVE",
"188 110 CURVE SMOOTH"
);
}
);
};
layerId = "B817C739-5D48-43E8-AAEE-CE891513D7BC";
name = "Bold Condensed";
paths = (
{
closed = 1;
nodes = (
"175 -12 OFFCURVE",
"223 22 OFFCURVE",
"248 70 CURVE",
"252 70 LINE",
"261 25 OFFCURVE",
"301 -12 OFFCURVE",
"365 -12 CURVE SMOOTH",
"440 -12 OFFCURVE",
"484 39 OFFCURVE",
"484 128 CURVE SMOOTH",
"484 154 OFFCURVE",
"484 161 OFFCURVE",
"482 171 CURVE",
"421 171 LINE",
"422 166 OFFCURVE",
"422 160 OFFCURVE",
"422 150 CURVE SMOOTH",
"422 114 OFFCURVE",
"418 101 OFFCURVE",
"407 101 CURVE SMOOTH",
"399 101 OFFCURVE",
"396 108 OFFCURVE",
"396 124 CURVE SMOOTH",
"396 300 LINE SMOOTH",
"396 418 OFFCURVE",
"337 477 OFFCURVE",
"219 477 CURVE SMOOTH",
"101 477 OFFCURVE",
"18 419 OFFCURVE",
"18 336 CURVE SMOOTH",
"18 282 OFFCURVE",
"53 249 OFFCURVE",
"108 249 CURVE SMOOTH",
"154 249 OFFCURVE",
"186 271 OFFCURVE",
"186 304 CURVE SMOOTH",
"186 327 OFFCURVE",
"171 331 OFFCURVE",
"171 345 CURVE SMOOTH",
"171 357 OFFCURVE",
"183 367 OFFCURVE",
"196 367 CURVE SMOOTH",
"211 367 OFFCURVE",
"220 353 OFFCURVE",
"220 327 CURVE SMOOTH",
"220 287 LINE SMOOTH",
"220 272 OFFCURVE",
"214 266 OFFCURVE",
"193 258 CURVE SMOOTH",
"135 236 LINE SMOOTH",
"34 198 OFFCURVE",
"6 157 OFFCURVE",
"6 96 CURVE SMOOTH",
"6 25 OFFCURVE",
"45 -12 OFFCURVE",
"111 -12 CURVE SMOOTH"
);
},
{
closed = 1;
nodes = (
"173 110 OFFCURVE",
"165 119 OFFCURVE",
"165 135 CURVE SMOOTH",
"165 153 OFFCURVE",
"176 171 OFFCURVE",
"201 181 CURVE SMOOTH",
"223 190 LINE",
"223 170 LINE SMOOTH",
"223 130 OFFCURVE",
"210 110 OFFCURVE",
"188 110 CURVE SMOOTH"
);
}
);
width = 470;
}
);
unicode = 0061;
},
{
glyphname = b;
lastChange = "2015-03-25 19:50:59 +0000";
layers = (
{
layerId = "E9E6D55E-9446-45F2-B66C-3272698B0216";
name = "Light Condensed";
paths = (
{
closed = 1;
nodes = (
"140 25 OFFCURVE",
"106 103 OFFCURVE",
"106 225 CURVE SMOOTH",
"106 357 OFFCURVE",
"136 425 OFFCURVE",
"194 425 CURVE SMOOTH",
"250 425 OFFCURVE",
"276 361 OFFCURVE",
"276 224 CURVE SMOOTH",
"276 88 OFFCURVE",
"250 25 OFFCURVE",
"194 25 CURVE SMOOTH"
);
},
{
closed = 1;
nodes = (
"95 0 LINE",
"105 61 LINE",
"109 61 LINE",
"127 14 OFFCURVE",
"159 -10 OFFCURVE",
"203 -10 CURVE SMOOTH",
"279 -10 OFFCURVE",
"320 73 OFFCURVE",
"320 225 CURVE SMOOTH",
"320 385 OFFCURVE",
"281 460 OFFCURVE",
"198 460 CURVE SMOOTH",
"159 460 OFFCURVE",
"132 442 OFFCURVE",
"109 400 CURVE",
"105 400 LINE",
"105 665 LINE",
"0 665 LINE",
"0 640 LINE",
"38 640 LINE SMOOTH",
"57 640 OFFCURVE",
"65 631 OFFCURVE",
"65 608 CURVE SMOOTH",
"65 0 LINE"
);
}
);
width = 364;
},
{
layerId = "B25F85BC-C782-4067-8484-07202F80B8CD";
name = Condensed;
paths = (
{
closed = 1;
nodes = (
"213 85 OFFCURVE",
"198 130 OFFCURVE",
"198 225 CURVE SMOOTH",
"198 319 OFFCURVE",
"213 365 OFFCURVE",
"243 365 CURVE SMOOTH",
"273 365 OFFCURVE",
"286 324 OFFCURVE",
"286 225 CURVE SMOOTH",
"286 127 OFFCURVE",
"273 85 OFFCURVE",
"244 85 CURVE SMOOTH"
);
},
{
closed = 1;
nodes = (
"168 0 LINE",
"198 61 LINE",
"202 61 LINE",
"216 15 OFFCURVE",
"251 -10 OFFCURVE",
"301 -10 CURVE SMOOTH",
"390 -10 OFFCURVE",
"433 68 OFFCURVE",
"433 227 CURVE SMOOTH",
"433 385 OFFCURVE",
"391 460 OFFCURVE",
"301 460 CURVE SMOOTH",
"258 460 OFFCURVE",
"228 442 OFFCURVE",
"202 400 CURVE",
"198 400 LINE",
"198 665 LINE",
"3 665 LINE",
"3 585 LINE",
"41 585 LINE SMOOTH",
"60 585 OFFCURVE",
"68 576 OFFCURVE",
"68 553 CURVE SMOOTH",
"68 0 LINE"
);
}
);
width = 473;
},
{
layerId = "B817C739-5D48-43E8-AAEE-CE891513D7BC";
name = "Bold Condensed";
paths = (
{
closed = 1;
nodes = (
"227 120 OFFCURVE",
"220 151 OFFCURVE",
"220 233 CURVE SMOOTH",
"220 315 OFFCURVE",
"227 345 OFFCURVE",
"245 345 CURVE SMOOTH",
"263 345 OFFCURVE",
"269 319 OFFCURVE",
"269 235 CURVE SMOOTH",
"269 149 OFFCURVE",
"263 120 OFFCURVE",
"245 120 CURVE SMOOTH"
);
},
{
closed = 1;
nodes = (
"190 0 LINE",
"220 53 LINE",
"224 53 LINE",
"240 12 OFFCURVE",
"280 -12 OFFCURVE",
"332 -12 CURVE SMOOTH",
"424 -12 OFFCURVE",
"467 64 OFFCURVE",
"467 228 CURVE SMOOTH",
"467 398 OFFCURVE",
"421 477 OFFCURVE",
"322 477 CURVE SMOOTH",
"274 477 OFFCURVE",
"241 459 OFFCURVE",
"224 423 CURVE",
"220 423 LINE",
"220 665 LINE",
"2 665 LINE",
"2 557 LINE",
"12 557 LINE SMOOTH",
"34 557 OFFCURVE",
"44 547 OFFCURVE",
"44 525 CURVE SMOOTH",
"44 0 LINE"
);
}
);
width = 483;
},
{
layerId = UUID0;
name = "Light Extended";
paths = (
{
closed = 1;
nodes = (
"234 28 OFFCURVE",
"175 99 OFFCURVE",
"175 227 CURVE SMOOTH",
"175 354 OFFCURVE",
"233 422 OFFCURVE",
"341 422 CURVE SMOOTH",
"445 422 OFFCURVE",
"493 360 OFFCURVE",
"493 227 CURVE SMOOTH",
"493 93 OFFCURVE",
"444 28 OFFCURVE",
"341 28 CURVE SMOOTH"
);
},
{
closed = 1;
nodes = (
"164 0 LINE",
"174 70 LINE",
"178 70 LINE",
"213 18 OFFCURVE",
"271 -10 OFFCURVE",
"344 -10 CURVE SMOOTH",
"472 -10 OFFCURVE",
"542 73 OFFCURVE",
"542 226 CURVE SMOOTH",
"542 378 OFFCURVE",
"473 460 OFFCURVE",
"344 460 CURVE SMOOTH",
"266 460 OFFCURVE",
"211 430 OFFCURVE",
"178 370 CURVE",
"174 370 LINE",
"174 665 LINE",
"34 665 LINE",
"34 640 LINE",
"103 640 LINE SMOOTH",
"122 640 OFFCURVE",
"130 631 OFFCURVE",
"130 608 CURVE SMOOTH",
"130 0 LINE"
);
}
);
width = 602;
},
{
layerId = "4355E1B8-19E6-44BD-A1D7-6E3C2DECA4C8";
name = Extended;
paths = (
{
closed = 1;
nodes = (
"281 85 OFFCURVE",
"235 138 OFFCURVE",
"235 226 CURVE SMOOTH",
"235 313 OFFCURVE",
"279 365 OFFCURVE",
"353 365 CURVE SMOOTH",
"424 365 OFFCURVE",
"463 315 OFFCURVE",
"463 223 CURVE SMOOTH",
"463 133 OFFCURVE",
"426 85 OFFCURVE",
"356 85 CURVE SMOOTH"
);
},
{
closed = 1;
nodes = (
"205 0 LINE",
"235 81 LINE",
"239 81 LINE",
"265 24 OFFCURVE",
"328 -10 OFFCURVE",
"405 -10 CURVE SMOOTH",
"531 -10 OFFCURVE",
"606 77 OFFCURVE",
"606 224 CURVE SMOOTH",
"606 374 OFFCURVE",
"530 460 OFFCURVE",
"398 460 CURVE SMOOTH",
"324 460 OFFCURVE",
"271 433 OFFCURVE",
"239 380 CURVE",
"235 380 LINE",
"235 665 LINE",
"21 665 LINE",
"21 585 LINE",
"78 585 LINE SMOOTH",
"97 585 OFFCURVE",
"105 576 OFFCURVE",
"105 553 CURVE SMOOTH",
"105 0 LINE"
);
}
);
width = 652;
},
{
layerId = "14C77FDB-037D-4842-9381-6D9ED15DD48C";
name = "Bold Extended";
paths = (
{
closed = 1;
nodes = (
"324 158 OFFCURVE",
"301 190 OFFCURVE",
"301 240 CURVE SMOOTH",
"301 290 OFFCURVE",
"324 325 OFFCURVE",
"368 325 CURVE SMOOTH",
"410 325 OFFCURVE",
"437 292 OFFCURVE",
"437 240 CURVE SMOOTH",
"437 188 OFFCURVE",
"410 158 OFFCURVE",
"368 158 CURVE SMOOTH"
);
},
{
closed = 1;
nodes = (
"271 0 LINE",
"301 83 LINE",
"305 83 LINE",
"337 20 OFFCURVE",
"398 -10 OFFCURVE",
"475 -10 CURVE SMOOTH",
"581 -10 OFFCURVE",
"685 47 OFFCURVE",
"685 239 CURVE SMOOTH",
"685 398 OFFCURVE",
"613 490 OFFCURVE",
"475 490 CURVE SMOOTH",
"389 490 OFFCURVE",
"336 454 OFFCURVE",
"305 398 CURVE",
"301 398 LINE",
"301 665 LINE",
"-10 665 LINE",
"-10 523 LINE",
"42 523 LINE SMOOTH",
"64 523 OFFCURVE",
"71 516 OFFCURVE",
"71 494 CURVE SMOOTH",
"71 0 LINE"
);
}
);
width = 710;
}
);
unicode = 0062;
},
{
glyphname = c;
lastChange = "2015-03-25 19:45:24 +0000";
layers = (
{
layerId = "E9E6D55E-9446-45F2-B66C-3272698B0216";
name = "Light Condensed";
paths = (
{
closed = 1;
nodes = (
"117 24 OFFCURVE",
"88 91 OFFCURVE",
"88 227 CURVE SMOOTH",
"88 362 OFFCURVE",
"117 426 OFFCURVE",
"179 426 CURVE SMOOTH",
"214 426 OFFCURVE",
"236 406 OFFCURVE",
"236 375 CURVE SMOOTH",
"236 346 OFFCURVE",
"215 344 OFFCURVE",
"215 317 CURVE SMOOTH",
"215 297 OFFCURVE",
"227 285 OFFCURVE",
"245 285 CURVE SMOOTH",
"269 285 OFFCURVE",
"284 308 OFFCURVE",
"284 348 CURVE SMOOTH",
"284 415 OFFCURVE",
"243 460 OFFCURVE",
"180 460 CURVE SMOOTH",
"94 460 OFFCURVE",
"44 377 OFFCURVE",
"44 223 CURVE SMOOTH",
"44 80 OFFCURVE",
"87 -10 OFFCURVE",
"173 -10 CURVE SMOOTH",
"248 -10 OFFCURVE",
"288 60 OFFCURVE",
"288 182 CURVE",
"255 182 LINE",
"252 74 OFFCURVE",
"227 24 OFFCURVE",
"176 24 CURVE SMOOTH"
);
}
);
width = 332;
},
{
layerId = "B25F85BC-C782-4067-8484-07202F80B8CD";
name = Condensed;
paths = (
{
closed = 1;
nodes = (
"171 80 OFFCURVE",
"158 117 OFFCURVE",
"158 222 CURVE SMOOTH",
"158 333 OFFCURVE",
"172 369 OFFCURVE",
"213 369 CURVE SMOOTH",
"237 369 OFFCURVE",
"251 358 OFFCURVE",
"251 337 CURVE SMOOTH",
"251 316 OFFCURVE",
"236 310 OFFCURVE",
"236 284 CURVE SMOOTH",
"236 253 OFFCURVE",
"259 233 OFFCURVE",
"294 233 CURVE SMOOTH",
"337 233 OFFCURVE",
"361 263 OFFCURVE",
"361 316 CURVE SMOOTH",
"361 403 OFFCURVE",
"298 460 OFFCURVE",
"204 460 CURVE SMOOTH",
"88 460 OFFCURVE",
"22 373 OFFCURVE",
"22 221 CURVE SMOOTH",
"22 72 OFFCURVE",
"86 -10 OFFCURVE",
"202 -10 CURVE SMOOTH",
"308 -10 OFFCURVE",
"365 58 OFFCURVE",
"365 182 CURVE",
"257 182 LINE",
"252 103 OFFCURVE",
"241 80 OFFCURVE",
"209 80 CURVE SMOOTH"
);
}
);
width = 383;
},
{
layerId = "B817C739-5D48-43E8-AAEE-CE891513D7BC";
name = "Bold Condensed";
paths = (
{
closed = 1;
nodes = (
"197 110 OFFCURVE",
"188 137 OFFCURVE",
"188 232 CURVE SMOOTH",
"188 326 OFFCURVE",
"197 355 OFFCURVE",
"225 355 CURVE SMOOTH",
"243 355 OFFCURVE",
"254 343 OFFCURVE",
"254 322 CURVE SMOOTH",
"254 299 OFFCURVE",
"241 292 OFFCURVE",
"241 267 CURVE SMOOTH",
"241 231 OFFCURVE",
"269 206 OFFCURVE",
"321 206 CURVE SMOOTH",
"383 206 OFFCURVE",
"411 240 OFFCURVE",
"411 305 CURVE SMOOTH",
"411 411 OFFCURVE",
"336 478 OFFCURVE",
"219 478 CURVE SMOOTH",
"84 478 OFFCURVE",
"8 388 OFFCURVE",
"8 228 CURVE SMOOTH",
"8 71 OFFCURVE",
"81 -12 OFFCURVE",
"220 -12 CURVE SMOOTH",
"346 -12 OFFCURVE",
"415 56 OFFCURVE",
"415 180 CURVE",
"267 180 LINE",
"265 128 OFFCURVE",
"255 110 OFFCURVE",
"229 110 CURVE SMOOTH"
);
}
);
width = 427;
},
{
layerId = UUID0;
name = "Light Extended";
paths = (
{
closed = 1;
nodes = (
"156 27 OFFCURVE",
"104 91 OFFCURVE",
"104 226 CURVE SMOOTH",
"104 361 OFFCURVE",
"155 423 OFFCURVE",
"267 423 CURVE SMOOTH",
"336 423 OFFCURVE",
"381 399 OFFCURVE",
"381 358 CURVE SMOOTH",
"381 330 OFFCURVE",
"360 326 OFFCURVE",
"360 300 CURVE SMOOTH",
"360 280 OFFCURVE",
"372 268 OFFCURVE",
"390 268 CURVE SMOOTH",
"414 268 OFFCURVE",
"429 291 OFFCURVE",
"429 330 CURVE SMOOTH",
"429 410 OFFCURVE",
"366 460 OFFCURVE",
"265 460 CURVE SMOOTH",
"133 460 OFFCURVE",
"59 374 OFFCURVE",
"59 222 CURVE SMOOTH",
"59 74 OFFCURVE",
"130 -10 OFFCURVE",
"255 -10 CURVE SMOOTH",
"369 -10 OFFCURVE",
"433 59 OFFCURVE",
"433 182 CURVE",
"400 182 LINE",
"397 76 OFFCURVE",
"351 27 OFFCURVE",
"260 27 CURVE SMOOTH"
);
}
);
width = 492;
},
{
layerId = "4355E1B8-19E6-44BD-A1D7-6E3C2DECA4C8";
name = Extended;
paths = (
{
closed = 1;
nodes = (
"223 80 OFFCURVE",
"186 126 OFFCURVE",
"186 227 CURVE SMOOTH",
"186 326 OFFCURVE",
"222 369 OFFCURVE",
"306 369 CURVE SMOOTH",
"356 369 OFFCURVE",
"379 354 OFFCURVE",
"379 331 CURVE SMOOTH",
"379 313 OFFCURVE",
"364 302 OFFCURVE",
"364 277 CURVE SMOOTH",
"364 249 OFFCURVE",
"384 223 OFFCURVE",
"430 223 CURVE SMOOTH",
"481 223 OFFCURVE",
"509 255 OFFCURVE",
"509 306 CURVE SMOOTH",
"509 397 OFFCURVE",
"422 460 OFFCURVE",
"296 460 CURVE SMOOTH",
"144 460 OFFCURVE",
"50 369 OFFCURVE",
"50 222 CURVE SMOOTH",
"50 76 OFFCURVE",
"143 -10 OFFCURVE",
"294 -10 CURVE SMOOTH",
"432 -10 OFFCURVE",
"513 61 OFFCURVE",
"513 182 CURVE",
"405 182 LINE",
"397 110 OFFCURVE",
"367 80 OFFCURVE",
"303 80 CURVE SMOOTH"
);
}
);
width = 561;
},
{
layerId = "14C77FDB-037D-4842-9381-6D9ED15DD48C";
name = "Bold Extended";
paths = (
{
closed = 1;
nodes = (
"275 124 OFFCURVE",
"248 159 OFFCURVE",
"248 240 CURVE SMOOTH",
"248 319 OFFCURVE",
"274 359 OFFCURVE",
"327 359 CURVE SMOOTH",
"366 359 OFFCURVE",
"399 336 OFFCURVE",
"399 310 CURVE SMOOTH",
"399 294 OFFCURVE",
"386 288 OFFCURVE",
"386 268 CURVE SMOOTH",
"386 233 OFFCURVE",
"421 213 OFFCURVE",
"479 213 CURVE SMOOTH",
"553 213 OFFCURVE",
"591 245 OFFCURVE",
"591 308 CURVE SMOOTH",
"591 416 OFFCURVE",
"478 490 OFFCURVE",
"312 490 CURVE SMOOTH",
"126 490 OFFCURVE",
"18 396 OFFCURVE",
"18 235 CURVE SMOOTH",
"18 76 OFFCURVE",
"125 -10 OFFCURVE",
"322 -10 CURVE SMOOTH",
"498 -10 OFFCURVE",
"595 57 OFFCURVE",
"595 180 CURVE",
"422 180 LINE",
"412 143 OFFCURVE",
"383 124 OFFCURVE",
"338 124 CURVE SMOOTH"
);
}
);
width = 611;
}
);
unicode = 0063;
},
{
glyphname = d;
lastChange = "2015-03-09 06:55:59 +0000";
layers = (
{
layerId = UUID0;
name = "Light Extended";
paths = (
{
closed = 1;
nodes = (
"332 -10 OFFCURVE",
"379 18 OFFCURVE",
"418 81 CURVE",
"422 81 LINE",
"422 0 LINE",
"562 0 LINE",
"562 27 LINE",
"489 27 LINE SMOOTH",
"471 27 OFFCURVE",
"466 40 OFFCURVE",
"466 58 CURVE SMOOTH",
"466 665 LINE",
"305 665 LINE",
"305 638 LINE",
"387 638 LINE SMOOTH",
"409 638 OFFCURVE",
"422 626 OFFCURVE",
"422 601 CURVE SMOOTH",
"422 378 LINE",
"418 378 LINE",
"377 433 OFFCURVE",
"326 460 OFFCURVE",
"252 460 CURVE SMOOTH",
"126 460 OFFCURVE",
"54 378 OFFCURVE",
"54 224 CURVE SMOOTH",
"54 62 OFFCURVE",
"133 -10 OFFCURVE",
"255 -10 CURVE SMOOTH"
);
},
{
closed = 1;
nodes = (
"148 28 OFFCURVE",
"103 94 OFFCURVE",
"103 220 CURVE SMOOTH",
"103 357 OFFCURVE",
"155 422 OFFCURVE",
"261 422 CURVE SMOOTH",
"339 422 OFFCURVE",
"421 378 OFFCURVE",
"421 224 CURVE SMOOTH",
"421 93 OFFCURVE",
"359 28 OFFCURVE",
"258 28 CURVE SMOOTH"
);
}
);
width = 597;
},
{
background = {
paths = (
{
closed = 1;
nodes = (
"626 80 LINE",
"565 80 LINE SMOOTH",
"547 80 OFFCURVE",
"542 91 OFFCURVE",
"542 107 CURVE SMOOTH",
"542 665 LINE",
"307 665 LINE",
"307 585 LINE",
"377 585 LINE SMOOTH",
"405 585 OFFCURVE",
"412 572 OFFCURVE",
"412 544 CURVE SMOOTH",
"412 379 LINE",
"408 379 LINE",
"377 436 OFFCURVE",
"319 460 OFFCURVE",
"248 460 CURVE SMOOTH",
"126 460 OFFCURVE",
"41 388 OFFCURVE",
"41 223 CURVE SMOOTH",
"41 54 OFFCURVE",
"130 -10 OFFCURVE",
"242 -10 CURVE SMOOTH",
"322 -10 OFFCURVE",
"375 22 OFFCURVE",
"408 82 CURVE",
"412 82 LINE",
"412 0 LINE",
"626 0 LINE"
);
},
{
closed = 1;
nodes = (
"230 85 OFFCURVE",
"184 119 OFFCURVE",
"184 223 CURVE SMOOTH",
"184 330 OFFCURVE",
"232 365 OFFCURVE",
"301 365 CURVE SMOOTH",
"372 365 OFFCURVE",
"412 329 OFFCURVE",
"412 227 CURVE SMOOTH",
"412 115 OFFCURVE",
"364 85 OFFCURVE",
"298 85 CURVE SMOOTH"
);
}
);
};
layerId = "4355E1B8-19E6-44BD-A1D7-6E3C2DECA4C8";
name = Extended;
paths = (
{
closed = 1;
nodes = (
"320 -10 OFFCURVE",
"373 19 OFFCURVE",
"408 82 CURVE",
"412 82 LINE",
"412 0 LINE",
"626 0 LINE",
"626 80 LINE",
"565 80 LINE SMOOTH",
"547 80 OFFCURVE",
"542 91 OFFCURVE",
"542 107 CURVE SMOOTH",
"542 665 LINE",
"307 665 LINE",
"307 585 LINE",
"377 585 LINE SMOOTH",
"405 585 OFFCURVE",
"412 572 OFFCURVE",
"412 544 CURVE SMOOTH",
"412 379 LINE",
"408 379 LINE",
"375 438 OFFCURVE",
"320 460 OFFCURVE",
"253 460 CURVE SMOOTH",
"129 460 OFFCURVE",
"41 385 OFFCURVE",
"41 223 CURVE SMOOTH",
"41 57 OFFCURVE",
"133 -10 OFFCURVE",
"246 -10 CURVE SMOOTH"
);
},
{
closed = 1;
nodes = (
"230 85 OFFCURVE",
"184 117 OFFCURVE",
"184 223 CURVE SMOOTH",
"184 331 OFFCURVE",
"232 365 OFFCURVE",
"300 365 CURVE SMOOTH",
"362 365 OFFCURVE",
"412 317 OFFCURVE",
"412 227 CURVE SMOOTH",
"412 127 OFFCURVE",
"354 85 OFFCURVE",
"297 85 CURVE SMOOTH"
);
}
);
width = 660;
},
{
background = {
paths = (
{
closed = 1;
nodes = (
"319 -10 OFFCURVE",
"370 38 OFFCURVE",
"402 83 CURVE",
"406 83 LINE",
"406 0 LINE",
"710 0 LINE",
"710 142 LINE",
"659 142 LINE SMOOTH",
"641 142 OFFCURVE",
"636 151 OFFCURVE",
"636 164 CURVE SMOOTH",
"636 665 LINE",
"306 665 LINE",
"306 523 LINE",
"379 523 LINE SMOOTH",
"397 523 OFFCURVE",
"406 519 OFFCURVE",
"406 482 CURVE SMOOTH",
"406 418 LINE",
"402 418 LINE",
"390 444 OFFCURVE",
"340 493 OFFCURVE",
"238 493 CURVE SMOOTH",
"116 493 OFFCURVE",
"21 422 OFFCURVE",
"21 233 CURVE SMOOTH",
"21 54 OFFCURVE",
"106 -10 OFFCURVE",
"220 -10 CURVE SMOOTH"
);
},
{
closed = 1;
nodes = (
"304 158 OFFCURVE",
"271 179 OFFCURVE",
"271 237 CURVE SMOOTH",
"271 289 OFFCURVE",
"297 325 OFFCURVE",
"341 325 CURVE SMOOTH",
"398 325 OFFCURVE",
"406 277 OFFCURVE",
"406 240 CURVE SMOOTH",
"406 184 OFFCURVE",
"387 158 OFFCURVE",
"339 158 CURVE SMOOTH"
);
}
);
};
layerId = "14C77FDB-037D-4842-9381-6D9ED15DD48C";
name = "Bold Extended";
paths = (
{
closed = 1;
nodes = (
"317 -10 OFFCURVE",
"374 31 OFFCURVE",
"402 83 CURVE",
"406 83 LINE",
"406 0 LINE",
"717 0 LINE",
"717 142 LINE",
"662 142 LINE SMOOTH",
"642 142 OFFCURVE",
"636 149 OFFCURVE",
"636 177 CURVE SMOOTH",
"636 665 LINE",
"306 665 LINE",
"306 523 LINE",
"380 523 LINE SMOOTH",
"400 523 OFFCURVE",
"406 516 OFFCURVE",
"406 488 CURVE SMOOTH",
"406 398 LINE",
"402 398 LINE",
"374 450 OFFCURVE",
"318 490 OFFCURVE",
"238 490 CURVE SMOOTH",
"118 490 OFFCURVE",
"22 426 OFFCURVE",
"22 240 CURVE SMOOTH",
"22 54 OFFCURVE",
"117 -10 OFFCURVE",
"237 -10 CURVE SMOOTH"
);
},
{
closed = 1;
nodes = (
"298 158 OFFCURVE",
"270 188 OFFCURVE",
"270 240 CURVE SMOOTH",
"270 292 OFFCURVE",
"298 325 OFFCURVE",
"338 325 CURVE SMOOTH",
"384 325 OFFCURVE",
"406 290 OFFCURVE",
"406 240 CURVE SMOOTH",
"406 190 OFFCURVE",
"384 158 OFFCURVE",
"338 158 CURVE SMOOTH"
);
}
);
width = 722;
},
{
background = {
paths = (
{
closed = 1;
nodes = (
"199 -10 OFFCURVE",
"236 5 OFFCURVE",
"256 61 CURVE",
"260 61 LINE",
"260 0 LINE",
"366 0 LINE",
"366 25 LINE",
"327 25 LINE SMOOTH",
"307 25 OFFCURVE",
"300 35 OFFCURVE",
"300 57 CURVE SMOOTH",
"300 665 LINE",
"185 665 LINE",
"185 640 LINE",
"233 640 LINE SMOOTH",
"253 640 OFFCURVE",
"260 630 OFFCURVE",
"260 608 CURVE SMOOTH",
"260 400 LINE",
"256 400 LINE",
"232 445 OFFCURVE",
"210 460 OFFCURVE",
"167 460 CURVE SMOOTH",
"84 460 OFFCURVE",
"45 385 OFFCURVE",
"45 225 CURVE SMOOTH",
"45 71 OFFCURVE",
"87 -10 OFFCURVE",
"162 -10 CURVE SMOOTH"
);
},
{
closed = 1;
nodes = (
"115 25 OFFCURVE",
"89 88 OFFCURVE",
"89 224 CURVE SMOOTH",
"89 360 OFFCURVE",
"115 425 OFFCURVE",
"171 425 CURVE SMOOTH",
"222 425 OFFCURVE",
"259 372 OFFCURVE",
"259 225 CURVE SMOOTH",
"259 87 OFFCURVE",
"217 25 OFFCURVE",
"171 25 CURVE SMOOTH"
);
}
);
};
layerId = "E9E6D55E-9446-45F2-B66C-3272698B0216";
name = "Light Condensed";
paths = (
{
closed = 1;
nodes = (
"197 -10 OFFCURVE",
"234 5 OFFCURVE",
"256 61 CURVE",
"260 61 LINE",
"260 0 LINE",
"366 0 LINE",
"366 25 LINE",
"327 25 LINE SMOOTH",
"307 25 OFFCURVE",
"300 35 OFFCURVE",
"300 57 CURVE SMOOTH",
"300 665 LINE",
"185 665 LINE",
"185 640 LINE",
"233 640 LINE SMOOTH",
"253 640 OFFCURVE",
"260 630 OFFCURVE",
"260 608 CURVE SMOOTH",
"260 400 LINE",
"256 400 LINE",
"230 445 OFFCURVE",
"208 460 OFFCURVE",
"167 460 CURVE SMOOTH",
"84 460 OFFCURVE",
"45 385 OFFCURVE",
"45 225 CURVE SMOOTH",
"45 71 OFFCURVE",
"87 -10 OFFCURVE",
"162 -10 CURVE SMOOTH"
);
},
{
closed = 1;
nodes = (
"115 25 OFFCURVE",
"89 88 OFFCURVE",
"89 224 CURVE SMOOTH",
"89 360 OFFCURVE",
"115 425 OFFCURVE",
"171 425 CURVE SMOOTH",
"218 425 OFFCURVE",
"259 382 OFFCURVE",
"259 225 CURVE SMOOTH",
"259 77 OFFCURVE",
"213 25 OFFCURVE",
"171 25 CURVE SMOOTH"
);
}
);
width = 376;
},
{
layerId = "B25F85BC-C782-4067-8484-07202F80B8CD";
name = Condensed;
paths = (
{
closed = 1;
nodes = (
"208 -10 OFFCURVE",
"239 8 OFFCURVE",
"259 54 CURVE",
"263 54 LINE",
"263 0 LINE",
"452 0 LINE",
"452 80 LINE",
"418 80 LINE SMOOTH",
"398 80 OFFCURVE",
"393 93 OFFCURVE",
"393 113 CURVE SMOOTH",
"393 665 LINE",
"198 665 LINE",
"198 585 LINE",
"238 585 LINE SMOOTH",
"258 585 OFFCURVE",
"263 572 OFFCURVE",
"263 552 CURVE SMOOTH",
"263 396 LINE",
"259 396 LINE",
"239 442 OFFCURVE",
"208 460 OFFCURVE",
"158 460 CURVE SMOOTH",
"70 460 OFFCURVE",
"27 385 OFFCURVE",
"27 225 CURVE SMOOTH",
"27 65 OFFCURVE",
"72 -10 OFFCURVE",
"158 -10 CURVE SMOOTH"
);
},
{
closed = 1;
nodes = (
"189 85 OFFCURVE",
"175 115 OFFCURVE",
"175 225 CURVE SMOOTH",
"175 335 OFFCURVE",
"189 365 OFFCURVE",
"219 365 CURVE SMOOTH",
"245 365 OFFCURVE",
"263 335 OFFCURVE",
"263 225 CURVE SMOOTH",
"263 115 OFFCURVE",
"245 85 OFFCURVE",
"219 85 CURVE SMOOTH"
);
}
);
width = 468;
},
{
background = {
paths = (
{
closed = 1;
nodes = (
"205 -12 OFFCURVE",
"235 14 OFFCURVE",
"255 53 CURVE",
"259 53 LINE",
"259 0 LINE",
"473 0 LINE",
"473 108 LINE",
"458 108 LINE SMOOTH",
"440 108 OFFCURVE",
"435 118 OFFCURVE",
"435 133 CURVE SMOOTH",
"435 665 LINE",
"198 665 LINE",
"198 557 LINE",
"228 557 LINE SMOOTH",
"253 557 OFFCURVE",
"259 548 OFFCURVE",
"259 516 CURVE SMOOTH",
"259 422 LINE",
"255 422 LINE",
"242 451 OFFCURVE",
"215 477 OFFCURVE",
"159 477 CURVE SMOOTH",
"65 477 OFFCURVE",
"12 406 OFFCURVE",
"12 225 CURVE SMOOTH",
"12 52 OFFCURVE",
"60 -12 OFFCURVE",
"149 -12 CURVE SMOOTH"
);
},
{
closed = 1;
nodes = (
"218 120 OFFCURVE",
"210 135 OFFCURVE",
"210 235 CURVE SMOOTH",
"210 335 OFFCURVE",
"218 345 OFFCURVE",
"236 345 CURVE SMOOTH",
"254 345 OFFCURVE",
"259 335 OFFCURVE",
"259 235 CURVE SMOOTH",
"259 135 OFFCURVE",
"254 120 OFFCURVE",
"236 120 CURVE SMOOTH"
);
},
{
closed = 1;
nodes = (
"205 -12 OFFCURVE",
"235 14 OFFCURVE",
"255 53 CURVE",
"259 53 LINE",
"259 0 LINE",
"473 0 LINE",
"473 108 LINE",
"458 108 LINE SMOOTH",
"440 108 OFFCURVE",
"435 118 OFFCURVE",
"435 133 CURVE SMOOTH",
"435 665 LINE",
"198 665 LINE",
"198 557 LINE",
"228 557 LINE SMOOTH",
"253 557 OFFCURVE",
"259 548 OFFCURVE",
"259 516 CURVE SMOOTH",
"259 422 LINE",
"255 422 LINE",
"242 451 OFFCURVE",
"215 477 OFFCURVE",
"159 477 CURVE SMOOTH",
"65 477 OFFCURVE",
"12 406 OFFCURVE",
"12 225 CURVE SMOOTH",
"12 52 OFFCURVE",
"60 -12 OFFCURVE",
"149 -12 CURVE SMOOTH"
);
},
{
closed = 1;
nodes = (
"218 120 OFFCURVE",
"210 135 OFFCURVE",
"210 235 CURVE SMOOTH",
"210 335 OFFCURVE",
"218 345 OFFCURVE",
"236 345 CURVE SMOOTH",
"254 345 OFFCURVE",
"259 335 OFFCURVE",
"259 235 CURVE SMOOTH",
"259 135 OFFCURVE",
"254 120 OFFCURVE",
"236 120 CURVE SMOOTH"
);
}
);
};
layerId = "B817C739-5D48-43E8-AAEE-CE891513D7BC";
name = "Bold Condensed";
paths = (
{
closed = 1;
nodes = (
"205 -12 OFFCURVE",
"235 14 OFFCURVE",
"255 53 CURVE",
"259 53 LINE",
"259 0 LINE",
"473 0 LINE",
"473 108 LINE",
"458 108 LINE SMOOTH",
"440 108 OFFCURVE",
"435 118 OFFCURVE",
"435 133 CURVE SMOOTH",
"435 665 LINE",
"198 665 LINE",
"198 557 LINE",
"228 557 LINE SMOOTH",
"253 557 OFFCURVE",
"259 548 OFFCURVE",
"259 516 CURVE SMOOTH",
"259 422 LINE",
"255 422 LINE",
"242 451 OFFCURVE",
"215 477 OFFCURVE",
"158 477 CURVE SMOOTH",
"63 477 OFFCURVE",
"12 406 OFFCURVE",
"12 228 CURVE SMOOTH",
"12 52 OFFCURVE",
"62 -12 OFFCURVE",
"149 -12 CURVE SMOOTH"
);
},
{
closed = 1;
nodes = (
"220 120 OFFCURVE",
"210 136 OFFCURVE",
"210 235 CURVE SMOOTH",
"210 333 OFFCURVE",
"221 345 OFFCURVE",
"235 345 CURVE SMOOTH",
"251 345 OFFCURVE",
"259 330 OFFCURVE",
"259 235 CURVE SMOOTH",
"259 139 OFFCURVE",
"251 120 OFFCURVE",
"235 120 CURVE SMOOTH"
);
}
);
width = 482;
}
);
unicode = 0064;
},
{
glyphname = e;
lastChange = "2015-03-25 19:17:24 +0000";
layers = (
{
layerId = UUID0;
name = "Light Extended";
paths = (
{
closed = 1;
nodes = (
"386 -10 OFFCURVE",
"464 57 OFFCURVE",
"464 175 CURVE",
"427 175 LINE",
"425 82 OFFCURVE",
"370 26 OFFCURVE",
"267 26 CURVE SMOOTH",
"163 26 OFFCURVE",
"105 83 OFFCURVE",
"104 221 CURVE",
"462 221 LINE",
"463 230 OFFCURVE",
"464 240 OFFCURVE",
"464 257 CURVE SMOOTH",
"464 383 OFFCURVE",
"388 460 OFFCURVE",
"268 460 CURVE SMOOTH",
"141 460 OFFCURVE",
"59 376 OFFCURVE",
"59 224 CURVE SMOOTH",
"59 76 OFFCURVE",
"136 -10 OFFCURVE",
"269 -10 CURVE SMOOTH"
);
},
{
closed = 1;
nodes = (
"105 254 LINE",
"113 372 OFFCURVE",
"169 424 OFFCURVE",
"266 424 CURVE SMOOTH",
"369 424 OFFCURVE",
"421 365 OFFCURVE",
"421 254 CURVE"
);
}
);
width = 523;
},
{
background = {
paths = (
{
closed = 1;
nodes = (
"475 -10 OFFCURVE",
"558 87 OFFCURVE",
"558 225 CURVE SMOOTH",
"558 363 OFFCURVE",
"476 460 OFFCURVE",
"304 460 CURVE SMOOTH",
"132 460 OFFCURVE",
"50 363 OFFCURVE",
"50 225 CURVE SMOOTH",
"50 87 OFFCURVE",
"131 -10 OFFCURVE",
"303 -10 CURVE SMOOTH"
);
},
{
closed = 1;
nodes = (
"221 85 OFFCURVE",
"189 140 OFFCURVE",
"189 224 CURVE SMOOTH",
"189 309 OFFCURVE",
"221 365 OFFCURVE",
"304 365 CURVE SMOOTH",
"386 365 OFFCURVE",
"418 309 OFFCURVE",
"418 224 CURVE SMOOTH",
"418 140 OFFCURVE",
"386 85 OFFCURVE",
"304 85 CURVE SMOOTH"
);
}
);
};
layerId = "4355E1B8-19E6-44BD-A1D7-6E3C2DECA4C8";
name = Extended;
paths = (
{
closed = 1;
nodes = (
"450 -10 OFFCURVE",
"535 75 OFFCURVE",
"535 175 CURVE",
"413 175 LINE",
"413 116 OFFCURVE",
"372 80 OFFCURVE",
"304 80 CURVE SMOOTH",
"232 80 OFFCURVE",
"195 120 OFFCURVE",
"188 201 CURVE",
"533 201 LINE",
"534 220 OFFCURVE",
"535 231 OFFCURVE",
"535 245 CURVE SMOOTH",
"535 371 OFFCURVE",
"449 460 OFFCURVE",
"298 460 CURVE SMOOTH",
"139 460 OFFCURVE",
"50 362 OFFCURVE",
"50 226 CURVE SMOOTH",
"50 87 OFFCURVE",
"142 -10 OFFCURVE",
"301 -10 CURVE SMOOTH"
);
},
{
closed = 1;
nodes = (
"189 268 LINE",
"198 337 OFFCURVE",
"235 369 OFFCURVE",
"304 369 CURVE SMOOTH",
"361 369 OFFCURVE",
"399 347 OFFCURVE",
"405 268 CURVE"
);
}
);
width = 579;
},
{
background = {
paths = (
{
closed = 1;
nodes = (
"488 -10 OFFCURVE",
"604 41 OFFCURVE",
"625 181 CURVE",
"404 181 LINE",
"392 151 OFFCURVE",
"371 138 OFFCURVE",
"335 138 CURVE SMOOTH",
"290 138 OFFCURVE",
"269 157 OFFCURVE",
"264 205 CURVE",
"630 205 LINE",
"630 239 LINE SMOOTH",
"630 413 OFFCURVE",
"514 490 OFFCURVE",
"333 490 CURVE SMOOTH",
"132 490 OFFCURVE",
"18 409 OFFCURVE",
"18 239 CURVE SMOOTH",
"18 69 OFFCURVE",
"137 -10 OFFCURVE",
"326 -10 CURVE SMOOTH"
);
},
{
closed = 1;
nodes = (
"264 277 LINE",
"264 318 OFFCURVE",
"288 347 OFFCURVE",
"328 347 CURVE SMOOTH",
"368 347 OFFCURVE",
"390 317 OFFCURVE",
"390 277 CURVE"
);
}
);
};
layerId = "14C77FDB-037D-4842-9381-6D9ED15DD48C";
name = "Bold Extended";
paths = (
{
closed = 1;
nodes = (
"478 -10 OFFCURVE",
"586 41 OFFCURVE",
"605 181 CURVE",
"421 181 LINE",
"414 146 OFFCURVE",
"382 124 OFFCURVE",
"338 124 CURVE SMOOTH",
"288 124 OFFCURVE",
"256 153 OFFCURVE",
"250 205 CURVE",
"610 205 LINE",
"610 216 OFFCURVE",
"610 228 OFFCURVE",
"610 239 CURVE SMOOTH",
"610 413 OFFCURVE",
"502 490 OFFCURVE",
"333 490 CURVE SMOOTH",
"132 490 OFFCURVE",
"18 409 OFFCURVE",
"18 239 CURVE SMOOTH",
"18 69 OFFCURVE",
"137 -10 OFFCURVE",
"326 -10 CURVE SMOOTH"
);
},
{
closed = 1;
nodes = (
"250 277 LINE",
"250 324 OFFCURVE",
"283 359 OFFCURVE",
"328 359 CURVE SMOOTH",
"372 359 OFFCURVE",
"402 325 OFFCURVE",
"402 277 CURVE"
);
}
);
width = 626;
},
{
background = {
paths = (
{
closed = 1;
nodes = (
"268 -10 OFFCURVE",
"320 75 OFFCURVE",
"320 225 CURVE SMOOTH",
"320 375 OFFCURVE",
"268 460 OFFCURVE",
"182 460 CURVE SMOOTH",
"96 460 OFFCURVE",
"44 375 OFFCURVE",
"44 225 CURVE SMOOTH",
"44 75 OFFCURVE",
"96 -10 OFFCURVE",
"182 -10 CURVE SMOOTH"
);
},
{
closed = 1;
nodes = (
"123 25 OFFCURVE",
"88 79 OFFCURVE",
"88 225 CURVE SMOOTH",
"88 371 OFFCURVE",
"123 425 OFFCURVE",
"182 425 CURVE SMOOTH",
"242 425 OFFCURVE",
"276 371 OFFCURVE",
"276 225 CURVE SMOOTH",
"276 79 OFFCURVE",
"242 25 OFFCURVE",
"182 25 CURVE SMOOTH"
);
}
);
};
layerId = "E9E6D55E-9446-45F2-B66C-3272698B0216";
name = "Light Condensed";
paths = (
{
closed = 1;
nodes = (
"255 -10 OFFCURVE",
"302 56 OFFCURVE",
"302 175 CURVE",
"269 175 LINE",
"267 80 OFFCURVE",
"241 24 OFFCURVE",
"179 24 CURVE SMOOTH",
"123 24 OFFCURVE",
"87 81 OFFCURVE",
"87 222 CURVE",
"301 222 LINE",
"302 230 OFFCURVE",
"302 240 OFFCURVE",
"302 258 CURVE SMOOTH",
"302 384 OFFCURVE",
"257 460 OFFCURVE",
"180 460 CURVE SMOOTH",
"99 460 OFFCURVE",
"44 377 OFFCURVE",
"44 223 CURVE SMOOTH",
"44 76 OFFCURVE",
"93 -10 OFFCURVE",
"179 -10 CURVE SMOOTH"
);
},
{
closed = 1;
nodes = (
"88 250 LINE",
"91 375 OFFCURVE",
"128 426 OFFCURVE",
"180 426 CURVE SMOOTH",
"239 426 OFFCURVE",
"263 355 OFFCURVE",
"263 250 CURVE"
);
}
);
width = 346;
},
{
background = {
paths = (
{
closed = 1;
nodes = (
"311 -10 OFFCURVE",
"381 61 OFFCURVE",
"381 175 CURVE",
"267 175 LINE",
"267 114 OFFCURVE",
"248 80 OFFCURVE",
"212 80 CURVE SMOOTH",
"176 80 OFFCURVE",
"160 110 OFFCURVE",
"160 201 CURVE",
"381 201 LINE",
"383 219 OFFCURVE",
"383 230 OFFCURVE",
"383 247 CURVE SMOOTH",
"383 383 OFFCURVE",
"320 460 OFFCURVE",
"211 460 CURVE SMOOTH",
"89 460 OFFCURVE",
"22 376 OFFCURVE",
"22 223 CURVE SMOOTH",
"22 73 OFFCURVE",
"87 -10 OFFCURVE",
"203 -10 CURVE SMOOTH"
);
},
{
closed = 1;
nodes = (
"160 268 LINE",
"160 346 OFFCURVE",
"179 369 OFFCURVE",
"211 369 CURVE SMOOTH",
"243 369 OFFCURVE",
"258 346 OFFCURVE",
"258 268 CURVE"
);
}
);
};
layerId = "B25F85BC-C782-4067-8484-07202F80B8CD";
name = Condensed;
paths = (
{
closed = 1;
nodes = (
"315 -10 OFFCURVE",
"381 61 OFFCURVE",
"381 175 CURVE",
"267 175 LINE",
"267 113 OFFCURVE",
"248 80 OFFCURVE",
"211 80 CURVE SMOOTH",
"176 80 OFFCURVE",
"160 111 OFFCURVE",
"160 201 CURVE",
"381 201 LINE",
"383 219 OFFCURVE",
"383 230 OFFCURVE",
"383 247 CURVE SMOOTH",
"383 383 OFFCURVE",
"323 460 OFFCURVE",
"210 460 CURVE SMOOTH",
"93 460 OFFCURVE",
"22 377 OFFCURVE",
"22 223 CURVE SMOOTH",
"22 73 OFFCURVE",
"89 -10 OFFCURVE",
"206 -10 CURVE SMOOTH"
);
},
{
closed = 1;
nodes = (
"160 268 LINE",
"160 346 OFFCURVE",
"179 369 OFFCURVE",
"211 369 CURVE SMOOTH",
"243 369 OFFCURVE",
"258 346 OFFCURVE",
"258 268 CURVE"
);
}
);
width = 408;
},
{
background = {
paths = (
{
closed = 1;
nodes = (
"348 -10 OFFCURVE",
"417 59 OFFCURVE",
"425 171 CURVE",
"264 171 LINE",
"264 137 OFFCURVE",
"256 112 OFFCURVE",
"228 112 CURVE SMOOTH",
"199 112 OFFCURVE",
"189 139 OFFCURVE",
"189 206 CURVE",
"426 206 LINE",
"427 216 OFFCURVE",
"427 221 OFFCURVE",
"427 246 CURVE SMOOTH",
"427 396 OFFCURVE",
"361 475 OFFCURVE",
"224 475 CURVE SMOOTH",
"82 475 OFFCURVE",
"8 391 OFFCURVE",
"8 230 CURVE SMOOTH",
"8 72 OFFCURVE",
"80 -10 OFFCURVE",
"220 -10 CURVE SMOOTH"
);
},
{
closed = 1;
nodes = (
"191 284 LINE",
"192 337 OFFCURVE",
"202 353 OFFCURVE",
"222 353 CURVE SMOOTH",
"244 353 OFFCURVE",
"251 333 OFFCURVE",
"251 284 CURVE"
);
}
);
};
layerId = "B817C739-5D48-43E8-AAEE-CE891513D7BC";
name = "Bold Condensed";
paths = (
{
closed = 1;
nodes = (
"348 -12 OFFCURVE",
"418 59 OFFCURVE",
"426 171 CURVE",
"266 171 LINE",
"266 137 OFFCURVE",
"256 110 OFFCURVE",
"228 110 CURVE SMOOTH",
"199 110 OFFCURVE",
"189 139 OFFCURVE",
"189 206 CURVE",
"427 206 LINE",
"428 216 OFFCURVE",
"428 221 OFFCURVE",
"428 246 CURVE SMOOTH",
"428 396 OFFCURVE",
"361 477 OFFCURVE",
"224 477 CURVE SMOOTH",
"82 477 OFFCURVE",
"8 391 OFFCURVE",
"8 230 CURVE SMOOTH",
"8 72 OFFCURVE",
"80 -12 OFFCURVE",
"220 -12 CURVE SMOOTH"
);
},
{
closed = 1;
nodes = (
"191 284 LINE",
"192 337 OFFCURVE",
"202 355 OFFCURVE",
"222 355 CURVE SMOOTH",
"244 355 OFFCURVE",
"252 333 OFFCURVE",
"252 284 CURVE"
);
}
);
width = 436;
}
);
unicode = 0065;
},
{
glyphname = f;
lastChange = "2015-03-25 19:53:13 +0000";
layers = (
{
layerId = "E9E6D55E-9446-45F2-B66C-3272698B0216";
name = "Light Condensed";
paths = (
{
closed = 1;
nodes = (
"212 0 LINE",
"212 25 LINE",
"149 25 LINE SMOOTH",
"125 25 OFFCURVE",
"116 38 OFFCURVE",
"116 57 CURVE SMOOTH",
"116 520 LINE SMOOTH",
"116 608 OFFCURVE",
"144 644 OFFCURVE",
"189 644 CURVE SMOOTH",
"221 644 OFFCURVE",
"245 625 OFFCURVE",
"245 600 CURVE SMOOTH",
"245 576 OFFCURVE",
"224 575 OFFCURVE",
"224 551 CURVE SMOOTH",
"224 533 OFFCURVE",
"235 520 OFFCURVE",
"254 520 CURVE SMOOTH",
"278 520 OFFCURVE",
"291 540 OFFCURVE",
"291 574 CURVE SMOOTH",
"291 634 OFFCURVE",
"251 675 OFFCURVE",
"188 675 CURVE SMOOTH",
"122 675 OFFCURVE",
"76 630 OFFCURVE",
"76 520 CURVE SMOOTH",
"76 57 LINE SMOOTH",
"76 38 OFFCURVE",
"70 25 OFFCURVE",
"49 25 CURVE SMOOTH",
"10 25 LINE",
"10 0 LINE"
);
},
{
closed = 1;
nodes = (
"212 423 LINE",
"212 450 LINE",
"10 450 LINE",
"10 423 LINE"
);
}
);
width = 212;
},
{
layerId = "B25F85BC-C782-4067-8484-07202F80B8CD";
name = Condensed;
paths = (
{
closed = 1;
nodes = (
"265 0 LINE",
"265 80 LINE",
"234 80 LINE SMOOTH",
"216 80 OFFCURVE",
"206 89 OFFCURVE",
"206 107 CURVE SMOOTH",
"206 525 LINE SMOOTH",
"206 573 OFFCURVE",
"219 599 OFFCURVE",
"242 599 CURVE SMOOTH",
"256 599 OFFCURVE",
"265 590 OFFCURVE",
"265 578 CURVE SMOOTH",
"265 562 OFFCURVE",
"250 553 OFFCURVE",
"250 530 CURVE SMOOTH",
"250 502 OFFCURVE",
"273 483 OFFCURVE",
"307 483 CURVE SMOOTH",
"349 483 OFFCURVE",
"375 513 OFFCURVE",
"375 563 CURVE SMOOTH",
"375 633 OFFCURVE",
"324 675 OFFCURVE",
"237 675 CURVE SMOOTH",
"133 675 OFFCURVE",
"76 614 OFFCURVE",
"76 500 CURVE SMOOTH",
"76 112 LINE SMOOTH",
"76 90 OFFCURVE",
"68 80 OFFCURVE",
"49 80 CURVE SMOOTH",
"17 80 LINE",
"17 0 LINE"
);
},
{
closed = 1;
nodes = (
"284 370 LINE",
"284 450 LINE",
"16 450 LINE",
"16 370 LINE"
);
}
);
width = 300;
},
{
layerId = "B817C739-5D48-43E8-AAEE-CE891513D7BC";
name = "Bold Condensed";
paths = (
{
closed = 1;
nodes = (
"283 0 LINE",
"283 108 LINE",
"252 108 LINE SMOOTH",
"234 108 OFFCURVE",
"224 117 OFFCURVE",
"224 135 CURVE SMOOTH",
"224 545 LINE SMOOTH",
"224 575 OFFCURVE",
"233 589 OFFCURVE",
"251 589 CURVE SMOOTH",
"264 589 OFFCURVE",
"273 582 OFFCURVE",
"273 570 CURVE SMOOTH",
"273 555 OFFCURVE",
"258 553 OFFCURVE",
"258 530 CURVE SMOOTH",
"258 498 OFFCURVE",
"281 478 OFFCURVE",
"335 478 CURVE SMOOTH",
"394 478 OFFCURVE",
"425 511 OFFCURVE",
"425 562 CURVE SMOOTH",
"425 632 OFFCURVE",
"358 675 OFFCURVE",
"248 675 CURVE SMOOTH",
"117 675 OFFCURVE",
"48 615 OFFCURVE",
"48 500 CURVE SMOOTH",
"48 140 LINE SMOOTH",
"48 119 OFFCURVE",
"38 108 OFFCURVE",
"19 108 CURVE SMOOTH",
"6 108 LINE",
"6 0 LINE"
);
},
{
closed = 1;
nodes = (
"300 358 LINE",
"300 466 LINE",
"5 466 LINE",
"5 358 LINE"
);
}
);
width = 305;
},
{
layerId = UUID0;
name = "Light Extended";
paths = (
{
closed = 1;
nodes = (
"294 0 LINE",
"294 27 LINE",
"204 27 LINE SMOOTH",
"182 27 OFFCURVE",
"171 38 OFFCURVE",
"171 59 CURVE SMOOTH",
"171 480 LINE SMOOTH",
"171 590 OFFCURVE",
"210 644 OFFCURVE",
"289 644 CURVE SMOOTH",
"337 644 OFFCURVE",
"370 623 OFFCURVE",
"370 591 CURVE SMOOTH",
"370 565 OFFCURVE",
"346 563 OFFCURVE",
"346 537 CURVE SMOOTH",
"346 518 OFFCURVE",
"360 504 OFFCURVE",
"378 504 CURVE SMOOTH",
"401 504 OFFCURVE",
"416 527 OFFCURVE",
"416 564 CURVE SMOOTH",
"416 633 OFFCURVE",
"367 675 OFFCURVE",
"286 675 CURVE SMOOTH",
"184 675 OFFCURVE",
"131 608 OFFCURVE",
"131 480 CURVE SMOOTH",
"131 59 LINE SMOOTH",
"131 37 OFFCURVE",
"123 27 OFFCURVE",
"104 27 CURVE SMOOTH",
"34 27 LINE",
"34 0 LINE"
);
},
{
closed = 1;
nodes = (
"294 418 LINE",
"294 450 LINE",
"34 450 LINE",
"34 418 LINE"
);
}
);
width = 366;
},
{
layerId = "4355E1B8-19E6-44BD-A1D7-6E3C2DECA4C8";
name = Extended;
paths = (
{
closed = 1;
nodes = (
"350 0 LINE",
"350 80 LINE",
"264 80 LINE SMOOTH",
"246 80 OFFCURVE",
"236 89 OFFCURVE",
"236 107 CURVE SMOOTH",
"236 515 LINE SMOOTH",
"236 569 OFFCURVE",
"261 599 OFFCURVE",
"302 599 CURVE SMOOTH",
"334 599 OFFCURVE",
"355 590 OFFCURVE",
"355 578 CURVE SMOOTH",
"355 562 OFFCURVE",
"340 553 OFFCURVE",
"340 530 CURVE SMOOTH",
"340 502 OFFCURVE",
"363 483 OFFCURVE",
"397 483 CURVE SMOOTH",
"439 483 OFFCURVE",
"465 513 OFFCURVE",
"465 563 CURVE SMOOTH",
"465 633 OFFCURVE",
"402 675 OFFCURVE",
"297 675 CURVE SMOOTH",
"175 675 OFFCURVE",
"106 611 OFFCURVE",
"106 490 CURVE SMOOTH",
"106 112 LINE SMOOTH",
"106 90 OFFCURVE",
"98 80 OFFCURVE",
"79 80 CURVE SMOOTH",
"22 80 LINE",
"22 0 LINE"
);
},
{
closed = 1;
nodes = (
"374 370 LINE",
"374 450 LINE",
"21 450 LINE",
"21 370 LINE"
);
}
);
width = 415;
},
{
layerId = "14C77FDB-037D-4842-9381-6D9ED15DD48C";
name = "Bold Extended";
paths = (
{
closed = 1;
nodes = (
"405 0 LINE",
"405 142 LINE",
"344 142 LINE SMOOTH",
"324 142 OFFCURVE",
"316 150 OFFCURVE",
"316 169 CURVE SMOOTH",
"316 505 LINE SMOOTH",
"316 550 OFFCURVE",
"332 569 OFFCURVE",
"368 569 CURVE SMOOTH",
"391 569 OFFCURVE",
"405 561 OFFCURVE",
"405 549 CURVE SMOOTH",
"405 537 OFFCURVE",
"390 529 OFFCURVE",
"390 507 CURVE SMOOTH",
"390 474 OFFCURVE",
"425 453 OFFCURVE",
"475 453 CURVE SMOOTH",
"545 453 OFFCURVE",
"587 493 OFFCURVE",
"587 554 CURVE SMOOTH",
"587 636 OFFCURVE",
"509 675 OFFCURVE",
"362 675 CURVE SMOOTH",
"175 675 OFFCURVE",
"86 612 OFFCURVE",
"86 480 CURVE SMOOTH",
"86 174 LINE SMOOTH",
"86 151 OFFCURVE",
"79 142 OFFCURVE",
"62 142 CURVE SMOOTH",
"5 142 LINE",
"5 0 LINE"
);
},
{
closed = 1;
nodes = (
"414 318 LINE",
"414 460 LINE",
"4 460 LINE",
"4 318 LINE"
);
}
);
width = 437;
}
);
unicode = 0066;
},
{
glyphname = g;
lastChange = "2015-03-25 19:45:35 +0000";
layers = (
{
layerId = "E9E6D55E-9446-45F2-B66C-3272698B0216";
name = "Light Condensed";
paths = (
{
closed = 1;
nodes = (
"238 130 OFFCURVE",
"280 189 OFFCURVE",
"280 295 CURVE SMOOTH",
"280 401 OFFCURVE",
"238 460 OFFCURVE",
"162 460 CURVE SMOOTH",
"87 460 OFFCURVE",
"44 401 OFFCURVE",
"44 296 CURVE SMOOTH",
"44 190 OFFCURVE",
"87 130 OFFCURVE",
"163 130 CURVE SMOOTH"
);
},
{
closed = 1;
nodes = (
"111 165 OFFCURVE",
"88 205 OFFCURVE",
"88 295 CURVE SMOOTH",
"88 385 OFFCURVE",
"111 425 OFFCURVE",
"162 425 CURVE SMOOTH",
"213 425 OFFCURVE",
"236 385 OFFCURVE",
"236 295 CURVE SMOOTH",
"236 205 OFFCURVE",
"213 165 OFFCURVE",
"162 165 CURVE SMOOTH"
);
},
{
closed = 1;
nodes = (
"306 450 OFFCURVE",
"316 441 OFFCURVE",
"316 426 CURVE SMOOTH",
"316 405 OFFCURVE",
"298 400 OFFCURVE",
"298 376 CURVE SMOOTH",
"298 358 OFFCURVE",
"309 347 OFFCURVE",
"328 347 CURVE SMOOTH",
"351 347 OFFCURVE",
"364 365 OFFCURVE",
"364 396 CURVE SMOOTH",
"364 444 OFFCURVE",
"335 477 OFFCURVE",
"294 477 CURVE SMOOTH",
"254 477 OFFCURVE",
"218 445 OFFCURVE",
"218 409 CURVE",
"242 387 LINE",
"242 422 OFFCURVE",
"264 450 OFFCURVE",
"291 450 CURVE SMOOTH"
);
},
{
closed = 1;
nodes = (
"243 13 OFFCURVE",
"272 -20 OFFCURVE",
"272 -79 CURVE SMOOTH",
"272 -145 OFFCURVE",
"235 -181 OFFCURVE",
"165 -181 CURVE SMOOTH",
"97 -181 OFFCURVE",
"60 -148 OFFCURVE",
"60 -87 CURVE SMOOTH",
"60 -27 OFFCURVE",
"96 13 OFFCURVE",
"149 13 CURVE SMOOTH",
"192 13 LINE SMOOTH"
);
},
{
closed = 1;
nodes = (
"66 154 OFFCURVE",
"34 130 OFFCURVE",
"34 88 CURVE SMOOTH",
"34 53 OFFCURVE",
"56 30 OFFCURVE",
"92 26 CURVE",
"92 22 LINE",
"45 12 OFFCURVE",
"16 -31 OFFCURVE",
"16 -88 CURVE SMOOTH",
"16 -168 OFFCURVE",
"72 -216 OFFCURVE",
"164 -216 CURVE SMOOTH",
"260 -216 OFFCURVE",
"316 -164 OFFCURVE",
"316 -74 CURVE SMOOTH",
"316 5 OFFCURVE",
"272 46 OFFCURVE",
"189 46 CURVE SMOOTH",
"125 46 LINE SMOOTH",
"93 46 OFFCURVE",
"74 64 OFFCURVE",
"74 92 CURVE SMOOTH",
"74 121 OFFCURVE",
"93 135 OFFCURVE",
"130 135 CURVE",
"122 154 LINE"
);
}
);
width = 349;
},
{
layerId = "B25F85BC-C782-4067-8484-07202F80B8CD";
name = Condensed;
paths = (
{
closed = 1;
nodes = (
"319 130 OFFCURVE",
"380 190 OFFCURVE",
"380 295 CURVE SMOOTH",
"380 400 OFFCURVE",
"319 460 OFFCURVE",
"212 460 CURVE SMOOTH",
"106 460 OFFCURVE",
"44 400 OFFCURVE",
"44 296 CURVE SMOOTH",
"44 191 OFFCURVE",
"106 130 OFFCURVE",
"213 130 CURVE SMOOTH"
);
},
{
closed = 1;
nodes = (
"185 215 OFFCURVE",
"171 241 OFFCURVE",
"171 295 CURVE SMOOTH",
"171 349 OFFCURVE",
"184 375 OFFCURVE",
"212 375 CURVE SMOOTH",
"240 375 OFFCURVE",
"253 349 OFFCURVE",
"253 294 CURVE SMOOTH",
"253 240 OFFCURVE",
"240 215 OFFCURVE",
"213 215 CURVE SMOOTH"
);
},
{
closed = 1;
nodes = (
"405 430 OFFCURVE",
"412 423 OFFCURVE",
"412 412 CURVE SMOOTH",
"412 396 OFFCURVE",
"398 390 OFFCURVE",
"398 370 CURVE SMOOTH",
"398 349 OFFCURVE",
"413 337 OFFCURVE",
"437 337 CURVE SMOOTH",
"468 337 OFFCURVE",
"484 357 OFFCURVE",
"484 396 CURVE SMOOTH",
"484 452 OFFCURVE",
"450 487 OFFCURVE",
"397 487 CURVE SMOOTH",
"346 487 OFFCURVE",
"308 454 OFFCURVE",
"308 409 CURVE",
"352 377 LINE",
"352 407 OFFCURVE",
"370 430 OFFCURVE",
"392 430 CURVE SMOOTH"
);
},
{
closed = 1;
nodes = (
"260 -14 OFFCURVE",
"282 -35 OFFCURVE",
"282 -70 CURVE SMOOTH",
"282 -109 OFFCURVE",
"256 -131 OFFCURVE",
"208 -131 CURVE SMOOTH",
"164 -131 OFFCURVE",
"140 -112 OFFCURVE",
"140 -75 CURVE SMOOTH",
"140 -40 OFFCURVE",
"161 -14 OFFCURVE",
"189 -14 CURVE SMOOTH",
"222 -14 LINE SMOOTH"
);
},
{
closed = 1;
nodes = (
"71 174 OFFCURVE",
"34 146 OFFCURVE",
"34 92 CURVE SMOOTH",
"34 46 OFFCURVE",
"62 15 OFFCURVE",
"112 6 CURVE",
"112 2 LINE",
"50 -4 OFFCURVE",
"16 -40 OFFCURVE",
"16 -99 CURVE SMOOTH",
"16 -178 OFFCURVE",
"77 -216 OFFCURVE",
"203 -216 CURVE SMOOTH",
"345 -216 OFFCURVE",
"416 -167 OFFCURVE",
"416 -69 CURVE SMOOTH",
"416 19 OFFCURVE",
"361 71 OFFCURVE",
"269 71 CURVE SMOOTH",
"171 71 LINE SMOOTH",
"138 71 OFFCURVE",
"124 80 OFFCURVE",
"124 101 CURVE SMOOTH",
"124 125 OFFCURVE",
"143 135 OFFCURVE",
"190 135 CURVE",
"142 174 LINE"
);
}
);
width = 475;
},
{
layerId = "B817C739-5D48-43E8-AAEE-CE891513D7BC";
name = "Bold Condensed";
paths = (
{
closed = 1;
nodes = (
"359 110 OFFCURVE",
"432 175 OFFCURVE",
"432 300 CURVE SMOOTH",
"432 425 OFFCURVE",
"359 478 OFFCURVE",
"234 478 CURVE SMOOTH",
"110 478 OFFCURVE",
"36 425 OFFCURVE",
"36 301 CURVE SMOOTH",
"36 176 OFFCURVE",
"110 110 OFFCURVE",
"235 110 CURVE SMOOTH"
);
},
{
closed = 1;
nodes = (
"214 235 OFFCURVE",
"203 255 OFFCURVE",
"203 296 CURVE SMOOTH",
"203 335 OFFCURVE",
"213 353 OFFCURVE",
"234 353 CURVE SMOOTH",
"255 353 OFFCURVE",
"265 335 OFFCURVE",
"265 294 CURVE SMOOTH",
"265 254 OFFCURVE",
"255 235 OFFCURVE",
"235 235 CURVE SMOOTH"
);
},
{
closed = 1;
nodes = (
"456 448 OFFCURVE",
"462 441 OFFCURVE",
"462 430 CURVE SMOOTH",
"462 413 OFFCURVE",
"448 409 OFFCURVE",
"448 387 CURVE SMOOTH",
"448 355 OFFCURVE",
"476 337 OFFCURVE",
"515 337 CURVE SMOOTH",
"559 337 OFFCURVE",
"586 361 OFFCURVE",
"586 414 CURVE SMOOTH",
"586 482 OFFCURVE",
"540 525 OFFCURVE",
"462 525 CURVE SMOOTH",
"389 525 OFFCURVE",
"349 488 OFFCURVE",
"340 437 CURVE",
"404 395 LINE",
"404 425 OFFCURVE",
"421 448 OFFCURVE",
"444 448 CURVE SMOOTH"
);
},
{
closed = 1;
nodes = (
"265 -34 OFFCURVE",
"274 -47 OFFCURVE",
"274 -71 CURVE SMOOTH",
"274 -97 OFFCURVE",
"264 -111 OFFCURVE",
"237 -111 CURVE SMOOTH",
"211 -111 OFFCURVE",
"202 -98 OFFCURVE",
"202 -76 CURVE SMOOTH",
"202 -51 OFFCURVE",
"213 -34 OFFCURVE",
"228 -34 CURVE SMOOTH",
"246 -34 LINE SMOOTH"
);
},
{
closed = 1;
nodes = (
"63 174 OFFCURVE",
"26 143 OFFCURVE",
"26 83 CURVE SMOOTH",
"26 31 OFFCURVE",
"54 -4 OFFCURVE",
"104 -14 CURVE",
"104 -18 LINE",
"46 -22 OFFCURVE",
"8 -47 OFFCURVE",
"8 -102 CURVE SMOOTH",
"8 -178 OFFCURVE",
"81 -216 OFFCURVE",
"225 -216 CURVE SMOOTH",
"390 -216 OFFCURVE",
"468 -167 OFFCURVE",
"468 -66 CURVE SMOOTH",
"468 18 OFFCURVE",
"413 71 OFFCURVE",
"321 71 CURVE SMOOTH",
"193 71 LINE SMOOTH",
"158 71 OFFCURVE",
"146 77 OFFCURVE",
"146 93 CURVE SMOOTH",
"146 108 OFFCURVE",
"157 115 OFFCURVE",
"182 115 CURVE",
"134 174 LINE"
);
}
);
width = 506;
},
{
layerId = UUID0;
name = "Light Extended";
paths = (
{
closed = 1;
nodes = (
"356 130 OFFCURVE",
"425 191 OFFCURVE",
"425 295 CURVE SMOOTH",
"425 399 OFFCURVE",
"356 460 OFFCURVE",
"240 460 CURVE SMOOTH",
"125 460 OFFCURVE",
"59 401 OFFCURVE",
"59 296 CURVE SMOOTH",
"59 190 OFFCURVE",
"125 130 OFFCURVE",
"240 130 CURVE SMOOTH"
);
},
{
closed = 1;
nodes = (
"144 168 OFFCURVE",
"106 204 OFFCURVE",
"106 295 CURVE SMOOTH",
"106 386 OFFCURVE",
"144 422 OFFCURVE",
"239 422 CURVE SMOOTH",
"337 422 OFFCURVE",
"378 384 OFFCURVE",
"378 295 CURVE SMOOTH",
"378 206 OFFCURVE",
"337 168 OFFCURVE",
"239 168 CURVE SMOOTH"
);
},
{
closed = 1;
nodes = (
"451 450 OFFCURVE",
"461 441 OFFCURVE",
"461 426 CURVE SMOOTH",
"461 405 OFFCURVE",
"443 400 OFFCURVE",
"443 376 CURVE SMOOTH",
"443 357 OFFCURVE",
"453 347 OFFCURVE",
"472 347 CURVE SMOOTH",
"496 347 OFFCURVE",
"509 364 OFFCURVE",
"509 396 CURVE SMOOTH",
"509 444 OFFCURVE",
"480 477 OFFCURVE",
"439 477 CURVE SMOOTH",
"399 477 OFFCURVE",
"363 445 OFFCURVE",
"363 409 CURVE",
"387 387 LINE",
"387 421 OFFCURVE",
"409 450 OFFCURVE",
"436 450 CURVE SMOOTH"
);
},
{
closed = 1;
nodes = (
"386 11 OFFCURVE",
"414 -20 OFFCURVE",
"414 -74 CURVE SMOOTH",
"414 -146 OFFCURVE",
"361 -178 OFFCURVE",
"243 -178 CURVE SMOOTH",
"130 -178 OFFCURVE",
"78 -148 OFFCURVE",
"78 -82 CURVE SMOOTH",
"78 -27 OFFCURVE",
"113 11 OFFCURVE",
"164 11 CURVE SMOOTH",
"337 11 LINE SMOOTH"
);
},
{
closed = 1;
nodes = (
"87 164 OFFCURVE",
"49 139 OFFCURVE",
"49 92 CURVE SMOOTH",
"49 56 OFFCURVE",
"72 30 OFFCURVE",
"107 26 CURVE",
"107 22 LINE",
"62 13 OFFCURVE",
"31 -31 OFFCURVE",
"31 -84 CURVE SMOOTH",
"31 -168 OFFCURVE",
"108 -216 OFFCURVE",
"242 -216 CURVE SMOOTH",
"382 -216 OFFCURVE",
"461 -163 OFFCURVE",
"461 -68 CURVE SMOOTH",
"461 5 OFFCURVE",
"414 49 OFFCURVE",
"334 49 CURVE SMOOTH",
"140 49 LINE SMOOTH",
"108 49 OFFCURVE",
"89 67 OFFCURVE",
"89 97 CURVE SMOOTH",
"89 130 OFFCURVE",
"112 145 OFFCURVE",
"165 145 CURVE",
"157 164 LINE"
);
}
);
width = 520;
},
{
layerId = "4355E1B8-19E6-44BD-A1D7-6E3C2DECA4C8";
name = Extended;
paths = (
{
closed = 1;
nodes = (
"443 130 OFFCURVE",
"504 190 OFFCURVE",
"504 295 CURVE SMOOTH",
"504 400 OFFCURVE",
"443 460 OFFCURVE",
"286 460 CURVE SMOOTH",
"130 460 OFFCURVE",
"68 400 OFFCURVE",
"68 296 CURVE SMOOTH",
"68 191 OFFCURVE",
"130 130 OFFCURVE",
"287 130 CURVE SMOOTH"
);
},
{
closed = 1;
nodes = (
"224 215 OFFCURVE",
"195 241 OFFCURVE",
"195 295 CURVE SMOOTH",
"195 349 OFFCURVE",
"223 375 OFFCURVE",
"286 375 CURVE SMOOTH",
"349 375 OFFCURVE",
"377 349 OFFCURVE",
"377 294 CURVE SMOOTH",
"377 240 OFFCURVE",
"349 215 OFFCURVE",
"287 215 CURVE SMOOTH"
);
},
{
closed = 1;
nodes = (
"528 430 OFFCURVE",
"536 423 OFFCURVE",
"536 412 CURVE SMOOTH",
"536 396 OFFCURVE",
"522 390 OFFCURVE",
"522 370 CURVE SMOOTH",
"522 349 OFFCURVE",
"537 337 OFFCURVE",
"561 337 CURVE SMOOTH",
"591 337 OFFCURVE",
"608 357 OFFCURVE",
"608 396 CURVE SMOOTH",
"608 452 OFFCURVE",
"574 487 OFFCURVE",
"521 487 CURVE SMOOTH",
"470 487 OFFCURVE",
"432 454 OFFCURVE",
"432 409 CURVE",
"476 377 LINE",
"476 407 OFFCURVE",
"493 430 OFFCURVE",
"516 430 CURVE SMOOTH"
);
},
{
closed = 1;
nodes = (
"387 -14 OFFCURVE",
"406 -36 OFFCURVE",
"406 -68 CURVE SMOOTH",
"406 -109 OFFCURVE",
"375 -131 OFFCURVE",
"282 -131 CURVE SMOOTH",
"196 -131 OFFCURVE",
"164 -112 OFFCURVE",
"164 -73 CURVE SMOOTH",
"164 -41 OFFCURVE",
"185 -14 OFFCURVE",
"213 -14 CURVE SMOOTH",
"336 -14 LINE SMOOTH"
);
},
{
closed = 1;
nodes = (
"95 174 OFFCURVE",
"58 146 OFFCURVE",
"58 92 CURVE SMOOTH",
"58 46 OFFCURVE",
"86 15 OFFCURVE",
"136 6 CURVE",
"136 2 LINE",
"74 -4 OFFCURVE",
"40 -41 OFFCURVE",
"40 -96 CURVE SMOOTH",
"40 -178 OFFCURVE",
"115 -216 OFFCURVE",
"276 -216 CURVE SMOOTH",
"458 -216 OFFCURVE",
"540 -167 OFFCURVE",
"540 -66 CURVE SMOOTH",
"540 17 OFFCURVE",
"485 71 OFFCURVE",
"393 71 CURVE SMOOTH",
"195 71 LINE SMOOTH",
"162 71 OFFCURVE",
"148 80 OFFCURVE",
"148 101 CURVE SMOOTH",
"148 125 OFFCURVE",
"168 136 OFFCURVE",
"215 136 CURVE",
"166 174 LINE"
);
}
);
width = 603;
},
{
layerId = "14C77FDB-037D-4842-9381-6D9ED15DD48C";
name = "Bold Extended";
paths = (
{
closed = 1;
nodes = (
"485 110 OFFCURVE",
"581 178 OFFCURVE",
"581 300 CURVE SMOOTH",
"581 418 OFFCURVE",
"491 478 OFFCURVE",
"313 478 CURVE SMOOTH",
"136 478 OFFCURVE",
"45 418 OFFCURVE",
"45 301 CURVE SMOOTH",
"45 179 OFFCURVE",
"142 110 OFFCURVE",
"314 110 CURVE SMOOTH"
);
},
{
closed = 1;
nodes = (
"281 240 OFFCURVE",
"262 258 OFFCURVE",
"262 289 CURVE SMOOTH",
"262 320 OFFCURVE",
"280 338 OFFCURVE",
"313 338 CURVE SMOOTH",
"346 338 OFFCURVE",
"364 321 OFFCURVE",
"364 289 CURVE SMOOTH",
"364 258 OFFCURVE",
"346 240 OFFCURVE",
"314 240 CURVE SMOOTH"
);
},
{
closed = 1;
nodes = (
"612 428 OFFCURVE",
"621 420 OFFCURVE",
"621 408 CURVE SMOOTH",
"621 394 OFFCURVE",
"607 387 OFFCURVE",
"607 368 CURVE SMOOTH",
"607 337 OFFCURVE",
"641 317 OFFCURVE",
"690 317 CURVE SMOOTH",
"752 317 OFFCURVE",
"785 350 OFFCURVE",
"785 407 CURVE SMOOTH",
"785 482 OFFCURVE",
"727 525 OFFCURVE",
"621 525 CURVE SMOOTH",
"532 525 OFFCURVE",
"476 495 OFFCURVE",
"459 437 CURVE",
"553 385 LINE",
"553 411 OFFCURVE",
"570 428 OFFCURVE",
"595 428 CURVE SMOOTH"
);
},
{
closed = 1;
nodes = (
"374 -44 OFFCURVE",
"383 -53 OFFCURVE",
"383 -74 CURVE SMOOTH",
"383 -102 OFFCURVE",
"367 -111 OFFCURVE",
"316 -111 CURVE SMOOTH",
"267 -111 OFFCURVE",
"251 -103 OFFCURVE",
"251 -78 CURVE SMOOTH",
"251 -58 OFFCURVE",
"262 -44 OFFCURVE",
"277 -44 CURVE SMOOTH",
"355 -44 LINE SMOOTH"
);
},
{
closed = 1;
nodes = (
"71 194 OFFCURVE",
"35 158 OFFCURVE",
"35 84 CURVE SMOOTH",
"35 22 OFFCURVE",
"60 -12 OFFCURVE",
"113 -24 CURVE",
"113 -28 LINE",
"50 -31 OFFCURVE",
"17 -57 OFFCURVE",
"17 -103 CURVE SMOOTH",
"17 -180 OFFCURVE",
"108 -216 OFFCURVE",
"301 -216 CURVE SMOOTH",
"521 -216 OFFCURVE",
"617 -169 OFFCURVE",
"617 -61 CURVE SMOOTH",
"617 24 OFFCURVE",
"558 81 OFFCURVE",
"470 81 CURVE SMOOTH",
"242 81 LINE SMOOTH",
"192 81 OFFCURVE",
"175 87 OFFCURVE",
"175 107 CURVE SMOOTH",
"175 126 OFFCURVE",
"192 135 OFFCURVE",
"231 135 CURVE",
"143 194 LINE"
);
}
);
width = 685;
}
);
unicode = 0067;
},
{
glyphname = h;
lastChange = "2015-03-09 06:55:59 +0000";
layers = (
{
background = {
paths = (
{
closed = 1;
nodes = (
"34 0 LINE",
"274 0 LINE",
"274 27 LINE",
"197 27 LINE SMOOTH",
"181 27 OFFCURVE",
"175 40 OFFCURVE",
"175 59 CURVE SMOOTH",
"175 288 LINE SMOOTH",
"175 384 OFFCURVE",
"253 422 OFFCURVE",
"336 422 CURVE SMOOTH",
"395 422 OFFCURVE",
"466 403 OFFCURVE",
"466 307 CURVE SMOOTH",
"466 59 LINE SMOOTH",
"466 37 OFFCURVE",
"459 27 OFFCURVE",
"441 27 CURVE SMOOTH",
"366 27 LINE",
"366 0 LINE",
"606 0 LINE",
"606 27 LINE",
"535 27 LINE SMOOTH",
"513 27 OFFCURVE",
"510 40 OFFCURVE",
"510 59 CURVE SMOOTH",
"510 308 LINE SMOOTH",
"510 421 OFFCURVE",
"435 460 OFFCURVE",
"346 460 CURVE SMOOTH",
"273 460 OFFCURVE",
"214 434 OFFCURVE",
"179 383 CURVE",
"175 383 LINE",
"175 665 LINE",
"34 665 LINE",
"34 638 LINE",
"96 638 LINE SMOOTH",
"125 638 OFFCURVE",
"131 625 OFFCURVE",
"131 597 CURVE SMOOTH",
"131 59 LINE SMOOTH",
"131 40 OFFCURVE",
"125 27 OFFCURVE",
"103 27 CURVE SMOOTH",
"34 27 LINE"
);
}
);
};
layerId = UUID0;
name = "Light Extended";
paths = (
{
closed = 1;
nodes = (
"34 0 LINE",
"274 0 LINE",
"274 27 LINE",
"197 27 LINE SMOOTH",
"182 27 OFFCURVE",
"175 38 OFFCURVE",
"175 59 CURVE SMOOTH",
"175 223 LINE SMOOTH",
"175 351 OFFCURVE",
"234 422 OFFCURVE",
"339 422 CURVE SMOOTH",
"424 422 OFFCURVE",
"466 374 OFFCURVE",
"466 277 CURVE SMOOTH",
"466 59 LINE SMOOTH",
"466 36 OFFCURVE",
"459 27 OFFCURVE",
"441 27 CURVE SMOOTH",
"366 27 LINE",
"366 0 LINE",
"606 0 LINE",
"606 27 LINE",
"535 27 LINE SMOOTH",
"517 27 OFFCURVE",
"510 35 OFFCURVE",
"510 59 CURVE SMOOTH",
"510 278 LINE SMOOTH",
"510 401 OFFCURVE",
"456 460 OFFCURVE",
"346 460 CURVE SMOOTH",
"268 460 OFFCURVE",
"214 430 OFFCURVE",
"179 368 CURVE",
"175 368 LINE",
"175 665 LINE",
"34 665 LINE",
"34 638 LINE",
"96 638 LINE SMOOTH",
"122 638 OFFCURVE",
"131 628 OFFCURVE",
"131 597 CURVE SMOOTH",
"131 59 LINE SMOOTH",
"131 37 OFFCURVE",
"122 27 OFFCURVE",
"103 27 CURVE SMOOTH",
"34 27 LINE"
);
}
);
width = 640;
},
{
background = {
paths = (
{
closed = 1;
nodes = (
"21 0 LINE",
"315 0 LINE",
"315 80 LINE",
"253 80 LINE SMOOTH",
"241 80 OFFCURVE",
"236 89 OFFCURVE",
"236 108 CURVE SMOOTH",
"236 227 LINE SMOOTH",
"236 315 OFFCURVE",
"277 365 OFFCURVE",
"348 365 CURVE SMOOTH",
"407 365 OFFCURVE",
"439 330 OFFCURVE",
"439 266 CURVE SMOOTH",
"439 107 LINE SMOOTH",
"439 89 OFFCURVE",
"433 80 OFFCURVE",
"419 80 CURVE SMOOTH",
"360 80 LINE",
"360 0 LINE",
"653 0 LINE",
"653 80 LINE",
"599 80 LINE SMOOTH",
"577 80 OFFCURVE",
"569 87 OFFCURVE",
"569 106 CURVE SMOOTH",
"569 296 LINE SMOOTH",
"569 400 OFFCURVE",
"508 460 OFFCURVE",
"403 460 CURVE SMOOTH",
"326 460 OFFCURVE",
"265 427 OFFCURVE",
"237 370 CURVE",
"233 370 LINE",
"233 665 LINE",
"21 665 LINE",
"21 585 LINE",
"71 585 LINE SMOOTH",
"97 585 OFFCURVE",
"106 575 OFFCURVE",
"106 544 CURVE SMOOTH",
"106 106 LINE SMOOTH",
"106 88 OFFCURVE",
"96 80 OFFCURVE",
"73 80 CURVE SMOOTH",
"21 80 LINE"
);
}
);
};
layerId = "4355E1B8-19E6-44BD-A1D7-6E3C2DECA4C8";
name = Extended;
paths = (
{
closed = 1;
nodes = (
"21 0 LINE",
"315 0 LINE",
"315 80 LINE",
"253 80 LINE SMOOTH",
"241 80 OFFCURVE",
"236 89 OFFCURVE",
"236 108 CURVE SMOOTH",
"236 234 LINE SMOOTH",
"236 311 OFFCURVE",
"280 365 OFFCURVE",
"354 365 CURVE SMOOTH",
"414 365 OFFCURVE",
"439 335 OFFCURVE",
"439 277 CURVE SMOOTH",
"439 107 LINE SMOOTH",
"439 89 OFFCURVE",
"433 80 OFFCURVE",
"419 80 CURVE SMOOTH",
"360 80 LINE",
"360 0 LINE",
"653 0 LINE",
"653 80 LINE",
"599 80 LINE SMOOTH",
"577 80 OFFCURVE",
"569 87 OFFCURVE",
"569 106 CURVE SMOOTH",
"569 296 LINE SMOOTH",
"569 400 OFFCURVE",
"508 460 OFFCURVE",
"401 460 CURVE SMOOTH",
"325 460 OFFCURVE",
"265 430 OFFCURVE",
"237 380 CURVE",
"233 380 LINE",
"233 665 LINE",
"21 665 LINE",
"21 585 LINE",
"71 585 LINE SMOOTH",
"97 585 OFFCURVE",
"106 575 OFFCURVE",
"106 544 CURVE SMOOTH",
"106 106 LINE SMOOTH",
"106 88 OFFCURVE",
"96 80 OFFCURVE",
"73 80 CURVE SMOOTH",
"21 80 LINE"
);
}
);
width = 674;
},
{
background = {
paths = (
{
closed = 1;
nodes = (
"5 0 LINE",
"369 0 LINE",
"369 142 LINE",
"341 142 LINE SMOOTH",
"322 142 OFFCURVE",
"316 148 OFFCURVE",
"316 165 CURVE SMOOTH",
"316 255 LINE SMOOTH",
"316 299 OFFCURVE",
"340 334 OFFCURVE",
"388 334 CURVE SMOOTH",
"426 334 OFFCURVE",
"446 312 OFFCURVE",
"446 271 CURVE SMOOTH",
"446 165 LINE SMOOTH",
"446 148 OFFCURVE",
"440 142 OFFCURVE",
"421 142 CURVE SMOOTH",
"393 142 LINE",
"393 0 LINE",
"757 0 LINE",
"757 142 LINE",
"702 142 LINE SMOOTH",
"682 142 OFFCURVE",
"676 149 OFFCURVE",
"676 177 CURVE SMOOTH",
"676 327 LINE SMOOTH",
"676 435 OFFCURVE",
"605 490 OFFCURVE",
"495 490 CURVE SMOOTH",
"426 490 OFFCURVE",
"367 468 OFFCURVE",
"320 413 CURVE",
"316 413 LINE",
"316 665 LINE",
"5 665 LINE",
"5 523 LINE",
"60 523 LINE SMOOTH",
"80 523 OFFCURVE",
"86 516 OFFCURVE",
"86 488 CURVE SMOOTH",
"86 177 LINE SMOOTH",
"86 149 OFFCURVE",
"80 142 OFFCURVE",
"60 142 CURVE SMOOTH",
"5 142 LINE"
);
}
);
};
layerId = "14C77FDB-037D-4842-9381-6D9ED15DD48C";
name = "Bold Extended";
paths = (
{
closed = 1;
nodes = (
"5 0 LINE",
"369 0 LINE",
"369 142 LINE",
"341 142 LINE SMOOTH",
"322 142 OFFCURVE",
"316 148 OFFCURVE",
"316 165 CURVE SMOOTH",
"316 258 LINE SMOOTH",
"316 305 OFFCURVE",
"344 334 OFFCURVE",
"390 334 CURVE SMOOTH",
"427 334 OFFCURVE",
"446 315 OFFCURVE",
"446 280 CURVE SMOOTH",
"446 165 LINE SMOOTH",
"446 148 OFFCURVE",
"440 142 OFFCURVE",
"421 142 CURVE SMOOTH",
"393 142 LINE",
"393 0 LINE",
"757 0 LINE",
"757 142 LINE",
"702 142 LINE SMOOTH",
"682 142 OFFCURVE",
"676 150 OFFCURVE",
"676 177 CURVE SMOOTH",
"676 317 LINE SMOOTH",
"676 427 OFFCURVE",
"610 490 OFFCURVE",
"495 490 CURVE SMOOTH",
"421 490 OFFCURVE",
"364 465 OFFCURVE",
"320 413 CURVE",
"316 413 LINE",
"316 665 LINE",
"5 665 LINE",
"5 523 LINE",
"60 523 LINE SMOOTH",
"80 523 OFFCURVE",
"86 515 OFFCURVE",
"86 488 CURVE SMOOTH",
"86 177 LINE SMOOTH",
"86 150 OFFCURVE",
"80 142 OFFCURVE",
"60 142 CURVE SMOOTH",
"5 142 LINE"
);
}
);
width = 762;
},
{
background = {
paths = (
{
closed = 1;
nodes = (
"8 0 LINE",
"174 0 LINE",
"174 25 LINE",
"137 25 LINE SMOOTH",
"122 25 OFFCURVE",
"114 36 OFFCURVE",
"114 57 CURVE SMOOTH",
"114 259 LINE SMOOTH",
"114 353 OFFCURVE",
"156 425 OFFCURVE",
"212 425 CURVE SMOOTH",
"246 425 OFFCURVE",
"266 400 OFFCURVE",
"266 360 CURVE SMOOTH",
"266 57 LINE SMOOTH",
"266 34 OFFCURVE",
"259 25 OFFCURVE",
"241 25 CURVE SMOOTH",
"205 25 LINE",
"205 0 LINE",
"371 0 LINE",
"371 25 LINE",
"331 25 LINE SMOOTH",
"313 25 OFFCURVE",
"306 33 OFFCURVE",
"306 57 CURVE SMOOTH",
"306 363 LINE SMOOTH",
"306 424 OFFCURVE",
"273 460 OFFCURVE",
"219 460 CURVE SMOOTH",
"175 460 OFFCURVE",
"141 436 OFFCURVE",
"119 392 CURVE",
"115 392 LINE",
"115 665 LINE",
"8 665 LINE",
"8 640 LINE",
"39 640 LINE SMOOTH",
"65 640 OFFCURVE",
"74 630 OFFCURVE",
"74 599 CURVE SMOOTH",
"74 57 LINE SMOOTH",
"74 35 OFFCURVE",
"66 25 OFFCURVE",
"47 25 CURVE SMOOTH",
"8 25 LINE"
);
}
);
};
layerId = "E9E6D55E-9446-45F2-B66C-3272698B0216";
name = "Light Condensed";
paths = (
{
closed = 1;
nodes = (
"10 0 LINE",
"176 0 LINE",
"176 25 LINE",
"143 25 LINE SMOOTH",
"123 25 OFFCURVE",
"116 35 OFFCURVE",
"116 57 CURVE SMOOTH",
"116 259 LINE SMOOTH",
"116 353 OFFCURVE",
"158 425 OFFCURVE",
"214 425 CURVE SMOOTH",
"248 425 OFFCURVE",
"268 400 OFFCURVE",
"268 360 CURVE SMOOTH",
"268 57 LINE SMOOTH",
"268 35 OFFCURVE",
"261 25 OFFCURVE",
"241 25 CURVE SMOOTH",
"208 25 LINE",
"208 0 LINE",
"374 0 LINE",
"374 25 LINE",
"335 25 LINE SMOOTH",
"315 25 OFFCURVE",
"308 35 OFFCURVE",
"308 57 CURVE SMOOTH",
"308 363 LINE SMOOTH",
"308 424 OFFCURVE",
"275 460 OFFCURVE",
"221 460 CURVE SMOOTH",
"177 460 OFFCURVE",
"142 436 OFFCURVE",
"120 392 CURVE",
"116 392 LINE",
"116 665 LINE",
"10 665 LINE",
"10 640 LINE",
"49 640 LINE SMOOTH",
"69 640 OFFCURVE",
"76 630 OFFCURVE",
"76 608 CURVE SMOOTH",
"76 57 LINE SMOOTH",
"76 35 OFFCURVE",
"69 25 OFFCURVE",
"49 25 CURVE SMOOTH",
"10 25 LINE"
);
}
);
width = 384;
},
{
background = {
paths = (
{
closed = 1;
nodes = (
"16 0 LINE",
"232 0 LINE",
"232 80 LINE",
"225 80 LINE SMOOTH",
"211 80 OFFCURVE",
"205 91 OFFCURVE",
"205 107 CURVE SMOOTH",
"205 296 LINE SMOOTH",
"205 332 OFFCURVE",
"213 365 OFFCURVE",
"242 365 CURVE SMOOTH",
"262 365 OFFCURVE",
"275 349 OFFCURVE",
"275 316 CURVE SMOOTH",
"275 107 LINE SMOOTH",
"275 91 OFFCURVE",
"269 80 OFFCURVE",
"255 80 CURVE SMOOTH",
"248 80 LINE",
"248 0 LINE",
"464 0 LINE",
"464 80 LINE",
"430 80 LINE SMOOTH",
"410 80 OFFCURVE",
"405 93 OFFCURVE",
"405 113 CURVE SMOOTH",
"405 344 LINE SMOOTH",
"405 409 OFFCURVE",
"373 460 OFFCURVE",
"307 460 CURVE SMOOTH",
"261 460 OFFCURVE",
"229 436 OFFCURVE",
"209 397 CURVE",
"205 397 LINE",
"205 665 LINE",
"16 665 LINE",
"16 585 LINE",
"50 585 LINE SMOOTH",
"70 585 OFFCURVE",
"75 572 OFFCURVE",
"75 552 CURVE SMOOTH",
"75 113 LINE SMOOTH",
"75 93 OFFCURVE",
"70 80 OFFCURVE",
"50 80 CURVE SMOOTH",
"16 80 LINE"
);
}
);
};
layerId = "B25F85BC-C782-4067-8484-07202F80B8CD";
name = Condensed;
paths = (
{
closed = 1;
nodes = (
"16 0 LINE",
"232 0 LINE",
"232 80 LINE",
"225 80 LINE SMOOTH",
"212 80 OFFCURVE",
"205 90 OFFCURVE",
"205 107 CURVE SMOOTH",
"205 269 LINE SMOOTH",
"205 315 OFFCURVE",
"219 338 OFFCURVE",
"246 338 CURVE SMOOTH",
"266 338 OFFCURVE",
"275 322 OFFCURVE",
"275 289 CURVE SMOOTH",
"275 107 LINE SMOOTH",
"275 90 OFFCURVE",
"268 80 OFFCURVE",
"255 80 CURVE SMOOTH",
"248 80 LINE",
"248 0 LINE",
"464 0 LINE",
"464 80 LINE",
"430 80 LINE SMOOTH",
"412 80 OFFCURVE",
"405 90 OFFCURVE",
"405 113 CURVE SMOOTH",
"405 344 LINE SMOOTH",
"405 415 OFFCURVE",
"368 460 OFFCURVE",
"309 460 CURVE SMOOTH",
"260 460 OFFCURVE",
"221 428 OFFCURVE",
"209 380 CURVE",
"205 380 LINE",
"205 665 LINE",
"16 665 LINE",
"16 585 LINE",
"50 585 LINE SMOOTH",
"68 585 OFFCURVE",
"75 575 OFFCURVE",
"75 552 CURVE SMOOTH",
"75 113 LINE SMOOTH",
"75 90 OFFCURVE",
"68 80 OFFCURVE",
"50 80 CURVE SMOOTH",
"16 80 LINE"
);
}
);
width = 480;
},
{
background = {
paths = (
{
closed = 1;
nodes = (
"6 0 LINE",
"238 0 LINE",
"238 108 LINE",
"234 108 LINE SMOOTH",
"226 108 OFFCURVE",
"224 113 OFFCURVE",
"224 123 CURVE SMOOTH",
"224 290 LINE SMOOTH",
"224 324 OFFCURVE",
"228 343 OFFCURVE",
"244 343 CURVE SMOOTH",
"260 343 OFFCURVE",
"264 324 OFFCURVE",
"264 290 CURVE SMOOTH",
"264 123 LINE SMOOTH",
"264 113 OFFCURVE",
"262 108 OFFCURVE",
"254 108 CURVE SMOOTH",
"250 108 LINE",
"250 0 LINE",
"482 0 LINE",
"482 108 LINE",
"470 108 LINE SMOOTH",
"450 108 OFFCURVE",
"440 119 OFFCURVE",
"440 139 CURVE SMOOTH",
"440 345 LINE SMOOTH",
"440 426 OFFCURVE",
"397 476 OFFCURVE",
"327 476 CURVE SMOOTH",
"285 476 OFFCURVE",
"254 459 OFFCURVE",
"228 420 CURVE",
"224 420 LINE",
"224 665 LINE",
"6 665 LINE",
"6 557 LINE",
"18 557 LINE SMOOTH",
"38 557 OFFCURVE",
"48 546 OFFCURVE",
"48 526 CURVE SMOOTH",
"48 139 LINE SMOOTH",
"48 119 OFFCURVE",
"38 108 OFFCURVE",
"18 108 CURVE SMOOTH",
"6 108 LINE"
);
}
);
};
layerId = "B817C739-5D48-43E8-AAEE-CE891513D7BC";
name = "Bold Condensed";
paths = (
{
closed = 1;
nodes = (
"6 0 LINE",
"238 0 LINE",
"238 108 LINE",
"234 108 LINE SMOOTH",
"227 108 OFFCURVE",
"224 112 OFFCURVE",
"224 123 CURVE SMOOTH",
"224 281 LINE SMOOTH",
"224 319 OFFCURVE",
"233 334 OFFCURVE",
"248 334 CURVE SMOOTH",
"259 334 OFFCURVE",
"264 327 OFFCURVE",
"264 312 CURVE SMOOTH",
"264 123 LINE SMOOTH",
"264 112 OFFCURVE",
"261 108 OFFCURVE",
"254 108 CURVE SMOOTH",
"250 108 LINE",
"250 0 LINE",
"482 0 LINE",
"482 108 LINE",
"470 108 LINE SMOOTH",
"450 108 OFFCURVE",
"440 119 OFFCURVE",
"440 139 CURVE SMOOTH",
"440 345 LINE SMOOTH",
"440 426 OFFCURVE",
"397 476 OFFCURVE",
"326 476 CURVE SMOOTH",
"284 476 OFFCURVE",
"248 457 OFFCURVE",
"228 413 CURVE",
"224 413 LINE",
"224 665 LINE",
"6 665 LINE",
"6 557 LINE",
"18 557 LINE SMOOTH",
"38 557 OFFCURVE",
"48 546 OFFCURVE",
"48 526 CURVE SMOOTH",
"48 139 LINE SMOOTH",
"48 119 OFFCURVE",
"38 108 OFFCURVE",
"18 108 CURVE SMOOTH",
"6 108 LINE"
);
}
);
width = 488;
}
);
unicode = 0068;
},
{
glyphname = i;
lastChange = "2015-03-09 06:55:59 +0000";
layers = (
{
layerId = UUID0;
name = "Light Extended";
paths = (
{
closed = 1;
nodes = (
"34 0 LINE",
"270 0 LINE",
"270 27 LINE",
"198 27 LINE SMOOTH",
"181 27 OFFCURVE",
"175 40 OFFCURVE",
"175 59 CURVE SMOOTH",
"175 450 LINE",
"36 450 LINE",
"36 423 LINE",
"96 423 LINE SMOOTH",
"125 423 OFFCURVE",
"131 410 OFFCURVE",
"131 382 CURVE SMOOTH",
"131 59 LINE SMOOTH",
"131 40 OFFCURVE",
"125 27 OFFCURVE",
"104 27 CURVE SMOOTH",
"34 27 LINE"
);
},
{
closed = 1;
nodes = (
"172 568 OFFCURVE",
"184 581 OFFCURVE",
"184 617 CURVE SMOOTH",
"184 653 OFFCURVE",
"172 666 OFFCURVE",
"150 666 CURVE SMOOTH",
"129 666 OFFCURVE",
"117 653 OFFCURVE",
"117 617 CURVE SMOOTH",
"117 581 OFFCURVE",
"129 568 OFFCURVE",
"151 568 CURVE SMOOTH"
);
}
);
width = 304;
},
{
layerId = "4355E1B8-19E6-44BD-A1D7-6E3C2DECA4C8";
name = Extended;
paths = (
{
closed = 1;
nodes = (
"21 0 LINE",
"320 0 LINE",
"320 80 LINE",
"259 80 LINE SMOOTH",
"242 80 OFFCURVE",
"236 93 OFFCURVE",
"236 112 CURVE SMOOTH",
"236 450 LINE",
"21 450 LINE",
"21 370 LINE",
"71 370 LINE SMOOTH",
"100 370 OFFCURVE",
"106 357 OFFCURVE",
"106 329 CURVE SMOOTH",
"106 112 LINE SMOOTH",
"106 93 OFFCURVE",
"100 80 OFFCURVE",
"79 80 CURVE SMOOTH",
"21 80 LINE"
);
},
{
closed = 1;
nodes = (
"219 517 OFFCURVE",
"246 539 OFFCURVE",
"246 594 CURVE SMOOTH",
"246 651 OFFCURVE",
"216 673 OFFCURVE",
"165 673 CURVE SMOOTH",
"115 673 OFFCURVE",
"84 651 OFFCURVE",
"84 595 CURVE SMOOTH",
"84 538 OFFCURVE",
"115 517 OFFCURVE",
"166 517 CURVE SMOOTH"
);
}
);
width = 343;
},
{
layerId = "14C77FDB-037D-4842-9381-6D9ED15DD48C";
name = "Bold Extended";
paths = (
{
closed = 1;
nodes = (
"5 0 LINE",
"397 0 LINE",
"397 142 LINE",
"342 142 LINE SMOOTH",
"322 142 OFFCURVE",
"316 149 OFFCURVE",
"316 177 CURVE SMOOTH",
"316 480 LINE",
"5 480 LINE",
"5 338 LINE",
"60 338 LINE SMOOTH",
"80 338 OFFCURVE",
"86 331 OFFCURVE",
"86 303 CURVE SMOOTH",
"86 177 LINE SMOOTH",
"86 149 OFFCURVE",
"80 142 OFFCURVE",
"60 142 CURVE SMOOTH",
"5 142 LINE"
);
},
{
closed = 1;
nodes = (
"293 512 OFFCURVE",
"330 547 OFFCURVE",
"330 614 CURVE SMOOTH",
"330 683 OFFCURVE",
"286 718 OFFCURVE",
"202 718 CURVE SMOOTH",
"119 718 OFFCURVE",
"72 683 OFFCURVE",
"72 615 CURVE SMOOTH",
"72 546 OFFCURVE",
"119 512 OFFCURVE",
"203 512 CURVE SMOOTH"
);
}
);
width = 402;
},
{
background = {
paths = (
{
closed = 1;
nodes = (
"10 0 LINE",
"182 0 LINE",
"182 25 LINE",
"139 25 LINE SMOOTH",
"122 25 OFFCURVE",
"116 38 OFFCURVE",
"116 57 CURVE SMOOTH",
"116 450 LINE",
"11 450 LINE",
"11 425 LINE",
"41 425 LINE SMOOTH",
"70 425 OFFCURVE",
"76 412 OFFCURVE",
"76 384 CURVE SMOOTH",
"76 57 LINE SMOOTH",
"76 38 OFFCURVE",
"70 25 OFFCURVE",
"49 25 CURVE SMOOTH",
"10 25 LINE"
);
},
{
closed = 1;
nodes = (
"114 579 OFFCURVE",
"125 592 OFFCURVE",
"125 627 CURVE SMOOTH",
"125 662 OFFCURVE",
"114 675 OFFCURVE",
"94 675 CURVE SMOOTH",
"74 675 OFFCURVE",
"63 662 OFFCURVE",
"63 627 CURVE SMOOTH",
"63 592 OFFCURVE",
"74 579 OFFCURVE",
"94 579 CURVE SMOOTH"
);
}
);
};
layerId = "E9E6D55E-9446-45F2-B66C-3272698B0216";
name = "Light Condensed";
paths = (
{
closed = 1;
nodes = (
"10 0 LINE",
"182 0 LINE",
"182 25 LINE",
"139 25 LINE SMOOTH",
"122 25 OFFCURVE",
"116 38 OFFCURVE",
"116 57 CURVE SMOOTH",
"116 450 LINE",
"11 450 LINE",
"11 425 LINE",
"41 425 LINE SMOOTH",
"70 425 OFFCURVE",
"76 412 OFFCURVE",
"76 384 CURVE SMOOTH",
"76 57 LINE SMOOTH",
"76 38 OFFCURVE",
"70 25 OFFCURVE",
"49 25 CURVE SMOOTH",
"10 25 LINE"
);
},
{
closed = 1;
nodes = (
"116 569 OFFCURVE",
"127 582 OFFCURVE",
"127 617 CURVE SMOOTH",
"127 652 OFFCURVE",
"116 665 OFFCURVE",
"96 665 CURVE SMOOTH",
"76 665 OFFCURVE",
"65 652 OFFCURVE",
"65 617 CURVE SMOOTH",
"65 582 OFFCURVE",
"76 569 OFFCURVE",
"96 569 CURVE SMOOTH"
);
}
);
width = 192;
},
{
background = {
paths = (
{
closed = 1;
nodes = (
"9 0 LINE",
"257 0 LINE",
"257 80 LINE",
"223 80 LINE SMOOTH",
"203 80 OFFCURVE",
"198 93 OFFCURVE",
"198 113 CURVE SMOOTH",
"198 450 LINE",
"9 450 LINE",
"9 370 LINE",
"43 370 LINE SMOOTH",
"63 370 OFFCURVE",
"68 357 OFFCURVE",
"68 337 CURVE SMOOTH",
"68 113 LINE SMOOTH",
"68 93 OFFCURVE",
"63 80 OFFCURVE",
"43 80 CURVE SMOOTH",
"9 80 LINE"
);
},
{
closed = 1;
nodes = (
"194 519 OFFCURVE",
"221 541 OFFCURVE",
"221 596 CURVE SMOOTH",
"221 653 OFFCURVE",
"191 675 OFFCURVE",
"140 675 CURVE SMOOTH",
"90 675 OFFCURVE",
"59 653 OFFCURVE",
"59 597 CURVE SMOOTH",
"59 540 OFFCURVE",
"90 519 OFFCURVE",
"141 519 CURVE SMOOTH"
);
}
);
};
layerId = "B25F85BC-C782-4067-8484-07202F80B8CD";
name = Condensed;
paths = (
{
closed = 1;
nodes = (
"16 0 LINE",
"264 0 LINE",
"264 80 LINE",
"230 80 LINE SMOOTH",
"210 80 OFFCURVE",
"205 93 OFFCURVE",
"205 113 CURVE SMOOTH",
"205 450 LINE",
"16 450 LINE",
"16 370 LINE",
"50 370 LINE SMOOTH",
"70 370 OFFCURVE",
"75 357 OFFCURVE",
"75 337 CURVE SMOOTH",
"75 113 LINE SMOOTH",
"75 93 OFFCURVE",
"70 80 OFFCURVE",
"50 80 CURVE SMOOTH",
"16 80 LINE"
);
},
{
closed = 1;
nodes = (
"194 519 OFFCURVE",
"221 541 OFFCURVE",
"221 596 CURVE SMOOTH",
"221 653 OFFCURVE",
"191 675 OFFCURVE",
"140 675 CURVE SMOOTH",
"90 675 OFFCURVE",
"59 653 OFFCURVE",
"59 597 CURVE SMOOTH",
"59 540 OFFCURVE",
"90 519 OFFCURVE",
"141 519 CURVE SMOOTH"
);
}
);
width = 280;
},
{
background = {
paths = (
{
closed = 1;
nodes = (
"6 0 LINE",
"266 0 LINE",
"266 108 LINE",
"254 108 LINE SMOOTH",
"234 108 OFFCURVE",
"224 119 OFFCURVE",
"224 139 CURVE SMOOTH",
"224 466 LINE",
"6 466 LINE",
"6 358 LINE",
"18 358 LINE SMOOTH",
"38 358 OFFCURVE",
"48 347 OFFCURVE",
"48 327 CURVE SMOOTH",
"48 139 LINE SMOOTH",
"48 119 OFFCURVE",
"38 108 OFFCURVE",
"18 108 CURVE SMOOTH",
"6 108 LINE"
);
},
{
closed = 1;
nodes = (
"200 511 OFFCURVE",
"235 543 OFFCURVE",
"235 603 CURVE SMOOTH",
"235 665 OFFCURVE",
"195 697 OFFCURVE",
"129 697 CURVE SMOOTH",
"64 697 OFFCURVE",
"23 665 OFFCURVE",
"23 604 CURVE SMOOTH",
"23 542 OFFCURVE",
"64 511 OFFCURVE",
"130 511 CURVE SMOOTH"
);
}
);
};
layerId = "B817C739-5D48-43E8-AAEE-CE891513D7BC";
name = "Bold Condensed";
paths = (
{
closed = 1;
nodes = (
"6 0 LINE",
"266 0 LINE",
"266 108 LINE",
"254 108 LINE SMOOTH",
"234 108 OFFCURVE",
"224 119 OFFCURVE",
"224 139 CURVE SMOOTH",
"224 466 LINE",
"6 466 LINE",
"6 358 LINE",
"18 358 LINE SMOOTH",
"38 358 OFFCURVE",
"48 347 OFFCURVE",
"48 327 CURVE SMOOTH",
"48 139 LINE SMOOTH",
"48 119 OFFCURVE",
"38 108 OFFCURVE",
"18 108 CURVE SMOOTH",
"6 108 LINE"
);
},
{
closed = 1;
nodes = (
"207 507 OFFCURVE",
"242 537 OFFCURVE",
"242 597 CURVE SMOOTH",
"242 659 OFFCURVE",
"202 689 OFFCURVE",
"136 689 CURVE SMOOTH",
"71 689 OFFCURVE",
"30 659 OFFCURVE",
"30 598 CURVE SMOOTH",
"30 536 OFFCURVE",
"71 507 OFFCURVE",
"137 507 CURVE SMOOTH"
);
}
);
width = 272;
}
);
unicode = 0069;
},
{
glyphname = j;
lastChange = "2015-03-25 19:55:31 +0000";
layers = (
{
layerId = "E9E6D55E-9446-45F2-B66C-3272698B0216";
name = "Light Condensed";
paths = (
{
closed = 1;
nodes = (
"73 -226 OFFCURVE",
"116 -186 OFFCURVE",
"116 -90 CURVE SMOOTH",
"116 450 LINE",
"11 450 LINE",
"11 425 LINE",
"41 425 LINE SMOOTH",
"70 425 OFFCURVE",
"76 412 OFFCURVE",
"76 384 CURVE SMOOTH",
"76 -91 LINE SMOOTH",
"76 -165 OFFCURVE",
"51 -195 OFFCURVE",
"15 -195 CURVE SMOOTH",
"-15 -195 OFFCURVE",
"-33 -175 OFFCURVE",
"-33 -151 CURVE SMOOTH",
"-33 -126 OFFCURVE",
"-12 -126 OFFCURVE",
"-12 -102 CURVE SMOOTH",
"-12 -84 OFFCURVE",
"-23 -71 OFFCURVE",
"-42 -71 CURVE SMOOTH",
"-66 -71 OFFCURVE",
"-79 -91 OFFCURVE",
"-79 -126 CURVE SMOOTH",
"-79 -185 OFFCURVE",
"-43 -226 OFFCURVE",
"15 -226 CURVE SMOOTH"
);
},
{
closed = 1;
nodes = (
"116 569 OFFCURVE",
"127 582 OFFCURVE",
"127 617 CURVE SMOOTH",
"127 652 OFFCURVE",
"116 665 OFFCURVE",
"96 665 CURVE SMOOTH",
"76 665 OFFCURVE",
"65 652 OFFCURVE",
"65 617 CURVE SMOOTH",
"65 582 OFFCURVE",
"76 569 OFFCURVE",
"96 569 CURVE SMOOTH"
);
}
);
width = 192;
},
{
layerId = "B25F85BC-C782-4067-8484-07202F80B8CD";
name = Condensed;
paths = (
{
closed = 1;
nodes = (
"147 -228 OFFCURVE",
"204 -167 OFFCURVE",
"204 -53 CURVE SMOOTH",
"204 450 LINE",
"15 450 LINE",
"15 370 LINE",
"46 370 LINE SMOOTH",
"64 370 OFFCURVE",
"74 361 OFFCURVE",
"74 343 CURVE SMOOTH",
"74 -78 LINE SMOOTH",
"74 -126 OFFCURVE",
"61 -152 OFFCURVE",
"38 -152 CURVE SMOOTH",
"24 -152 OFFCURVE",
"15 -143 OFFCURVE",
"15 -131 CURVE SMOOTH",
"15 -115 OFFCURVE",
"30 -106 OFFCURVE",
"30 -83 CURVE SMOOTH",
"30 -55 OFFCURVE",
"7 -36 OFFCURVE",
"-27 -36 CURVE SMOOTH",
"-69 -36 OFFCURVE",
"-95 -66 OFFCURVE",
"-95 -116 CURVE SMOOTH",
"-95 -186 OFFCURVE",
"-44 -228 OFFCURVE",
"43 -228 CURVE SMOOTH"
);
},
{
closed = 1;
nodes = (
"193 519 OFFCURVE",
"220 541 OFFCURVE",
"220 596 CURVE SMOOTH",
"220 653 OFFCURVE",
"190 675 OFFCURVE",
"139 675 CURVE SMOOTH",
"89 675 OFFCURVE",
"58 653 OFFCURVE",
"58 597 CURVE SMOOTH",
"58 540 OFFCURVE",
"89 519 OFFCURVE",
"140 519 CURVE SMOOTH"
);
}
);
width = 265;
},
{
layerId = "B817C739-5D48-43E8-AAEE-CE891513D7BC";
name = "Bold Condensed";
paths = (
{
closed = 1;
nodes = (
"158 -226 OFFCURVE",
"227 -166 OFFCURVE",
"227 -51 CURVE SMOOTH",
"227 466 LINE",
"9 466 LINE",
"9 358 LINE",
"21 358 LINE SMOOTH",
"39 358 OFFCURVE",
"51 348 OFFCURVE",
"51 330 CURVE SMOOTH",
"51 -96 LINE SMOOTH",
"51 -126 OFFCURVE",
"42 -140 OFFCURVE",
"24 -140 CURVE SMOOTH",
"11 -140 OFFCURVE",
"2 -133 OFFCURVE",
"2 -121 CURVE SMOOTH",
"2 -106 OFFCURVE",
"17 -104 OFFCURVE",
"17 -81 CURVE SMOOTH",
"17 -49 OFFCURVE",
"-6 -29 OFFCURVE",
"-60 -29 CURVE SMOOTH",
"-119 -29 OFFCURVE",
"-150 -62 OFFCURVE",
"-150 -113 CURVE SMOOTH",
"-150 -183 OFFCURVE",
"-83 -226 OFFCURVE",
"27 -226 CURVE SMOOTH"
);
},
{
closed = 1;
nodes = (
"210 507 OFFCURVE",
"245 537 OFFCURVE",
"245 597 CURVE SMOOTH",
"245 659 OFFCURVE",
"205 689 OFFCURVE",
"139 689 CURVE SMOOTH",
"74 689 OFFCURVE",
"33 659 OFFCURVE",
"33 598 CURVE SMOOTH",
"33 536 OFFCURVE",
"74 507 OFFCURVE",
"140 507 CURVE SMOOTH"
);
}
);
width = 275;
},
{
layerId = UUID0;
name = "Light Extended";
paths = (
{
closed = 1;
nodes = (
"122 -225 OFFCURVE",
"175 -158 OFFCURVE",
"175 -30 CURVE SMOOTH",
"175 450 LINE",
"12 450 LINE",
"12 423 LINE",
"102 423 LINE SMOOTH",
"124 423 OFFCURVE",
"135 412 OFFCURVE",
"135 391 CURVE SMOOTH",
"135 -30 LINE SMOOTH",
"135 -140 OFFCURVE",
"96 -194 OFFCURVE",
"17 -194 CURVE SMOOTH",
"-31 -194 OFFCURVE",
"-64 -173 OFFCURVE",
"-64 -141 CURVE SMOOTH",
"-64 -115 OFFCURVE",
"-40 -113 OFFCURVE",
"-40 -87 CURVE SMOOTH",
"-40 -68 OFFCURVE",
"-54 -54 OFFCURVE",
"-72 -54 CURVE SMOOTH",
"-95 -54 OFFCURVE",
"-110 -77 OFFCURVE",
"-110 -114 CURVE SMOOTH",
"-110 -183 OFFCURVE",
"-61 -225 OFFCURVE",
"20 -225 CURVE SMOOTH"
);
},
{
closed = 1;
nodes = (
"169 569 OFFCURVE",
"180 582 OFFCURVE",
"180 617 CURVE SMOOTH",
"180 652 OFFCURVE",
"169 665 OFFCURVE",
"149 665 CURVE SMOOTH",
"129 665 OFFCURVE",
"118 652 OFFCURVE",
"118 617 CURVE SMOOTH",
"118 582 OFFCURVE",
"129 569 OFFCURVE",
"149 569 CURVE SMOOTH"
);
}
);
width = 214;
},
{
layerId = "4355E1B8-19E6-44BD-A1D7-6E3C2DECA4C8";
name = Extended;
paths = (
{
closed = 1;
nodes = (
"167 -225 OFFCURVE",
"236 -161 OFFCURVE",
"236 -40 CURVE SMOOTH",
"236 450 LINE",
"-8 450 LINE",
"-8 370 LINE",
"72 370 LINE SMOOTH",
"96 370 OFFCURVE",
"106 361 OFFCURVE",
"106 334 CURVE SMOOTH",
"106 -65 LINE SMOOTH",
"106 -119 OFFCURVE",
"81 -149 OFFCURVE",
"40 -149 CURVE SMOOTH",
"8 -149 OFFCURVE",
"-13 -140 OFFCURVE",
"-13 -128 CURVE SMOOTH",
"-13 -112 OFFCURVE",
"2 -103 OFFCURVE",
"2 -80 CURVE SMOOTH",
"2 -52 OFFCURVE",
"-21 -33 OFFCURVE",
"-55 -33 CURVE SMOOTH",
"-97 -33 OFFCURVE",
"-123 -63 OFFCURVE",
"-123 -113 CURVE SMOOTH",
"-123 -183 OFFCURVE",
"-60 -225 OFFCURVE",
"45 -225 CURVE SMOOTH"
);
},
{
closed = 1;
nodes = (
"219 517 OFFCURVE",
"246 539 OFFCURVE",
"246 594 CURVE SMOOTH",
"246 651 OFFCURVE",
"216 673 OFFCURVE",
"165 673 CURVE SMOOTH",
"115 673 OFFCURVE",
"84 651 OFFCURVE",
"84 595 CURVE SMOOTH",
"84 538 OFFCURVE",
"115 517 OFFCURVE",
"166 517 CURVE SMOOTH"
);
}
);
width = 331;
},
{
layerId = "14C77FDB-037D-4842-9381-6D9ED15DD48C";
name = "Bold Extended";
paths = (
{
closed = 1;
nodes = (
"228 -231 OFFCURVE",
"316 -167 OFFCURVE",
"316 -31 CURVE SMOOTH",
"316 480 LINE",
"5 480 LINE",
"5 338 LINE",
"58 338 LINE SMOOTH",
"78 338 OFFCURVE",
"86 330 OFFCURVE",
"86 311 CURVE SMOOTH",
"86 -56 LINE SMOOTH",
"86 -101 OFFCURVE",
"70 -120 OFFCURVE",
"34 -120 CURVE SMOOTH",
"11 -120 OFFCURVE",
"-3 -112 OFFCURVE",
"-3 -100 CURVE SMOOTH",
"-3 -88 OFFCURVE",
"12 -80 OFFCURVE",
"12 -58 CURVE SMOOTH",
"12 -26 OFFCURVE",
"-22 -4 OFFCURVE",
"-73 -4 CURVE SMOOTH",
"-142 -4 OFFCURVE",
"-185 -43 OFFCURVE",
"-185 -106 CURVE SMOOTH",
"-185 -189 OFFCURVE",
"-110 -231 OFFCURVE",
"41 -231 CURVE SMOOTH"
);
},
{
closed = 1;
nodes = (
"293 512 OFFCURVE",
"330 547 OFFCURVE",
"330 614 CURVE SMOOTH",
"330 683 OFFCURVE",
"286 718 OFFCURVE",
"202 718 CURVE SMOOTH",
"119 718 OFFCURVE",
"72 683 OFFCURVE",
"72 615 CURVE SMOOTH",
"72 546 OFFCURVE",
"119 512 OFFCURVE",
"203 512 CURVE SMOOTH"
);
}
);
width = 335;
}
);
unicode = 006A;
},
{
glyphname = k;
lastChange = "2015-03-25 19:45:51 +0000";
layers = (
{
layerId = "E9E6D55E-9446-45F2-B66C-3272698B0216";
name = "Light Condensed";
paths = (
{
closed = 1;
nodes = (
"10 665 LINE",
"10 640 LINE",
"49 640 LINE SMOOTH",
"69 640 OFFCURVE",
"76 630 OFFCURVE",
"76 608 CURVE SMOOTH",
"76 57 LINE SMOOTH",
"76 35 OFFCURVE",
"69 25 OFFCURVE",
"49 25 CURVE SMOOTH",
"10 25 LINE",
"10 0 LINE",
"176 0 LINE",
"176 25 LINE",
"143 25 LINE SMOOTH",
"123 25 OFFCURVE",
"116 35 OFFCURVE",
"116 57 CURVE SMOOTH",
"116 665 LINE"
);
},
{
closed = 1;
nodes = (
"304 407 LINE SMOOTH",
"316 422 OFFCURVE",
"325 425 OFFCURVE",
"338 425 CURVE SMOOTH",
"359 425 LINE",
"359 450 LINE",
"208 450 LINE",
"208 425 LINE",
"242 425 LINE SMOOTH",
"253 425 OFFCURVE",
"259 421 OFFCURVE",
"259 414 CURVE SMOOTH",
"259 409 OFFCURVE",
"256 404 OFFCURVE",
"251 397 CURVE",
"89 191 LINE",
"102 154 LINE"
);
},
{
closed = 1;
nodes = (
"269 49 LINE",
"271 45 OFFCURVE",
"272 41 OFFCURVE",
"272 38 CURVE SMOOTH",
"272 31 OFFCURVE",
"267 25 OFFCURVE",
"255 25 CURVE SMOOTH",
"208 25 LINE",
"208 0 LINE",
"374 0 LINE",
"374 25 LINE",
"351 25 LINE SMOOTH",
"338 25 OFFCURVE",
"323 29 OFFCURVE",
"317 43 CURVE SMOOTH",
"207 306 LINE",
"178 265 LINE"
);
}
);
width = 384;
},
{
layerId = "B25F85BC-C782-4067-8484-07202F80B8CD";
name = Condensed;
paths = (
{
closed = 1;
nodes = (
"16 665 LINE",
"16 585 LINE",
"48 585 LINE SMOOTH",
"68 585 OFFCURVE",
"75 575 OFFCURVE",
"75 553 CURVE SMOOTH",
"75 112 LINE SMOOTH",
"75 90 OFFCURVE",
"68 80 OFFCURVE",
"48 80 CURVE SMOOTH",
"16 80 LINE",
"16 0 LINE",
"232 0 LINE",
"232 80 LINE",
"224 80 LINE SMOOTH",
"212 80 OFFCURVE",
"205 90 OFFCURVE",
"205 105 CURVE SMOOTH",
"205 665 LINE"
);
},
{
closed = 1;
nodes = (
"394 352 LINE SMOOTH",
"406 364 OFFCURVE",
"415 370 OFFCURVE",
"428 370 CURVE SMOOTH",
"449 370 LINE",
"449 450 LINE",
"224 450 LINE",
"224 370 LINE",
"258 370 LINE SMOOTH",
"269 370 OFFCURVE",
"274 364 OFFCURVE",
"274 357 CURVE SMOOTH",
"274 352 OFFCURVE",
"272 346 OFFCURVE",
"267 342 CURVE",
"105 191 LINE",
"192 154 LINE"
);
},
{
closed = 1;
nodes = (
"272 104 LINE",
"274 100 OFFCURVE",
"275 96 OFFCURVE",
"275 93 CURVE SMOOTH",
"275 86 OFFCURVE",
"270 80 OFFCURVE",
"258 80 CURVE SMOOTH",
"248 80 LINE",
"248 0 LINE",
"464 0 LINE",
"464 80 LINE",
"447 80 LINE SMOOTH",
"429 80 OFFCURVE",
"421 83 OFFCURVE",
"416 95 CURVE SMOOTH",
"319 326 LINE",
"221 233 LINE"
);
}
);
width = 480;
},
{
layerId = "B817C739-5D48-43E8-AAEE-CE891513D7BC";
name = "Bold Condensed";
paths = (
{
closed = 1;
nodes = (
"6 665 LINE",
"6 557 LINE",
"19 557 LINE SMOOTH",
"39 557 OFFCURVE",
"48 546 OFFCURVE",
"48 524 CURVE SMOOTH",
"48 141 LINE SMOOTH",
"48 119 OFFCURVE",
"39 108 OFFCURVE",
"19 108 CURVE SMOOTH",
"6 108 LINE",
"6 0 LINE",
"238 0 LINE",
"238 108 LINE",
"233 108 LINE SMOOTH",
"227 108 OFFCURVE",
"224 113 OFFCURVE",
"224 123 CURVE SMOOTH",
"224 665 LINE"
);
},
{
closed = 1;
nodes = (
"430 342 LINE SMOOTH",
"444 354 OFFCURVE",
"455 360 OFFCURVE",
"468 360 CURVE SMOOTH",
"478 360 LINE",
"478 466 LINE",
"248 466 LINE",
"248 360 LINE",
"254 360 LINE SMOOTH",
"264 360 OFFCURVE",
"270 356 OFFCURVE",
"270 347 CURVE SMOOTH",
"270 341 OFFCURVE",
"267 335 OFFCURVE",
"263 332 CURVE",
"105 191 LINE",
"211 144 LINE"
);
},
{
closed = 1;
nodes = (
"265 132 LINE SMOOTH",
"267 128 OFFCURVE",
"268 125 OFFCURVE",
"268 122 CURVE SMOOTH",
"268 114 OFFCURVE",
"261 108 OFFCURVE",
"254 108 CURVE SMOOTH",
"250 108 LINE",
"250 0 LINE",
"482 0 LINE",
"482 108 LINE",
"474 108 LINE SMOOTH",
"455 108 OFFCURVE",
"448 112 OFFCURVE",
"443 123 CURVE SMOOTH",
"346 326 LINE",
"217 233 LINE"
);
}
);
width = 488;
},
{
layerId = UUID0;
name = "Light Extended";
paths = (
{
closed = 1;
nodes = (
"34 665 LINE",
"34 638 LINE",
"100 638 LINE SMOOTH",
"120 638 OFFCURVE",
"131 626 OFFCURVE",
"131 604 CURVE SMOOTH",
"131 59 LINE SMOOTH",
"131 37 OFFCURVE",
"122 27 OFFCURVE",
"102 27 CURVE SMOOTH",
"34 27 LINE",
"34 0 LINE",
"273 0 LINE",
"273 27 LINE",
"201 27 LINE SMOOTH",
"182 27 OFFCURVE",
"175 36 OFFCURVE",
"175 59 CURVE SMOOTH",
"175 665 LINE"
);
},
{
closed = 1;
nodes = (
"468 405 LINE SMOOTH",
"484 417 OFFCURVE",
"502 423 OFFCURVE",
"520 423 CURVE SMOOTH",
"565 423 LINE",
"565 450 LINE",
"336 450 LINE",
"336 423 LINE",
"387 423 LINE SMOOTH",
"397 423 OFFCURVE",
"405 418 OFFCURVE",
"405 412 CURVE SMOOTH",
"405 408 OFFCURVE",
"401 403 OFFCURVE",
"397 398 CURVE",
"141 191 LINE",
"154 154 LINE"
);
},
{
closed = 1;
nodes = (
"428 53 LINE",
"430 50 OFFCURVE",
"432 47 OFFCURVE",
"432 43 CURVE SMOOTH",
"432 33 OFFCURVE",
"425 27 OFFCURVE",
"414 27 CURVE SMOOTH",
"346 27 LINE",
"346 0 LINE",
"586 0 LINE",
"586 27 LINE",
"539 27 LINE SMOOTH",
"517 27 OFFCURVE",
"503 31 OFFCURVE",
"495 41 CURVE SMOOTH",
"292 296 LINE",
"263 255 LINE"
);
}
);
width = 585;
},
{
layerId = "4355E1B8-19E6-44BD-A1D7-6E3C2DECA4C8";
name = Extended;
paths = (
{
closed = 1;
nodes = (
"21 665 LINE",
"21 585 LINE",
"76 585 LINE SMOOTH",
"96 585 OFFCURVE",
"103 575 OFFCURVE",
"103 553 CURVE SMOOTH",
"103 112 LINE SMOOTH",
"103 90 OFFCURVE",
"96 80 OFFCURVE",
"76 80 CURVE SMOOTH",
"21 80 LINE",
"21 0 LINE",
"315 0 LINE",
"315 80 LINE",
"252 80 LINE SMOOTH",
"240 80 OFFCURVE",
"233 90 OFFCURVE",
"233 105 CURVE SMOOTH",
"233 665 LINE"
);
},
{
closed = 1;
nodes = (
"542 358 LINE SMOOTH",
"557 367 OFFCURVE",
"565 370 OFFCURVE",
"581 370 CURVE SMOOTH",
"626 370 LINE",
"626 450 LINE",
"311 450 LINE",
"311 370 LINE",
"365 370 LINE SMOOTH",
"376 370 OFFCURVE",
"382 363 OFFCURVE",
"382 355 CURVE SMOOTH",
"382 350 OFFCURVE",
"378 345 OFFCURVE",
"374 342 CURVE",
"132 191 LINE",
"219 154 LINE"
);
},
{
closed = 1;
nodes = (
"405 104 LINE SMOOTH",
"408 100 OFFCURVE",
"409 97 OFFCURVE",
"409 94 CURVE SMOOTH",
"409 86 OFFCURVE",
"400 80 OFFCURVE",
"391 80 CURVE SMOOTH",
"350 80 LINE",
"350 0 LINE",
"641 0 LINE",
"641 80 LINE",
"607 80 LINE SMOOTH",
"589 80 OFFCURVE",
"577 84 OFFCURVE",
"569 95 CURVE SMOOTH",
"412 316 LINE",
"314 223 LINE"
);
}
);
width = 651;
},
{
layerId = "14C77FDB-037D-4842-9381-6D9ED15DD48C";
name = "Bold Extended";
paths = (
{
closed = 1;
nodes = (
"5 665 LINE",
"5 523 LINE",
"59 523 LINE SMOOTH",
"80 523 OFFCURVE",
"86 512 OFFCURVE",
"86 492 CURVE SMOOTH",
"86 170 LINE SMOOTH",
"86 153 OFFCURVE",
"80 142 OFFCURVE",
"61 142 CURVE SMOOTH",
"5 142 LINE",
"5 0 LINE",
"363 0 LINE",
"363 142 LINE",
"338 142 LINE SMOOTH",
"323 142 OFFCURVE",
"316 148 OFFCURVE",
"316 166 CURVE SMOOTH",
"316 665 LINE"
);
},
{
closed = 1;
nodes = (
"683 330 LINE SMOOTH",
"701 337 OFFCURVE",
"706 340 OFFCURVE",
"722 340 CURVE SMOOTH",
"740 340 LINE",
"740 480 LINE",
"353 480 LINE",
"353 340 LINE",
"389 340 LINE SMOOTH",
"400 340 OFFCURVE",
"403 335 OFFCURVE",
"403 331 CURVE SMOOTH",
"403 327 OFFCURVE",
"399 323 OFFCURVE",
"393 321 CURVE SMOOTH",
"190 251 LINE",
"296 174 LINE"
);
},
{
closed = 1;
nodes = (
"427 166 LINE",
"429 162 OFFCURVE",
"430 159 OFFCURVE",
"430 156 CURVE SMOOTH",
"430 148 OFFCURVE",
"423 142 OFFCURVE",
"416 142 CURVE SMOOTH",
"387 142 LINE",
"387 0 LINE",
"746 0 LINE",
"746 142 LINE",
"708 142 LINE SMOOTH",
"689 142 OFFCURVE",
"682 145 OFFCURVE",
"677 157 CURVE",
"580 326 LINE",
"379 233 LINE"
);
}
);
width = 751;
}
);
unicode = 006B;
},
{
glyphname = l;
lastChange = "2015-03-25 19:45:54 +0000";
layers = (
{
layerId = "E9E6D55E-9446-45F2-B66C-3272698B0216";
name = "Light Condensed";
paths = (
{
closed = 1;
nodes = (
"180 0 LINE",
"180 25 LINE",
"137 25 LINE SMOOTH",
"120 25 OFFCURVE",
"114 38 OFFCURVE",
"114 57 CURVE SMOOTH",
"114 665 LINE",
"9 665 LINE",
"9 640 LINE",
"39 640 LINE SMOOTH",
"68 640 OFFCURVE",
"74 627 OFFCURVE",
"74 599 CURVE SMOOTH",
"74 57 LINE SMOOTH",
"74 38 OFFCURVE",
"68 25 OFFCURVE",
"47 25 CURVE SMOOTH",
"8 25 LINE",
"8 0 LINE"
);
}
);
width = 195;
},
{
layerId = "B25F85BC-C782-4067-8484-07202F80B8CD";
name = Condensed;
paths = (
{
closed = 1;
nodes = (
"264 0 LINE",
"264 80 LINE",
"230 80 LINE SMOOTH",
"210 80 OFFCURVE",
"205 93 OFFCURVE",
"205 113 CURVE SMOOTH",
"205 665 LINE",
"16 665 LINE",
"16 585 LINE",
"50 585 LINE SMOOTH",
"70 585 OFFCURVE",
"75 572 OFFCURVE",
"75 552 CURVE SMOOTH",
"75 113 LINE SMOOTH",
"75 93 OFFCURVE",
"70 80 OFFCURVE",
"50 80 CURVE SMOOTH",
"16 80 LINE",
"16 0 LINE"
);
}
);
width = 280;
},
{
layerId = "B817C739-5D48-43E8-AAEE-CE891513D7BC";
name = "Bold Condensed";
paths = (
{
closed = 1;
nodes = (
"266 0 LINE",
"266 108 LINE",
"254 108 LINE SMOOTH",
"234 108 OFFCURVE",
"224 119 OFFCURVE",
"224 139 CURVE SMOOTH",
"224 665 LINE",
"6 665 LINE",
"6 557 LINE",
"18 557 LINE SMOOTH",
"38 557 OFFCURVE",
"48 546 OFFCURVE",
"48 526 CURVE SMOOTH",
"48 139 LINE SMOOTH",
"48 119 OFFCURVE",
"38 108 OFFCURVE",
"18 108 CURVE SMOOTH",
"6 108 LINE",
"6 0 LINE"
);
}
);
width = 272;
},
{
layerId = UUID0;
name = "Light Extended";
paths = (
{
closed = 1;
nodes = (
"270 0 LINE",
"270 27 LINE",
"198 27 LINE SMOOTH",
"181 27 OFFCURVE",
"175 40 OFFCURVE",
"175 59 CURVE SMOOTH",
"175 665 LINE",
"35 665 LINE",
"35 640 LINE",
"96 640 LINE SMOOTH",
"125 640 OFFCURVE",
"131 627 OFFCURVE",
"131 599 CURVE SMOOTH",
"131 59 LINE SMOOTH",
"131 40 OFFCURVE",
"125 27 OFFCURVE",
"104 27 CURVE SMOOTH",
"34 27 LINE",
"34 0 LINE"
);
}
);
width = 304;
},
{
layerId = "4355E1B8-19E6-44BD-A1D7-6E3C2DECA4C8";
name = Extended;
paths = (
{
closed = 1;
nodes = (
"320 0 LINE",
"320 80 LINE",
"259 80 LINE SMOOTH",
"242 80 OFFCURVE",
"236 93 OFFCURVE",
"236 112 CURVE SMOOTH",
"236 665 LINE",
"21 665 LINE",
"21 585 LINE",
"71 585 LINE SMOOTH",
"100 585 OFFCURVE",
"106 572 OFFCURVE",
"106 544 CURVE SMOOTH",
"106 112 LINE SMOOTH",
"106 93 OFFCURVE",
"100 80 OFFCURVE",
"79 80 CURVE SMOOTH",
"21 80 LINE",
"21 0 LINE"
);
}
);
width = 343;
},
{
layerId = "14C77FDB-037D-4842-9381-6D9ED15DD48C";
name = "Bold Extended";
paths = (
{
closed = 1;
nodes = (
"397 0 LINE",
"397 142 LINE",
"342 142 LINE SMOOTH",
"322 142 OFFCURVE",
"316 149 OFFCURVE",
"316 177 CURVE SMOOTH",
"316 665 LINE",
"5 665 LINE",
"5 523 LINE",
"60 523 LINE SMOOTH",
"80 523 OFFCURVE",
"86 516 OFFCURVE",
"86 488 CURVE SMOOTH",
"86 177 LINE SMOOTH",
"86 149 OFFCURVE",
"80 142 OFFCURVE",
"60 142 CURVE SMOOTH",
"5 142 LINE",
"5 0 LINE"
);
}
);
width = 402;
}
);
unicode = 006C;
},
{
glyphname = m;
lastChange = "2015-03-25 19:56:23 +0000";
layers = (
{
layerId = "E9E6D55E-9446-45F2-B66C-3272698B0216";
name = "Light Condensed";
paths = (
{
closed = 1;
nodes = (
"176 0 LINE",
"176 25 LINE",
"143 25 LINE SMOOTH",
"123 25 OFFCURVE",
"116 35 OFFCURVE",
"116 57 CURVE SMOOTH",
"116 259 LINE SMOOTH",
"116 353 OFFCURVE",
"153 425 OFFCURVE",
"206 425 CURVE SMOOTH",
"237 425 OFFCURVE",
"258 400 OFFCURVE",
"258 360 CURVE SMOOTH",
"258 57 LINE SMOOTH",
"258 35 OFFCURVE",
"252 25 OFFCURVE",
"231 25 CURVE SMOOTH",
"208 25 LINE",
"208 0 LINE",
"354 0 LINE",
"354 25 LINE",
"325 25 LINE SMOOTH",
"304 25 OFFCURVE",
"298 35 OFFCURVE",
"298 57 CURVE SMOOTH",
"298 266 LINE SMOOTH",
"298 356 OFFCURVE",
"332 425 OFFCURVE",
"384 425 CURVE SMOOTH",
"415 425 OFFCURVE",
"436 400 OFFCURVE",
"436 360 CURVE SMOOTH",
"436 57 LINE SMOOTH",
"436 35 OFFCURVE",
"430 25 OFFCURVE",
"409 25 CURVE SMOOTH",
"386 25 LINE",
"386 0 LINE",
"532 0 LINE",
"532 25 LINE",
"503 25 LINE SMOOTH",
"482 25 OFFCURVE",
"476 35 OFFCURVE",
"476 57 CURVE SMOOTH",
"476 363 LINE SMOOTH",
"476 424 OFFCURVE",
"442 460 OFFCURVE",
"390 460 CURVE SMOOTH",
"348 460 OFFCURVE",
"319 436 OFFCURVE",
"299 392 CURVE",
"295 392 LINE",
"287 432 OFFCURVE",
"257 460 OFFCURVE",
"212 460 CURVE SMOOTH",
"172 460 OFFCURVE",
"141 438 OFFCURVE",
"120 392 CURVE",
"116 392 LINE",
"116 450 LINE",
"10 450 LINE",
"10 425 LINE",
"49 425 LINE SMOOTH",
"69 425 OFFCURVE",
"76 415 OFFCURVE",
"76 393 CURVE SMOOTH",
"76 57 LINE SMOOTH",
"76 35 OFFCURVE",
"69 25 OFFCURVE",
"49 25 CURVE SMOOTH",
"10 25 LINE",
"10 0 LINE"
);
}
);
width = 542;
},
{
layerId = "B25F85BC-C782-4067-8484-07202F80B8CD";
name = Condensed;
paths = (
{
closed = 1;
nodes = (
"232 0 LINE",
"232 80 LINE",
"225 80 LINE SMOOTH",
"212 80 OFFCURVE",
"205 90 OFFCURVE",
"205 107 CURVE SMOOTH",
"205 269 LINE SMOOTH",
"205 315 OFFCURVE",
"219 338 OFFCURVE",
"246 338 CURVE SMOOTH",
"265 338 OFFCURVE",
"275 322 OFFCURVE",
"275 289 CURVE SMOOTH",
"275 107 LINE SMOOTH",
"275 90 OFFCURVE",
"268 80 OFFCURVE",
"255 80 CURVE SMOOTH",
"248 80 LINE",
"248 0 LINE",
"432 0 LINE",
"432 80 LINE",
"423 80 LINE SMOOTH",
"412 80 OFFCURVE",
"405 90 OFFCURVE",
"405 107 CURVE SMOOTH",
"405 269 LINE SMOOTH",
"405 315 OFFCURVE",
"419 338 OFFCURVE",
"446 338 CURVE SMOOTH",
"465 338 OFFCURVE",
"475 322 OFFCURVE",
"475 289 CURVE SMOOTH",
"475 107 LINE SMOOTH",
"475 90 OFFCURVE",
"468 80 OFFCURVE",
"455 80 CURVE SMOOTH",
"448 80 LINE",
"448 0 LINE",
"664 0 LINE",
"664 80 LINE",
"630 80 LINE SMOOTH",
"612 80 OFFCURVE",
"605 90 OFFCURVE",
"605 113 CURVE SMOOTH",
"605 344 LINE SMOOTH",
"605 415 OFFCURVE",
"568 460 OFFCURVE",
"509 460 CURVE SMOOTH",
"460 460 OFFCURVE",
"417 428 OFFCURVE",
"405 380 CURVE",
"401.428 380 LINE",
"390.834 429.862 OFFCURVE",
"357.284 460 OFFCURVE",
"309 460 CURVE SMOOTH",
"260 460 OFFCURVE",
"221 428 OFFCURVE",
"209 380 CURVE",
"205 380 LINE",
"205 450 LINE",
"16 450 LINE",
"16 370 LINE",
"50 370 LINE SMOOTH",
"68 370 OFFCURVE",
"75 360 OFFCURVE",
"75 337 CURVE SMOOTH",
"75 113 LINE SMOOTH",
"75 90 OFFCURVE",
"68 80 OFFCURVE",
"50 80 CURVE SMOOTH",
"16 80 LINE",
"16 0 LINE"
);
}
);
width = 680;
},
{
layerId = "B817C739-5D48-43E8-AAEE-CE891513D7BC";
name = "Bold Condensed";
paths = (
{
closed = 1;
nodes = (
"238 0 LINE",
"238 108 LINE",
"234 108 LINE SMOOTH",
"227 108 OFFCURVE",
"224 112 OFFCURVE",
"224 123 CURVE SMOOTH",
"224 261 LINE SMOOTH",
"224 315 OFFCURVE",
"230 334 OFFCURVE",
"247 334 CURVE SMOOTH",
"260 334 OFFCURVE",
"264 324 OFFCURVE",
"264 292 CURVE SMOOTH",
"264 123 LINE SMOOTH",
"264 112 OFFCURVE",
"261 108 OFFCURVE",
"254 108 CURVE SMOOTH",
"250 108 LINE",
"250 0 LINE",
"454 0 LINE",
"454 108 LINE",
"450 108 LINE SMOOTH",
"443 108 OFFCURVE",
"440 112 OFFCURVE",
"440 121 CURVE SMOOTH",
"440 276 LINE SMOOTH",
"440 318 OFFCURVE",
"447 334 OFFCURVE",
"463 334 CURVE SMOOTH",
"476 334 OFFCURVE",
"480 324 OFFCURVE",
"480 292 CURVE SMOOTH",
"480 123 LINE SMOOTH",
"480 112 OFFCURVE",
"477 108 OFFCURVE",
"470 108 CURVE SMOOTH",
"466 108 LINE",
"466 0 LINE",
"698 0 LINE",
"698 108 LINE",
"686 108 LINE SMOOTH",
"666 108 OFFCURVE",
"656 119 OFFCURVE",
"656 139 CURVE SMOOTH",
"656 345 LINE SMOOTH",
"656 427 OFFCURVE",
"613 476 OFFCURVE",
"542 476 CURVE SMOOTH",
"492 476 OFFCURVE",
"457 452 OFFCURVE",
"435 403 CURVE",
"431 403 LINE",
"415 449 OFFCURVE",
"378 476 OFFCURVE",
"326 476 CURVE SMOOTH",
"280 476 OFFCURVE",
"248 455 OFFCURVE",
"228 413 CURVE",
"224 413 LINE",
"224 466 LINE",
"6 466 LINE",
"6 358 LINE",
"18 358 LINE SMOOTH",
"38 358 OFFCURVE",
"48 347 OFFCURVE",
"48 327 CURVE SMOOTH",
"48 139 LINE SMOOTH",
"48 119 OFFCURVE",
"38 108 OFFCURVE",
"18 108 CURVE SMOOTH",
"6 108 LINE",
"6 0 LINE"
);
}
);
width = 704;
},
{
layerId = UUID0;
name = "Light Extended";
paths = (
{
closed = 1;
nodes = (
"274 0 LINE",
"274 27 LINE",
"197 27 LINE SMOOTH",
"182 27 OFFCURVE",
"175 38 OFFCURVE",
"175 59 CURVE SMOOTH",
"175 223 LINE SMOOTH",
"175 351 OFFCURVE",
"230 422 OFFCURVE",
"328 422 CURVE SMOOTH",
"405 422 OFFCURVE",
"446 378 OFFCURVE",
"446 297 CURVE SMOOTH",
"446 59 LINE SMOOTH",
"446 36 OFFCURVE",
"439 27 OFFCURVE",
"421 27 CURVE SMOOTH",
"346 27 LINE",
"346 0 LINE",
"586 0 LINE",
"586 27 LINE",
"515 27 LINE SMOOTH",
"497 27 OFFCURVE",
"490 35 OFFCURVE",
"490 59 CURVE SMOOTH",
"490 261 LINE SMOOTH",
"490 362 OFFCURVE",
"546 422 OFFCURVE",
"640 422 CURVE SMOOTH",
"722 422 OFFCURVE",
"761 376 OFFCURVE",
"761 277 CURVE SMOOTH",
"761 59 LINE SMOOTH",
"761 36 OFFCURVE",
"754 27 OFFCURVE",
"736 27 CURVE SMOOTH",
"661 27 LINE",
"661 0 LINE",
"901 0 LINE",
"901 27 LINE",
"830 27 LINE SMOOTH",
"812 27 OFFCURVE",
"805 35 OFFCURVE",
"805 59 CURVE SMOOTH",
"805 278 LINE SMOOTH",
"805 401 OFFCURVE",
"755 460 OFFCURVE",
"649 460 CURVE SMOOTH",
"573 460 OFFCURVE",
"519 430 OFFCURVE",
"485 368 CURVE",
"481 368 LINE",
"462 429 OFFCURVE",
"414 460 OFFCURVE",
"338 460 CURVE SMOOTH",
"262 460 OFFCURVE",
"212 431 OFFCURVE",
"179 368 CURVE",
"175 368 LINE",
"175 450 LINE",
"34 450 LINE",
"34 423 LINE",
"96 423 LINE SMOOTH",
"122 423 OFFCURVE",
"131 413 OFFCURVE",
"131 382 CURVE SMOOTH",
"131 59 LINE SMOOTH",
"131 37 OFFCURVE",
"122 27 OFFCURVE",
"103 27 CURVE SMOOTH",
"34 27 LINE",
"34 0 LINE"
);
}
);
width = 935;
},
{
layerId = "4355E1B8-19E6-44BD-A1D7-6E3C2DECA4C8";
name = Extended;
paths = (
{
closed = 1;
nodes = (
"309 0 LINE",
"309 80 LINE",
"252 80 LINE SMOOTH",
"240 80 OFFCURVE",
"235 89 OFFCURVE",
"235 108 CURVE SMOOTH",
"235 234 LINE SMOOTH",
"235 316 OFFCURVE",
"278 365 OFFCURVE",
"350 365 CURVE SMOOTH",
"404 365 OFFCURVE",
"428 338 OFFCURVE",
"428 277 CURVE SMOOTH",
"428 107 LINE SMOOTH",
"428 89 OFFCURVE",
"422 80 OFFCURVE",
"408 80 CURVE SMOOTH",
"354 80 LINE",
"354 0 LINE",
"642 0 LINE",
"642 80 LINE",
"588 80 LINE SMOOTH",
"566 80 OFFCURVE",
"558 87 OFFCURVE",
"558 106 CURVE SMOOTH",
"558 234 LINE SMOOTH",
"558 316 OFFCURVE",
"601 365 OFFCURVE",
"673 365 CURVE SMOOTH",
"727 365 OFFCURVE",
"751 338 OFFCURVE",
"751 277 CURVE SMOOTH",
"751 107 LINE SMOOTH",
"751 89 OFFCURVE",
"745 80 OFFCURVE",
"731 80 CURVE SMOOTH",
"677 80 LINE",
"677 0 LINE",
"965 0 LINE",
"965 80 LINE",
"911 80 LINE SMOOTH",
"889 80 OFFCURVE",
"881 87 OFFCURVE",
"881 106 CURVE SMOOTH",
"881 296 LINE SMOOTH",
"881 402 OFFCURVE",
"823 460 OFFCURVE",
"718 460 CURVE SMOOTH",
"641 460 OFFCURVE",
"580 428 OFFCURVE",
"550 372 CURVE",
"545 372 LINE",
"521 430 OFFCURVE",
"470 460 OFFCURVE",
"394 460 CURVE SMOOTH",
"320 460 OFFCURVE",
"264 432 OFFCURVE",
"236 380 CURVE",
"232 380 LINE",
"232 450 LINE",
"20 450 LINE",
"20 370 LINE",
"70 370 LINE SMOOTH",
"96 370 OFFCURVE",
"105 360 OFFCURVE",
"105 329 CURVE SMOOTH",
"105 106 LINE SMOOTH",
"105 88 OFFCURVE",
"95 80 OFFCURVE",
"72 80 CURVE SMOOTH",
"20 80 LINE",
"20 0 LINE"
);
}
);
width = 985;
},
{
layerId = "14C77FDB-037D-4842-9381-6D9ED15DD48C";
name = "Bold Extended";
paths = (
{
closed = 1;
nodes = (
"364 0 LINE",
"364 142 LINE",
"341 142 LINE SMOOTH",
"322 142 OFFCURVE",
"316 148 OFFCURVE",
"316 165 CURVE SMOOTH",
"316 258 LINE SMOOTH",
"316 307 OFFCURVE",
"341 334 OFFCURVE",
"385 334 CURVE SMOOTH",
"420 334 OFFCURVE",
"436 317 OFFCURVE",
"436 280 CURVE SMOOTH",
"436 165 LINE SMOOTH",
"436 148 OFFCURVE",
"430 142 OFFCURVE",
"411 142 CURVE SMOOTH",
"389 142 LINE",
"389 0 LINE",
"714 0 LINE",
"714 142 LINE",
"692 142 LINE SMOOTH",
"672 142 OFFCURVE",
"666 150 OFFCURVE",
"666 177 CURVE SMOOTH",
"666 265 LINE SMOOTH",
"666 308 OFFCURVE",
"691 334 OFFCURVE",
"735 334 CURVE SMOOTH",
"770 334 OFFCURVE",
"786 317 OFFCURVE",
"786 280 CURVE SMOOTH",
"786 165 LINE SMOOTH",
"786 148 OFFCURVE",
"780 142 OFFCURVE",
"761 142 CURVE SMOOTH",
"739 142 LINE",
"739 0 LINE",
"1097 0 LINE",
"1097 142 LINE",
"1042 142 LINE SMOOTH",
"1022 142 OFFCURVE",
"1016 150 OFFCURVE",
"1016 177 CURVE SMOOTH",
"1016 317 LINE SMOOTH",
"1016 429 OFFCURVE",
"953 490 OFFCURVE",
"839 490 CURVE SMOOTH",
"764 490 OFFCURVE",
"714 465 OFFCURVE",
"666 403 CURVE",
"662 403 LINE",
"643 459 OFFCURVE",
"584 490 OFFCURVE",
"496 490 CURVE SMOOTH",
"418 490 OFFCURVE",
"364 466 OFFCURVE",
"320 413 CURVE",
"316 413 LINE",
"316 480 LINE",
"5 480 LINE",
"5 338 LINE",
"60 338 LINE SMOOTH",
"80 338 OFFCURVE",
"86 330 OFFCURVE",
"86 303 CURVE SMOOTH",
"86 177 LINE SMOOTH",
"86 150 OFFCURVE",
"80 142 OFFCURVE",
"60 142 CURVE SMOOTH",
"5 142 LINE",
"5 0 LINE"
);
}
);
width = 1102;
}
);
unicode = 006D;
},
{
glyphname = n;
lastChange = "2015-03-09 08:01:27 +0000";
layers = (
{
background = {
paths = (
{
closed = 1;
nodes = (
"34 0 LINE",
"274 0 LINE",
"274 27 LINE",
"197 27 LINE SMOOTH",
"182 27 OFFCURVE",
"175 38 OFFCURVE",
"175 59 CURVE SMOOTH",
"175 238 LINE SMOOTH",
"175 352 OFFCURVE",
"237 422 OFFCURVE",
"339 422 CURVE SMOOTH",
"424 422 OFFCURVE",
"466 374 OFFCURVE",
"466 277 CURVE SMOOTH",
"466 59 LINE SMOOTH",
"466 36 OFFCURVE",
"459 27 OFFCURVE",
"441 27 CURVE SMOOTH",
"366 27 LINE",
"366 0 LINE",
"606 0 LINE",
"606 27 LINE",
"535 27 LINE SMOOTH",
"517 27 OFFCURVE",
"510 35 OFFCURVE",
"510 59 CURVE SMOOTH",
"510 278 LINE SMOOTH",
"510 401 OFFCURVE",
"456 460 OFFCURVE",
"346 460 CURVE SMOOTH",
"269 460 OFFCURVE",
"215 431 OFFCURVE",
"179 368 CURVE",
"175 368 LINE",
"175 450 LINE",
"34 450 LINE",
"34 423 LINE",
"96 423 LINE SMOOTH",
"122 423 OFFCURVE",
"131 413 OFFCURVE",
"131 382 CURVE SMOOTH",
"131 59 LINE SMOOTH",
"131 37 OFFCURVE",
"122 27 OFFCURVE",
"103 27 CURVE SMOOTH",
"34 27 LINE"
);
}
);
};
layerId = UUID0;
name = "Light Extended";
paths = (
{
closed = 1;
nodes = (
"34 0 LINE",
"274 0 LINE",
"274 27 LINE",
"197 27 LINE SMOOTH",
"182 27 OFFCURVE",
"175 38 OFFCURVE",
"175 59 CURVE SMOOTH",
"175 223 LINE SMOOTH",
"175 351 OFFCURVE",
"234 422 OFFCURVE",
"339 422 CURVE SMOOTH",
"424 422 OFFCURVE",
"466 374 OFFCURVE",
"466 277 CURVE SMOOTH",
"466 59 LINE SMOOTH",
"466 36 OFFCURVE",
"459 27 OFFCURVE",
"441 27 CURVE SMOOTH",
"366 27 LINE",
"366 0 LINE",
"606 0 LINE",
"606 27 LINE",
"535 27 LINE SMOOTH",
"517 27 OFFCURVE",
"510 35 OFFCURVE",
"510 59 CURVE SMOOTH",
"510 278 LINE SMOOTH",
"510 401 OFFCURVE",
"456 460 OFFCURVE",
"346 460 CURVE SMOOTH",
"268 460 OFFCURVE",
"214 430 OFFCURVE",
"179 368 CURVE",
"175 368 LINE",
"175 450 LINE",
"34 450 LINE",
"34 423 LINE",
"96 423 LINE SMOOTH",
"122 423 OFFCURVE",
"131 413 OFFCURVE",
"131 382 CURVE SMOOTH",
"131 59 LINE SMOOTH",
"131 37 OFFCURVE",
"122 27 OFFCURVE",
"103 27 CURVE SMOOTH",
"34 27 LINE"
);
}
);
width = 640;
},
{
background = {
paths = (
{
closed = 1;
nodes = (
"20 0 LINE",
"314 0 LINE",
"314 80 LINE",
"252 80 LINE SMOOTH",
"240 80 OFFCURVE",
"235 89 OFFCURVE",
"235 108 CURVE SMOOTH",
"235 245 LINE SMOOTH",
"235 319 OFFCURVE",
"278 365 OFFCURVE",
"345 365 CURVE SMOOTH",
"405 365 OFFCURVE",
"438 329 OFFCURVE",
"438 261 CURVE SMOOTH",
"438 107 LINE SMOOTH",
"438 89 OFFCURVE",
"432 80 OFFCURVE",
"418 80 CURVE SMOOTH",
"359 80 LINE",
"359 0 LINE",
"652 0 LINE",
"652 80 LINE",
"598 80 LINE SMOOTH",
"576 80 OFFCURVE",
"568 87 OFFCURVE",
"568 106 CURVE SMOOTH",
"568 296 LINE SMOOTH",
"568 400 OFFCURVE",
"507 460 OFFCURVE",
"400 460 CURVE SMOOTH",
"324 460 OFFCURVE",
"264 430 OFFCURVE",
"236 380 CURVE",
"232 380 LINE",
"232 450 LINE",
"20 450 LINE",
"20 370 LINE",
"70 370 LINE SMOOTH",
"96 370 OFFCURVE",
"105 360 OFFCURVE",
"105 329 CURVE SMOOTH",
"105 106 LINE SMOOTH",
"105 88 OFFCURVE",
"95 80 OFFCURVE",
"72 80 CURVE SMOOTH",
"20 80 LINE"
);
}
);
};
layerId = "4355E1B8-19E6-44BD-A1D7-6E3C2DECA4C8";
name = Extended;
paths = (
{
closed = 1;
nodes = (
"20 0 LINE",
"314 0 LINE",
"314 80 LINE",
"252 80 LINE SMOOTH",
"240 80 OFFCURVE",
"235 89 OFFCURVE",
"235 108 CURVE SMOOTH",
"235 234 LINE SMOOTH",
"235 311 OFFCURVE",
"279 365 OFFCURVE",
"353 365 CURVE SMOOTH",
"413 365 OFFCURVE",
"438 335 OFFCURVE",
"438 277 CURVE SMOOTH",
"438 107 LINE SMOOTH",
"438 89 OFFCURVE",
"432 80 OFFCURVE",
"418 80 CURVE SMOOTH",
"359 80 LINE",
"359 0 LINE",
"652 0 LINE",
"652 80 LINE",
"598 80 LINE SMOOTH",
"576 80 OFFCURVE",
"568 87 OFFCURVE",
"568 106 CURVE SMOOTH",
"568 296 LINE SMOOTH",
"568 400 OFFCURVE",
"507 460 OFFCURVE",
"400 460 CURVE SMOOTH",
"324 460 OFFCURVE",
"264 430 OFFCURVE",
"236 380 CURVE",
"232 380 LINE",
"232 450 LINE",
"20 450 LINE",
"20 370 LINE",
"70 370 LINE SMOOTH",
"96 370 OFFCURVE",
"105 360 OFFCURVE",
"105 329 CURVE SMOOTH",
"105 106 LINE SMOOTH",
"105 88 OFFCURVE",
"95 80 OFFCURVE",
"72 80 CURVE SMOOTH",
"20 80 LINE"
);
}
);
width = 673;
},
{
background = {
paths = (
{
closed = 1;
nodes = (
"5 0 LINE",
"369 0 LINE",
"369 142 LINE",
"341 142 LINE SMOOTH",
"322 142 OFFCURVE",
"316 148 OFFCURVE",
"316 165 CURVE SMOOTH",
"316 255 LINE SMOOTH",
"316 299 OFFCURVE",
"340 334 OFFCURVE",
"388 334 CURVE SMOOTH",
"426 334 OFFCURVE",
"446 312 OFFCURVE",
"446 271 CURVE SMOOTH",
"446 165 LINE SMOOTH",
"446 148 OFFCURVE",
"440 142 OFFCURVE",
"421 142 CURVE SMOOTH",
"393 142 LINE",
"393 0 LINE",
"757 0 LINE",
"757 142 LINE",
"702 142 LINE SMOOTH",
"682 142 OFFCURVE",
"676 149 OFFCURVE",
"676 177 CURVE SMOOTH",
"676 327 LINE SMOOTH",
"676 435 OFFCURVE",
"605 490 OFFCURVE",
"495 490 CURVE SMOOTH",
"426 490 OFFCURVE",
"367 468 OFFCURVE",
"320 413 CURVE",
"316 413 LINE",
"316 480 LINE",
"5 480 LINE",
"5 338 LINE",
"60 338 LINE SMOOTH",
"80 338 OFFCURVE",
"86 331 OFFCURVE",
"86 303 CURVE SMOOTH",
"86 177 LINE SMOOTH",
"86 149 OFFCURVE",
"80 142 OFFCURVE",
"60 142 CURVE SMOOTH",
"5 142 LINE"
);
}
);
};
layerId = "14C77FDB-037D-4842-9381-6D9ED15DD48C";
name = "Bold Extended";
paths = (
{
closed = 1;
nodes = (
"5 0 LINE",
"369 0 LINE",
"369 142 LINE",
"341 142 LINE SMOOTH",
"322 142 OFFCURVE",
"316 148 OFFCURVE",
"316 165 CURVE SMOOTH",
"316 258 LINE SMOOTH",
"316 305 OFFCURVE",
"344 334 OFFCURVE",
"390 334 CURVE SMOOTH",
"427 334 OFFCURVE",
"446 315 OFFCURVE",
"446 280 CURVE SMOOTH",
"446 165 LINE SMOOTH",
"446 148 OFFCURVE",
"440 142 OFFCURVE",
"421 142 CURVE SMOOTH",
"393 142 LINE",
"393 0 LINE",
"757 0 LINE",
"757 142 LINE",
"702 142 LINE SMOOTH",
"682 142 OFFCURVE",
"676 150 OFFCURVE",
"676 177 CURVE SMOOTH",
"676 317 LINE SMOOTH",
"676 427 OFFCURVE",
"610 490 OFFCURVE",
"495 490 CURVE SMOOTH",
"421 490 OFFCURVE",
"364 465 OFFCURVE",
"320 413 CURVE",
"316 413 LINE",
"316 480 LINE",
"5 480 LINE",
"5 338 LINE",
"60 338 LINE SMOOTH",
"80 338 OFFCURVE",
"86 330 OFFCURVE",
"86 303 CURVE SMOOTH",
"86 177 LINE SMOOTH",
"86 150 OFFCURVE",
"80 142 OFFCURVE",
"60 142 CURVE SMOOTH",
"5 142 LINE"
);
}
);
width = 762;
},
{
background = {
paths = (
{
closed = 1;
nodes = (
"10 0 LINE",
"176 0 LINE",
"176 25 LINE",
"139 25 LINE SMOOTH",
"122 25 OFFCURVE",
"116 38 OFFCURVE",
"116 57 CURVE SMOOTH",
"116 259 LINE SMOOTH",
"116 356 OFFCURVE",
"158 425 OFFCURVE",
"206 425 CURVE SMOOTH",
"240 425 OFFCURVE",
"268 404 OFFCURVE",
"268 357 CURVE SMOOTH",
"268 57 LINE SMOOTH",
"268 35 OFFCURVE",
"261 25 OFFCURVE",
"243 25 CURVE SMOOTH",
"207 25 LINE",
"207 0 LINE",
"373 0 LINE",
"373 25 LINE",
"333 25 LINE SMOOTH",
"311 25 OFFCURVE",
"308 38 OFFCURVE",
"308 57 CURVE SMOOTH",
"308 363 LINE SMOOTH",
"308 425 OFFCURVE",
"272 460 OFFCURVE",
"221 460 CURVE SMOOTH",
"173 460 OFFCURVE",
"142 435 OFFCURVE",
"121 392 CURVE",
"117 392 LINE",
"117 450 LINE",
"10 450 LINE",
"10 425 LINE",
"41 425 LINE SMOOTH",
"70 425 OFFCURVE",
"76 412 OFFCURVE",
"76 384 CURVE SMOOTH",
"76 57 LINE SMOOTH",
"76 38 OFFCURVE",
"70 25 OFFCURVE",
"49 25 CURVE SMOOTH",
"10 25 LINE"
);
}
);
};
layerId = "E9E6D55E-9446-45F2-B66C-3272698B0216";
name = "Light Condensed";
paths = (
{
closed = 1;
nodes = (
"10 0 LINE",
"176 0 LINE",
"176 25 LINE",
"143 25 LINE SMOOTH",
"123 25 OFFCURVE",
"116 35 OFFCURVE",
"116 57 CURVE SMOOTH",
"116 259 LINE SMOOTH",
"116 353 OFFCURVE",
"158 425 OFFCURVE",
"214 425 CURVE SMOOTH",
"248 425 OFFCURVE",
"268 400 OFFCURVE",
"268 360 CURVE SMOOTH",
"268 57 LINE SMOOTH",
"268 35 OFFCURVE",
"261 25 OFFCURVE",
"241 25 CURVE SMOOTH",
"208 25 LINE",
"208 0 LINE",
"374 0 LINE",
"374 25 LINE",
"335 25 LINE SMOOTH",
"315 25 OFFCURVE",
"308 35 OFFCURVE",
"308 57 CURVE SMOOTH",
"308 363 LINE SMOOTH",
"308 424 OFFCURVE",
"275 460 OFFCURVE",
"221 460 CURVE SMOOTH",
"177 460 OFFCURVE",
"142 436 OFFCURVE",
"120 392 CURVE",
"116 392 LINE",
"116 450 LINE",
"10 450 LINE",
"10 425 LINE",
"49 425 LINE SMOOTH",
"69 425 OFFCURVE",
"76 415 OFFCURVE",
"76 393 CURVE SMOOTH",
"76 57 LINE SMOOTH",
"76 35 OFFCURVE",
"69 25 OFFCURVE",
"49 25 CURVE SMOOTH",
"10 25 LINE"
);
}
);
width = 384;
},
{
background = {
paths = (
{
closed = 1;
nodes = (
"16 0 LINE",
"232 0 LINE",
"232 80 LINE",
"225 80 LINE SMOOTH",
"211 80 OFFCURVE",
"205 91 OFFCURVE",
"205 107 CURVE SMOOTH",
"205 296 LINE SMOOTH",
"205 332 OFFCURVE",
"213 365 OFFCURVE",
"242 365 CURVE SMOOTH",
"262 365 OFFCURVE",
"275 349 OFFCURVE",
"275 316 CURVE SMOOTH",
"275 107 LINE SMOOTH",
"275 91 OFFCURVE",
"269 80 OFFCURVE",
"255 80 CURVE SMOOTH",
"248 80 LINE",
"248 0 LINE",
"464 0 LINE",
"464 80 LINE",
"430 80 LINE SMOOTH",
"410 80 OFFCURVE",
"405 93 OFFCURVE",
"405 113 CURVE SMOOTH",
"405 344 LINE SMOOTH",
"405 409 OFFCURVE",
"373 460 OFFCURVE",
"307 460 CURVE SMOOTH",
"261 460 OFFCURVE",
"229 436 OFFCURVE",
"209 397 CURVE",
"205 397 LINE",
"205 450 LINE",
"16 450 LINE",
"16 370 LINE",
"50 370 LINE SMOOTH",
"70 370 OFFCURVE",
"75 357 OFFCURVE",
"75 337 CURVE SMOOTH",
"75 113 LINE SMOOTH",
"75 93 OFFCURVE",
"70 80 OFFCURVE",
"50 80 CURVE SMOOTH",
"16 80 LINE"
);
}
);
};
layerId = "B25F85BC-C782-4067-8484-07202F80B8CD";
name = Condensed;
paths = (
{
closed = 1;
nodes = (
"16 0 LINE",
"232 0 LINE",
"232 80 LINE",
"225 80 LINE SMOOTH",
"212 80 OFFCURVE",
"205 90 OFFCURVE",
"205 107 CURVE SMOOTH",
"205 269 LINE SMOOTH",
"205 315 OFFCURVE",
"219 338 OFFCURVE",
"246 338 CURVE SMOOTH",
"265 338 OFFCURVE",
"275 322 OFFCURVE",
"275 289 CURVE SMOOTH",
"275 107 LINE SMOOTH",
"275 90 OFFCURVE",
"268 80 OFFCURVE",
"255 80 CURVE SMOOTH",
"248 80 LINE",
"248 0 LINE",
"464 0 LINE",
"464 80 LINE",
"430 80 LINE SMOOTH",
"412 80 OFFCURVE",
"405 90 OFFCURVE",
"405 113 CURVE SMOOTH",
"405 344 LINE SMOOTH",
"405 415 OFFCURVE",
"368 460 OFFCURVE",
"309 460 CURVE SMOOTH",
"260 460 OFFCURVE",
"221 428 OFFCURVE",
"209 380 CURVE",
"205 380 LINE",
"205 450 LINE",
"16 450 LINE",
"16 370 LINE",
"50 370 LINE SMOOTH",
"68 370 OFFCURVE",
"75 360 OFFCURVE",
"75 337 CURVE SMOOTH",
"75 113 LINE SMOOTH",
"75 90 OFFCURVE",
"68 80 OFFCURVE",
"50 80 CURVE SMOOTH",
"16 80 LINE"
);
}
);
width = 480;
},
{
background = {
paths = (
{
closed = 1;
nodes = (
"6 0 LINE",
"238 0 LINE",
"238 108 LINE",
"234 108 LINE SMOOTH",
"226 108 OFFCURVE",
"224 113 OFFCURVE",
"224 123 CURVE SMOOTH",
"224 290 LINE SMOOTH",
"224 324 OFFCURVE",
"228 343 OFFCURVE",
"244 343 CURVE SMOOTH",
"260 343 OFFCURVE",
"264 324 OFFCURVE",
"264 290 CURVE SMOOTH",
"264 123 LINE SMOOTH",
"264 113 OFFCURVE",
"262 108 OFFCURVE",
"254 108 CURVE SMOOTH",
"250 108 LINE",
"250 0 LINE",
"482 0 LINE",
"482 108 LINE",
"470 108 LINE SMOOTH",
"450 108 OFFCURVE",
"440 119 OFFCURVE",
"440 139 CURVE SMOOTH",
"440 345 LINE SMOOTH",
"440 423 OFFCURVE",
"400 476 OFFCURVE",
"328 476 CURVE SMOOTH",
"281 476 OFFCURVE",
"253 456 OFFCURVE",
"228 420 CURVE",
"224 420 LINE",
"224 466 LINE",
"6 466 LINE",
"6 358 LINE",
"18 358 LINE SMOOTH",
"38 358 OFFCURVE",
"48 347 OFFCURVE",
"48 327 CURVE SMOOTH",
"48 139 LINE SMOOTH",
"48 119 OFFCURVE",
"38 108 OFFCURVE",
"18 108 CURVE SMOOTH",
"6 108 LINE"
);
}
);
};
layerId = "B817C739-5D48-43E8-AAEE-CE891513D7BC";
name = "Bold Condensed";
paths = (
{
closed = 1;
nodes = (
"6 0 LINE",
"238 0 LINE",
"238 108 LINE",
"234 108 LINE SMOOTH",
"227 108 OFFCURVE",
"224 112 OFFCURVE",
"224 123 CURVE SMOOTH",
"224 261 LINE SMOOTH",
"224 316 OFFCURVE",
"230 334 OFFCURVE",
"247 334 CURVE SMOOTH",
"260 334 OFFCURVE",
"264 324 OFFCURVE",
"264 292 CURVE SMOOTH",
"264 123 LINE SMOOTH",
"264 112 OFFCURVE",
"261 108 OFFCURVE",
"254 108 CURVE SMOOTH",
"250 108 LINE",
"250 0 LINE",
"482 0 LINE",
"482 108 LINE",
"470 108 LINE SMOOTH",
"450 108 OFFCURVE",
"440 119 OFFCURVE",
"440 139 CURVE SMOOTH",
"440 345 LINE SMOOTH",
"440 426 OFFCURVE",
"397 476 OFFCURVE",
"327 476 CURVE SMOOTH",
"281 476 OFFCURVE",
"249 456 OFFCURVE",
"228 413 CURVE",
"224 413 LINE",
"224 466 LINE",
"6 466 LINE",
"6 358 LINE",
"18 358 LINE SMOOTH",
"38 358 OFFCURVE",
"48 347 OFFCURVE",
"48 327 CURVE SMOOTH",
"48 139 LINE SMOOTH",
"48 119 OFFCURVE",
"38 108 OFFCURVE",
"18 108 CURVE SMOOTH",
"6 108 LINE"
);
}
);
width = 488;
}
);
unicode = 006E;
},
{
glyphname = o;
lastChange = "2015-03-09 07:55:35 +0000";
layers = (
{
layerId = UUID0;
name = "Light Extended";
paths = (
{
closed = 1;
nodes = (
"399 -10 OFFCURVE",
"490 75 OFFCURVE",
"490 225 CURVE SMOOTH",
"490 375 OFFCURVE",
"399 460 OFFCURVE",
"275 460 CURVE SMOOTH",
"150 460 OFFCURVE",
"59 375 OFFCURVE",
"59 225 CURVE SMOOTH",
"59 75 OFFCURVE",
"150 -10 OFFCURVE",
"274 -10 CURVE SMOOTH"
);
},
{
closed = 1;
nodes = (
"170 28 OFFCURVE",
"106 83 OFFCURVE",
"106 224 CURVE SMOOTH",
"106 365 OFFCURVE",
"170 422 OFFCURVE",
"275 422 CURVE SMOOTH",
"378 422 OFFCURVE",
"444 365 OFFCURVE",
"444 224 CURVE SMOOTH",
"444 83 OFFCURVE",
"378 28 OFFCURVE",
"275 28 CURVE SMOOTH"
);
}
);
width = 550;
},
{
layerId = "4355E1B8-19E6-44BD-A1D7-6E3C2DECA4C8";
name = Extended;
paths = (
{
closed = 1;
nodes = (
"475 -10 OFFCURVE",
"558 87 OFFCURVE",
"558 225 CURVE SMOOTH",
"558 363 OFFCURVE",
"476 460 OFFCURVE",
"304 460 CURVE SMOOTH",
"132 460 OFFCURVE",
"50 363 OFFCURVE",
"50 225 CURVE SMOOTH",
"50 87 OFFCURVE",
"131 -10 OFFCURVE",
"303 -10 CURVE SMOOTH"
);
},
{
closed = 1;
nodes = (
"221 85 OFFCURVE",
"189 140 OFFCURVE",
"189 224 CURVE SMOOTH",
"189 309 OFFCURVE",
"221 365 OFFCURVE",
"304 365 CURVE SMOOTH",
"386 365 OFFCURVE",
"418 309 OFFCURVE",
"418 224 CURVE SMOOTH",
"418 140 OFFCURVE",
"386 85 OFFCURVE",
"304 85 CURVE SMOOTH"
);
}
);
width = 608;
},
{
background = {
paths = (
{
closed = 1;
nodes = (
"519 -10 OFFCURVE",
"642 62 OFFCURVE",
"642 242 CURVE SMOOTH",
"642 422 OFFCURVE",
"518 493 OFFCURVE",
"325 493 CURVE SMOOTH",
"132 493 OFFCURVE",
"8 422 OFFCURVE",
"8 242 CURVE SMOOTH",
"8 62 OFFCURVE",
"131 -10 OFFCURVE",
"325 -10 CURVE SMOOTH"
);
},
{
closed = 1;
nodes = (
"289 155 OFFCURVE",
"258 163 OFFCURVE",
"258 238 CURVE SMOOTH",
"258 309 OFFCURVE",
"286 328 OFFCURVE",
"325 328 CURVE SMOOTH",
"364 328 OFFCURVE",
"392 309 OFFCURVE",
"392 238 CURVE SMOOTH",
"392 163 OFFCURVE",
"361 155 OFFCURVE",
"325 155 CURVE SMOOTH"
);
}
);
};
layerId = "14C77FDB-037D-4842-9381-6D9ED15DD48C";
name = "Bold Extended";
paths = (
{
closed = 1;
nodes = (
"517 -10 OFFCURVE",
"632 60 OFFCURVE",
"632 240 CURVE SMOOTH",
"632 420 OFFCURVE",
"517 490 OFFCURVE",
"325 490 CURVE SMOOTH",
"133 490 OFFCURVE",
"18 420 OFFCURVE",
"18 240 CURVE SMOOTH",
"18 60 OFFCURVE",
"133 -10 OFFCURVE",
"325 -10 CURVE SMOOTH"
);
},
{
closed = 1;
nodes = (
"285 154 OFFCURVE",
"258 167 OFFCURVE",
"258 237 CURVE SMOOTH",
"258 307 OFFCURVE",
"285 326 OFFCURVE",
"325 326 CURVE SMOOTH",
"365 326 OFFCURVE",
"392 307 OFFCURVE",
"392 237 CURVE SMOOTH",
"392 167 OFFCURVE",
"365 154 OFFCURVE",
"325 154 CURVE SMOOTH"
);
}
);
width = 650;
},
{
background = {
paths = (
{
closed = 1;
nodes = (
"266 -12 OFFCURVE",
"320 75 OFFCURVE",
"320 225 CURVE SMOOTH",
"320 375 OFFCURVE",
"266 462 OFFCURVE",
"181 462 CURVE SMOOTH",
"97 462 OFFCURVE",
"44 375 OFFCURVE",
"44 225 CURVE SMOOTH",
"44 75 OFFCURVE",
"97 -12 OFFCURVE",
"181 -12 CURVE SMOOTH"
);
},
{
closed = 1;
nodes = (
"115 23 OFFCURVE",
"89 80 OFFCURVE",
"89 224 CURVE SMOOTH",
"89 368 OFFCURVE",
"115 427 OFFCURVE",
"181 427 CURVE SMOOTH",
"248 427 OFFCURVE",
"276 368 OFFCURVE",
"276 224 CURVE SMOOTH",
"276 80 OFFCURVE",
"248 23 OFFCURVE",
"181 23 CURVE SMOOTH"
);
}
);
};
layerId = "E9E6D55E-9446-45F2-B66C-3272698B0216";
name = "Light Condensed";
paths = (
{
closed = 1;
nodes = (
"268 -10 OFFCURVE",
"320 75 OFFCURVE",
"320 225 CURVE SMOOTH",
"320 375 OFFCURVE",
"268 460 OFFCURVE",
"182 460 CURVE SMOOTH",
"96 460 OFFCURVE",
"44 375 OFFCURVE",
"44 225 CURVE SMOOTH",
"44 75 OFFCURVE",
"96 -10 OFFCURVE",
"182 -10 CURVE SMOOTH"
);
},
{
closed = 1;
nodes = (
"123 25 OFFCURVE",
"88 79 OFFCURVE",
"88 225 CURVE SMOOTH",
"88 371 OFFCURVE",
"123 425 OFFCURVE",
"182 425 CURVE SMOOTH",
"242 425 OFFCURVE",
"276 371 OFFCURVE",
"276 225 CURVE SMOOTH",
"276 79 OFFCURVE",
"242 25 OFFCURVE",
"182 25 CURVE SMOOTH"
);
}
);
width = 364;
},
{
layerId = "B25F85BC-C782-4067-8484-07202F80B8CD";
name = Condensed;
paths = (
{
closed = 1;
nodes = (
"336 -10 OFFCURVE",
"396 73 OFFCURVE",
"396 225 CURVE SMOOTH",
"396 377 OFFCURVE",
"336 460 OFFCURVE",
"209 460 CURVE SMOOTH",
"82 460 OFFCURVE",
"22 377 OFFCURVE",
"22 225 CURVE SMOOTH",
"22 73 OFFCURVE",
"82 -10 OFFCURVE",
"207 -10 CURVE SMOOTH"
);
},
{
closed = 1;
nodes = (
"175 85 OFFCURVE",
"164 126 OFFCURVE",
"164 224 CURVE SMOOTH",
"164 323 OFFCURVE",
"175 365 OFFCURVE",
"209 365 CURVE SMOOTH",
"243 365 OFFCURVE",
"254 323 OFFCURVE",
"254 224 CURVE SMOOTH",
"254 126 OFFCURVE",
"243 85 OFFCURVE",
"209 85 CURVE SMOOTH"
);
}
);
width = 418;
},
{
background = {
paths = (
{
closed = 1;
nodes = (
"367 -12 OFFCURVE",
"435 71 OFFCURVE",
"435 233 CURVE SMOOTH",
"435 394 OFFCURVE",
"367 478 OFFCURVE",
"222 478 CURVE SMOOTH",
"76 478 OFFCURVE",
"9 394 OFFCURVE",
"9 233 CURVE SMOOTH",
"9 71 OFFCURVE",
"76 -12 OFFCURVE",
"221 -12 CURVE SMOOTH"
);
},
{
closed = 1;
nodes = (
"203 121 OFFCURVE",
"199 141 OFFCURVE",
"199 233 CURVE SMOOTH",
"199 325 OFFCURVE",
"203 344 OFFCURVE",
"223 344 CURVE SMOOTH",
"242 344 OFFCURVE",
"245 326 OFFCURVE",
"245 233 CURVE SMOOTH",
"245 140 OFFCURVE",
"242 121 OFFCURVE",
"223 121 CURVE SMOOTH"
);
}
);
};
layerId = "B817C739-5D48-43E8-AAEE-CE891513D7BC";
name = "Bold Condensed";
paths = (
{
closed = 1;
nodes = (
"367 -12 OFFCURVE",
"436 71 OFFCURVE",
"436 233 CURVE SMOOTH",
"436 394 OFFCURVE",
"367 478 OFFCURVE",
"222 478 CURVE SMOOTH",
"76 478 OFFCURVE",
"8 394 OFFCURVE",
"8 233 CURVE SMOOTH",
"8 71 OFFCURVE",
"76 -12 OFFCURVE",
"222 -12 CURVE SMOOTH"
);
},
{
closed = 1;
nodes = (
"203 121 OFFCURVE",
"198 141 OFFCURVE",
"198 233 CURVE SMOOTH",
"198 325 OFFCURVE",
"202 344 OFFCURVE",
"222 344 CURVE SMOOTH",
"242 344 OFFCURVE",
"246 325 OFFCURVE",
"246 233 CURVE SMOOTH",
"246 141 OFFCURVE",
"243 121 OFFCURVE",
"222 121 CURVE SMOOTH"
);
}
);
width = 444;
}
);
unicode = 006F;
},
